ISO-10303-21;
HEADER;
/* Generated by software containing ST-Developer
 * from STEP Tools, Inc. (www.steptools.com) 
 */

FILE_DESCRIPTION(
/* description */ (''),
/* implementation_level */ '2;1');

FILE_NAME(
/* name */ 'Mimo Horns simple.step',
/* time_stamp */ '2026-08-19T15:43:27+05:00',
/* author */ (''),
/* organization */ (''),
/* preprocessor_version */ 'ST-DEVELOPER v20.1',
/* originating_system */ 'Autodesk Translation Framework v15.8.0.0',
/* authorisation */ '');

FILE_SCHEMA (('AUTOMOTIVE_DESIGN { 1 0 10303 214 3 1 1 }'));
ENDSEC;

DATA;
#10=MECHANICAL_DESIGN_GEOMETRIC_PRESENTATION_REPRESENTATION('',(#13,#14),
#1078);
#11=SHAPE_REPRESENTATION_RELATIONSHIP('SRR','None',#1085,#12);
#12=ADVANCED_BREP_SHAPE_REPRESENTATION('',(#15,#16),#1077);
#13=STYLED_ITEM('',(#1094),#15);
#14=STYLED_ITEM('',(#1094),#16);
#15=MANIFOLD_SOLID_BREP('Body1',#225);
#16=MANIFOLD_SOLID_BREP('Body2',#226);
#17=(
BOUNDED_SURFACE()
B_SPLINE_SURFACE(2,1,((#660,#661),(#662,#663),(#664,#665)),
 .UNSPECIFIED.,.F.,.F.,.F.)
B_SPLINE_SURFACE_WITH_KNOTS((3,3),(2,2),(0.,0.816060133153177),(0.,2.2),
 .UNSPECIFIED.)
GEOMETRIC_REPRESENTATION_ITEM()
RATIONAL_B_SPLINE_SURFACE(((1.,1.),(3.,3.),(1.,1.)))
REPRESENTATION_ITEM('')
SURFACE()
);
#18=(
BOUNDED_SURFACE()
B_SPLINE_SURFACE(2,1,((#1069,#1070),(#1071,#1072),(#1073,#1074)),
 .UNSPECIFIED.,.F.,.F.,.F.)
B_SPLINE_SURFACE_WITH_KNOTS((3,3),(2,2),(0.,0.816060133153177),(0.,2.2),
 .UNSPECIFIED.)
GEOMETRIC_REPRESENTATION_ITEM()
RATIONAL_B_SPLINE_SURFACE(((1.,1.),(3.,3.),(1.,1.)))
REPRESENTATION_ITEM('')
SURFACE()
);
#19=CYLINDRICAL_SURFACE('',#241,16.3580281472577);
#20=CYLINDRICAL_SURFACE('',#242,29.3667415020562);
#21=CYLINDRICAL_SURFACE('',#244,16.3580281472577);
#22=CYLINDRICAL_SURFACE('',#245,29.3667415020562);
#23=LINE('',#469,#31);
#24=LINE('',#496,#32);
#25=LINE('',#499,#33);
#26=LINE('',#659,#34);
#27=LINE('',#878,#35);
#28=LINE('',#905,#36);
#29=LINE('',#908,#37);
#30=LINE('',#1068,#38);
#31=VECTOR('',#250,10.);
#32=VECTOR('',#251,10.);
#33=VECTOR('',#254,10.);
#34=VECTOR('',#257,10.);
#35=VECTOR('',#260,10.);
#36=VECTOR('',#261,10.);
#37=VECTOR('',#264,10.);
#38=VECTOR('',#267,10.);
#39=PLANE('',#240);
#40=PLANE('',#243);
#41=FACE_OUTER_BOUND('',#53,.T.);
#42=FACE_OUTER_BOUND('',#54,.T.);
#43=FACE_OUTER_BOUND('',#55,.T.);
#44=FACE_OUTER_BOUND('',#56,.T.);
#45=FACE_OUTER_BOUND('',#57,.T.);
#46=FACE_OUTER_BOUND('',#58,.T.);
#47=FACE_OUTER_BOUND('',#59,.T.);
#48=FACE_OUTER_BOUND('',#60,.T.);
#49=FACE_OUTER_BOUND('',#61,.T.);
#50=FACE_OUTER_BOUND('',#62,.T.);
#51=FACE_OUTER_BOUND('',#63,.T.);
#52=FACE_OUTER_BOUND('',#64,.T.);
#53=EDGE_LOOP('',(#145,#146,#147,#148,#149,#150));
#54=EDGE_LOOP('',(#151,#152,#153,#154,#155,#156));
#55=EDGE_LOOP('',(#157,#158,#159,#160));
#56=EDGE_LOOP('',(#161,#162,#163,#164,#165,#166));
#57=EDGE_LOOP('',(#167,#168,#169,#170));
#58=EDGE_LOOP('',(#171,#172,#173,#174,#175,#176));
#59=EDGE_LOOP('',(#177,#178,#179,#180,#181,#182));
#60=EDGE_LOOP('',(#183,#184,#185,#186,#187,#188));
#61=EDGE_LOOP('',(#189,#190,#191,#192));
#62=EDGE_LOOP('',(#193,#194,#195,#196,#197,#198));
#63=EDGE_LOOP('',(#199,#200,#201,#202));
#64=EDGE_LOOP('',(#203,#204,#205,#206,#207,#208));
#65=B_SPLINE_CURVE_WITH_KNOTS('',3,(#381,#382,#383,#384,#385,#386,#387,
#388,#389,#390,#391,#392,#393,#394,#395,#396,#397,#398,#399,#400),
 .UNSPECIFIED.,.F.,.F.,(4,2,2,2,2,2,2,2,2,4),(0.48704374823531,0.492336723494412,
0.521367948405672,0.561873967059946,0.634305381321724,0.75647242684315,
0.821180786083145,0.850729801182604,0.863399857571706,0.874966484187968),
 .UNSPECIFIED.);
#66=B_SPLINE_CURVE_WITH_KNOTS('',3,(#402,#403,#404,#405,#406,#407,#408,
#409,#410,#411,#412),.UNSPECIFIED.,.F.,.F.,(4,1,1,1,1,1,1,1,4),(-5.55038695758161,
-5.15366028368204,-4.27673691497392,-3.39981354626581,-2.52289017755769,
-1.64596680884957,-0.769043440141453,-0.330581755787395,-0.0961147677451418),
 .UNSPECIFIED.);
#67=B_SPLINE_CURVE_WITH_KNOTS('',3,(#414,#415,#416,#417,#418,#419,#420,
#421,#422,#423,#424,#425),.UNSPECIFIED.,.F.,.F.,(4,2,2,2,2,4),(0.,0.425440040529492,
0.848234729900477,1.27535035857803,1.49045431940791,1.72238436526053),
 .UNSPECIFIED.);
#68=B_SPLINE_CURVE_WITH_KNOTS('',3,(#427,#428,#429,#430,#431,#432,#433,
#434,#435,#436,#437,#438),.UNSPECIFIED.,.F.,.F.,(4,2,2,2,2,4),(1.72238436526053,
1.92292077406189,2.3551338039489,2.78601533665125,3.12150137523825,3.45685423776438),
 .UNSPECIFIED.);
#69=B_SPLINE_CURVE_WITH_KNOTS('',3,(#440,#441,#442,#443,#444,#445,#446,
#447,#448,#449,#450),.UNSPECIFIED.,.F.,.F.,(4,1,1,1,1,1,1,1,4),(-0.107879928566664,
0.330581755787395,0.769043440141453,1.64596680884957,2.52289017755769,3.39981354626581,
4.27673691497392,5.15366028368204,5.78143407679337),.UNSPECIFIED.);
#70=B_SPLINE_CURVE_WITH_KNOTS('',3,(#451,#452,#453,#454,#455,#456,#457,
#458,#459,#460,#461,#462,#463,#464,#465,#466),.UNSPECIFIED.,.F.,.F.,(4,
2,2,2,2,2,2,4),(0.,0.0470820499213457,0.105932953327885,0.195488494460213,
0.359814427729612,0.434538622688461,0.466238596013598,0.48704374823531),
 .UNSPECIFIED.);
#71=B_SPLINE_CURVE_WITH_KNOTS('',3,(#471,#472,#473,#474,#475,#476,#477,
#478,#479,#480,#481,#482),.UNSPECIFIED.,.F.,.F.,(4,2,2,2,2,4),(1.73521271823688,
2.15005394422593,2.57991942436195,3.00586920317093,3.23115762900494,3.45701742523474),
 .UNSPECIFIED.);
#72=B_SPLINE_CURVE_WITH_KNOTS('',3,(#484,#485,#486,#487,#488,#489,#490,
#491,#492,#493,#494,#495),.UNSPECIFIED.,.F.,.F.,(4,2,2,2,2,4),(0.,0.428098145258193,
0.857153266026292,1.28734133531606,1.71855935368252,1.73521271823688),
 .UNSPECIFIED.);
#73=B_SPLINE_CURVE_WITH_KNOTS('',3,(#500,#501,#502,#503,#504,#505,#506,
#507,#508,#509),.UNSPECIFIED.,.F.,.F.,(4,1,1,1,1,1,1,4),(-6.16478199845332,
-5.49206335023649,-4.61523324876023,-3.73840314728397,-2.8615730458077,
-1.98474294433144,-1.10791284285518,-0.71132359185144),.UNSPECIFIED.);
#74=B_SPLINE_CURVE_WITH_KNOTS('',3,(#611,#612,#613,#614,#615,#616,#617,
#618,#619,#620,#621,#622,#623,#624,#625,#626),.UNSPECIFIED.,.F.,.F.,(4,
2,2,2,2,2,2,4),(0.,0.0200129424199917,0.0487620146250556,0.107050642739398,
0.234524209487461,0.494115460864496,0.551836880634266,0.592006917609676),
 .UNSPECIFIED.);
#75=B_SPLINE_CURVE_WITH_KNOTS('',3,(#628,#629,#630,#631,#632,#633,#634,
#635,#636,#637,#638,#639,#640,#641,#642,#643,#644,#645,#646,#647),
 .UNSPECIFIED.,.F.,.F.,(4,2,2,2,2,2,2,2,2,4),(0.592006917609676,0.598337944808433,
0.638294617456877,0.686828358271247,0.778388388334341,0.997540371258036,
1.22620718707958,1.34457519731303,1.3987311498632,1.45089304952389),
 .UNSPECIFIED.);
#76=B_SPLINE_CURVE_WITH_KNOTS('',3,(#648,#649,#650,#651,#652,#653,#654,
#655,#656,#657),.UNSPECIFIED.,.F.,.F.,(4,1,1,1,1,1,1,4),(0.480177697685219,
1.10791284285518,1.98474294433144,2.8615730458077,3.73840314728397,4.61523324876023,
5.49206335023649,6.36889345171275),.UNSPECIFIED.);
#77=B_SPLINE_CURVE_WITH_KNOTS('',3,(#788,#789,#790,#791,#792,#793,#794,
#795,#796,#797,#798,#799,#800,#801,#802,#803,#804,#805,#806,#807),
 .UNSPECIFIED.,.F.,.F.,(4,2,2,2,2,2,2,2,2,4),(0.48704374823531,0.492336723494412,
0.521367948405672,0.561873967059946,0.634305381321724,0.75647242684315,
0.821180786083145,0.850729801182604,0.863399857571706,0.874966484187968),
 .UNSPECIFIED.);
#78=B_SPLINE_CURVE_WITH_KNOTS('',3,(#809,#810,#811,#812,#813,#814,#815,
#816,#817,#818,#819,#820),.UNSPECIFIED.,.F.,.F.,(4,1,1,1,1,1,1,1,1,4),(-5.55038128166059,
-5.15366028368204,-4.27673691497392,-3.39981354626581,-2.52289017755769,
-1.64596680884957,-1.20750512449551,-0.769043440141453,-0.330581755787395,
-0.0960615265208287),.UNSPECIFIED.);
#79=B_SPLINE_CURVE_WITH_KNOTS('',3,(#822,#823,#824,#825,#826,#827,#828,
#829,#830,#831,#832,#833),.UNSPECIFIED.,.F.,.F.,(4,2,2,2,2,4),(0.,0.425440040529492,
0.848234729900477,1.27535035857803,1.49045431940791,1.72238436526053),
 .UNSPECIFIED.);
#80=B_SPLINE_CURVE_WITH_KNOTS('',3,(#835,#836,#837,#838,#839,#840,#841,
#842,#843,#844,#845,#846),.UNSPECIFIED.,.F.,.F.,(4,2,2,2,2,4),(1.72238436526053,
1.92292077406189,2.3551338039489,2.78601533665125,3.12150137523825,3.45685423776438),
 .UNSPECIFIED.);
#81=B_SPLINE_CURVE_WITH_KNOTS('',3,(#848,#849,#850,#851,#852,#853,#854,
#855,#856,#857,#858,#859),.UNSPECIFIED.,.F.,.F.,(4,1,1,1,1,1,1,1,1,4),(-0.107879928566664,
0.330581755787395,0.769043440141453,1.20750512449551,1.64596680884957,2.52289017755769,
3.39981354626581,4.27673691497392,5.15366028368204,5.78142710121732),
 .UNSPECIFIED.);
#82=B_SPLINE_CURVE_WITH_KNOTS('',3,(#860,#861,#862,#863,#864,#865,#866,
#867,#868,#869,#870,#871,#872,#873,#874,#875),.UNSPECIFIED.,.F.,.F.,(4,
2,2,2,2,2,2,4),(0.,0.0470820499213457,0.105932953327885,0.195488494460213,
0.359814427729612,0.434538622688461,0.466238596013598,0.48704374823531),
 .UNSPECIFIED.);
#83=B_SPLINE_CURVE_WITH_KNOTS('',3,(#880,#881,#882,#883,#884,#885,#886,
#887,#888,#889,#890,#891),.UNSPECIFIED.,.F.,.F.,(4,2,2,2,2,4),(1.73521271823688,
2.15005394422593,2.57991942436195,3.00586920317093,3.23115762900494,3.45701742523474),
 .UNSPECIFIED.);
#84=B_SPLINE_CURVE_WITH_KNOTS('',3,(#893,#894,#895,#896,#897,#898,#899,
#900,#901,#902,#903,#904),.UNSPECIFIED.,.F.,.F.,(4,2,2,2,2,4),(0.,0.428098145258193,
0.857153266026292,1.28734133531606,1.71855935368252,1.73521271823688),
 .UNSPECIFIED.);
#85=B_SPLINE_CURVE_WITH_KNOTS('',3,(#909,#910,#911,#912,#913,#914,#915,
#916,#917,#918),.UNSPECIFIED.,.F.,.F.,(4,1,1,1,1,1,1,4),(-6.16478196793236,
-5.49206335023649,-4.61523324876023,-3.73840314728397,-2.8615730458077,
-1.98474294433144,-1.10791284285518,-0.711320514392521),.UNSPECIFIED.);
#86=B_SPLINE_CURVE_WITH_KNOTS('',3,(#1020,#1021,#1022,#1023,#1024,#1025,
#1026,#1027,#1028,#1029,#1030,#1031,#1032,#1033,#1034,#1035),
 .UNSPECIFIED.,.F.,.F.,(4,2,2,2,2,2,2,4),(0.,0.0200129424199917,0.0487620146250556,
0.107050642739398,0.234524209487461,0.494115460864496,0.551836880634266,
0.592006917609676),.UNSPECIFIED.);
#87=B_SPLINE_CURVE_WITH_KNOTS('',3,(#1037,#1038,#1039,#1040,#1041,#1042,
#1043,#1044,#1045,#1046,#1047,#1048,#1049,#1050,#1051,#1052,#1053,#1054,
#1055,#1056),.UNSPECIFIED.,.F.,.F.,(4,2,2,2,2,2,2,2,2,4),(0.592006917609676,
0.598337944808433,0.638294617456877,0.686828358271247,0.778388388334341,
0.997540371258036,1.22620718707958,1.34457519731303,1.3987311498632,1.45089304952389),
 .UNSPECIFIED.);
#88=B_SPLINE_CURVE_WITH_KNOTS('',3,(#1057,#1058,#1059,#1060,#1061,#1062,
#1063,#1064,#1065,#1066),.UNSPECIFIED.,.F.,.F.,(4,1,1,1,1,1,1,4),(0.480177229126664,
1.10791284285518,1.98474294433144,2.8615730458077,3.73840314728397,4.61523324876023,
5.49206335023649,6.36889345171275),.UNSPECIFIED.);
#89=VERTEX_POINT('',#379);
#90=VERTEX_POINT('',#380);
#91=VERTEX_POINT('',#401);
#92=VERTEX_POINT('',#413);
#93=VERTEX_POINT('',#426);
#94=VERTEX_POINT('',#439);
#95=VERTEX_POINT('',#468);
#96=VERTEX_POINT('',#470);
#97=VERTEX_POINT('',#483);
#98=VERTEX_POINT('',#498);
#99=VERTEX_POINT('',#610);
#100=VERTEX_POINT('',#627);
#101=VERTEX_POINT('',#786);
#102=VERTEX_POINT('',#787);
#103=VERTEX_POINT('',#808);
#104=VERTEX_POINT('',#821);
#105=VERTEX_POINT('',#834);
#106=VERTEX_POINT('',#847);
#107=VERTEX_POINT('',#877);
#108=VERTEX_POINT('',#879);
#109=VERTEX_POINT('',#892);
#110=VERTEX_POINT('',#907);
#111=VERTEX_POINT('',#1019);
#112=VERTEX_POINT('',#1036);
#113=EDGE_CURVE('',#89,#90,#65,.T.);
#114=EDGE_CURVE('',#90,#91,#66,.T.);
#115=EDGE_CURVE('',#91,#92,#67,.T.);
#116=EDGE_CURVE('',#92,#93,#68,.T.);
#117=EDGE_CURVE('',#93,#94,#69,.T.);
#118=EDGE_CURVE('',#94,#89,#70,.T.);
#119=EDGE_CURVE('',#91,#95,#23,.T.);
#120=EDGE_CURVE('',#96,#95,#71,.T.);
#121=EDGE_CURVE('',#97,#96,#72,.T.);
#122=EDGE_CURVE('',#93,#97,#24,.T.);
#123=EDGE_CURVE('',#90,#98,#25,.T.);
#124=EDGE_CURVE('',#95,#98,#73,.T.);
#125=EDGE_CURVE('',#98,#99,#74,.T.);
#126=EDGE_CURVE('',#99,#100,#75,.T.);
#127=EDGE_CURVE('',#100,#97,#76,.T.);
#128=EDGE_CURVE('',#94,#100,#26,.T.);
#129=EDGE_CURVE('',#101,#102,#77,.T.);
#130=EDGE_CURVE('',#102,#103,#78,.T.);
#131=EDGE_CURVE('',#103,#104,#79,.T.);
#132=EDGE_CURVE('',#104,#105,#80,.T.);
#133=EDGE_CURVE('',#105,#106,#81,.T.);
#134=EDGE_CURVE('',#106,#101,#82,.T.);
#135=EDGE_CURVE('',#103,#107,#27,.T.);
#136=EDGE_CURVE('',#108,#107,#83,.T.);
#137=EDGE_CURVE('',#109,#108,#84,.T.);
#138=EDGE_CURVE('',#105,#109,#28,.T.);
#139=EDGE_CURVE('',#102,#110,#29,.T.);
#140=EDGE_CURVE('',#107,#110,#85,.T.);
#141=EDGE_CURVE('',#110,#111,#86,.T.);
#142=EDGE_CURVE('',#111,#112,#87,.T.);
#143=EDGE_CURVE('',#112,#109,#88,.T.);
#144=EDGE_CURVE('',#106,#112,#30,.T.);
#145=ORIENTED_EDGE('',*,*,#113,.T.);
#146=ORIENTED_EDGE('',*,*,#114,.T.);
#147=ORIENTED_EDGE('',*,*,#115,.T.);
#148=ORIENTED_EDGE('',*,*,#116,.T.);
#149=ORIENTED_EDGE('',*,*,#117,.T.);
#150=ORIENTED_EDGE('',*,*,#118,.T.);
#151=ORIENTED_EDGE('',*,*,#116,.F.);
#152=ORIENTED_EDGE('',*,*,#115,.F.);
#153=ORIENTED_EDGE('',*,*,#119,.T.);
#154=ORIENTED_EDGE('',*,*,#120,.F.);
#155=ORIENTED_EDGE('',*,*,#121,.F.);
#156=ORIENTED_EDGE('',*,*,#122,.F.);
#157=ORIENTED_EDGE('',*,*,#114,.F.);
#158=ORIENTED_EDGE('',*,*,#123,.T.);
#159=ORIENTED_EDGE('',*,*,#124,.F.);
#160=ORIENTED_EDGE('',*,*,#119,.F.);
#161=ORIENTED_EDGE('',*,*,#120,.T.);
#162=ORIENTED_EDGE('',*,*,#124,.T.);
#163=ORIENTED_EDGE('',*,*,#125,.T.);
#164=ORIENTED_EDGE('',*,*,#126,.T.);
#165=ORIENTED_EDGE('',*,*,#127,.T.);
#166=ORIENTED_EDGE('',*,*,#121,.T.);
#167=ORIENTED_EDGE('',*,*,#117,.F.);
#168=ORIENTED_EDGE('',*,*,#122,.T.);
#169=ORIENTED_EDGE('',*,*,#127,.F.);
#170=ORIENTED_EDGE('',*,*,#128,.F.);
#171=ORIENTED_EDGE('',*,*,#118,.F.);
#172=ORIENTED_EDGE('',*,*,#128,.T.);
#173=ORIENTED_EDGE('',*,*,#126,.F.);
#174=ORIENTED_EDGE('',*,*,#125,.F.);
#175=ORIENTED_EDGE('',*,*,#123,.F.);
#176=ORIENTED_EDGE('',*,*,#113,.F.);
#177=ORIENTED_EDGE('',*,*,#129,.T.);
#178=ORIENTED_EDGE('',*,*,#130,.T.);
#179=ORIENTED_EDGE('',*,*,#131,.T.);
#180=ORIENTED_EDGE('',*,*,#132,.T.);
#181=ORIENTED_EDGE('',*,*,#133,.T.);
#182=ORIENTED_EDGE('',*,*,#134,.T.);
#183=ORIENTED_EDGE('',*,*,#132,.F.);
#184=ORIENTED_EDGE('',*,*,#131,.F.);
#185=ORIENTED_EDGE('',*,*,#135,.T.);
#186=ORIENTED_EDGE('',*,*,#136,.F.);
#187=ORIENTED_EDGE('',*,*,#137,.F.);
#188=ORIENTED_EDGE('',*,*,#138,.F.);
#189=ORIENTED_EDGE('',*,*,#130,.F.);
#190=ORIENTED_EDGE('',*,*,#139,.T.);
#191=ORIENTED_EDGE('',*,*,#140,.F.);
#192=ORIENTED_EDGE('',*,*,#135,.F.);
#193=ORIENTED_EDGE('',*,*,#136,.T.);
#194=ORIENTED_EDGE('',*,*,#140,.T.);
#195=ORIENTED_EDGE('',*,*,#141,.T.);
#196=ORIENTED_EDGE('',*,*,#142,.T.);
#197=ORIENTED_EDGE('',*,*,#143,.T.);
#198=ORIENTED_EDGE('',*,*,#137,.T.);
#199=ORIENTED_EDGE('',*,*,#133,.F.);
#200=ORIENTED_EDGE('',*,*,#138,.T.);
#201=ORIENTED_EDGE('',*,*,#143,.F.);
#202=ORIENTED_EDGE('',*,*,#144,.F.);
#203=ORIENTED_EDGE('',*,*,#134,.F.);
#204=ORIENTED_EDGE('',*,*,#144,.T.);
#205=ORIENTED_EDGE('',*,*,#142,.F.);
#206=ORIENTED_EDGE('',*,*,#141,.F.);
#207=ORIENTED_EDGE('',*,*,#139,.F.);
#208=ORIENTED_EDGE('',*,*,#129,.F.);
#209=B_SPLINE_SURFACE_WITH_KNOTS('',3,3,((#269,#270,#271,#272,#273,#274,
#275,#276,#277,#278,#279),(#280,#281,#282,#283,#284,#285,#286,#287,#288,
#289,#290),(#291,#292,#293,#294,#295,#296,#297,#298,#299,#300,#301),(#302,
#303,#304,#305,#306,#307,#308,#309,#310,#311,#312),(#313,#314,#315,#316,
#317,#318,#319,#320,#321,#322,#323),(#324,#325,#326,#327,#328,#329,#330,
#331,#332,#333,#334),(#335,#336,#337,#338,#339,#340,#341,#342,#343,#344,
#345),(#346,#347,#348,#349,#350,#351,#352,#353,#354,#355,#356),(#357,#358,
#359,#360,#361,#362,#363,#364,#365,#366,#367),(#368,#369,#370,#371,#372,
#373,#374,#375,#376,#377,#378)),.UNSPECIFIED.,.F.,.F.,.F.,(4,1,1,1,1,1,
1,4),(4,1,1,1,1,1,1,1,4),(0.,0.142857142857143,0.285714285714286,0.428571428571429,
0.571428571428571,0.714285714285714,0.857142857142857,1.),(-0.107879928566664,
0.330581755787395,0.769043440141453,1.64596680884957,2.52289017755769,3.39981354626581,
4.27673691497392,5.15366028368204,6.03058365239016),.UNSPECIFIED.);
#210=B_SPLINE_SURFACE_WITH_KNOTS('',3,3,((#510,#511,#512,#513,#514,#515,
#516,#517,#518,#519),(#520,#521,#522,#523,#524,#525,#526,#527,#528,#529),
(#530,#531,#532,#533,#534,#535,#536,#537,#538,#539),(#540,#541,#542,#543,
#544,#545,#546,#547,#548,#549),(#550,#551,#552,#553,#554,#555,#556,#557,
#558,#559),(#560,#561,#562,#563,#564,#565,#566,#567,#568,#569),(#570,#571,
#572,#573,#574,#575,#576,#577,#578,#579),(#580,#581,#582,#583,#584,#585,
#586,#587,#588,#589),(#590,#591,#592,#593,#594,#595,#596,#597,#598,#599),
(#600,#601,#602,#603,#604,#605,#606,#607,#608,#609)),.UNSPECIFIED.,.F.,
 .F.,.F.,(4,1,1,1,1,1,1,4),(4,1,1,1,1,1,1,4),(0.,0.142857142857143,0.285714285714286,
0.428571428571429,0.571428571428571,0.714285714285714,0.857142857142857,
1.),(0.23108274137892,1.10791284285518,1.98474294433144,2.8615730458077,
3.73840314728397,4.61523324876023,5.49206335023649,6.36889345171275),
 .UNSPECIFIED.);
#211=B_SPLINE_SURFACE_WITH_KNOTS('',3,3,((#666,#667,#668,#669,#670,#671,
#672,#673,#674,#675,#676,#677),(#678,#679,#680,#681,#682,#683,#684,#685,
#686,#687,#688,#689),(#690,#691,#692,#693,#694,#695,#696,#697,#698,#699,
#700,#701),(#702,#703,#704,#705,#706,#707,#708,#709,#710,#711,#712,#713),
(#714,#715,#716,#717,#718,#719,#720,#721,#722,#723,#724,#725),(#726,#727,
#728,#729,#730,#731,#732,#733,#734,#735,#736,#737),(#738,#739,#740,#741,
#742,#743,#744,#745,#746,#747,#748,#749),(#750,#751,#752,#753,#754,#755,
#756,#757,#758,#759,#760,#761),(#762,#763,#764,#765,#766,#767,#768,#769,
#770,#771,#772,#773),(#774,#775,#776,#777,#778,#779,#780,#781,#782,#783,
#784,#785)),.UNSPECIFIED.,.F.,.F.,.F.,(4,1,1,1,1,1,1,4),(4,1,1,1,1,1,1,
1,1,4),(0.,0.142857142857143,0.285714285714286,0.428571428571429,0.571428571428571,
0.714285714285714,0.857142857142857,1.),(-0.107879928566664,0.330581755787395,
0.769043440141453,1.20750512449551,1.64596680884957,2.52289017755769,3.39981354626581,
4.27673691497392,5.15366028368204,6.03058365239016),.UNSPECIFIED.);
#212=B_SPLINE_SURFACE_WITH_KNOTS('',3,3,((#919,#920,#921,#922,#923,#924,
#925,#926,#927,#928),(#929,#930,#931,#932,#933,#934,#935,#936,#937,#938),
(#939,#940,#941,#942,#943,#944,#945,#946,#947,#948),(#949,#950,#951,#952,
#953,#954,#955,#956,#957,#958),(#959,#960,#961,#962,#963,#964,#965,#966,
#967,#968),(#969,#970,#971,#972,#973,#974,#975,#976,#977,#978),(#979,#980,
#981,#982,#983,#984,#985,#986,#987,#988),(#989,#990,#991,#992,#993,#994,
#995,#996,#997,#998),(#999,#1000,#1001,#1002,#1003,#1004,#1005,#1006,#1007,
#1008),(#1009,#1010,#1011,#1012,#1013,#1014,#1015,#1016,#1017,#1018)),
 .UNSPECIFIED.,.F.,.F.,.F.,(4,1,1,1,1,1,1,4),(4,1,1,1,1,1,1,4),(0.,0.142857142857143,
0.285714285714286,0.428571428571429,0.571428571428571,0.714285714285714,
0.857142857142857,1.),(0.23108274137892,1.10791284285518,1.98474294433144,
2.8615730458077,3.73840314728397,4.61523324876023,5.49206335023649,6.36889345171275),
 .UNSPECIFIED.);
#213=ADVANCED_FACE('',(#41),#209,.F.);
#214=ADVANCED_FACE('',(#42),#39,.T.);
#215=ADVANCED_FACE('',(#43),#19,.F.);
#216=ADVANCED_FACE('',(#44),#210,.F.);
#217=ADVANCED_FACE('',(#45),#20,.T.);
#218=ADVANCED_FACE('',(#46),#17,.T.);
#219=ADVANCED_FACE('',(#47),#211,.F.);
#220=ADVANCED_FACE('',(#48),#40,.T.);
#221=ADVANCED_FACE('',(#49),#21,.F.);
#222=ADVANCED_FACE('',(#50),#212,.F.);
#223=ADVANCED_FACE('',(#51),#22,.T.);
#224=ADVANCED_FACE('',(#52),#18,.T.);
#225=CLOSED_SHELL('',(#213,#214,#215,#216,#217,#218));
#226=CLOSED_SHELL('',(#219,#220,#221,#222,#223,#224));
#227=DERIVED_UNIT_ELEMENT(#229,1.);
#228=DERIVED_UNIT_ELEMENT(#1080,-3.);
#229=(
MASS_UNIT()
NAMED_UNIT(*)
SI_UNIT(.KILO.,.GRAM.)
);
#230=DERIVED_UNIT((#227,#228));
#231=MEASURE_REPRESENTATION_ITEM('density measure',
POSITIVE_RATIO_MEASURE(7850.),#230);
#232=PROPERTY_DEFINITION_REPRESENTATION(#237,#234);
#233=PROPERTY_DEFINITION_REPRESENTATION(#238,#235);
#234=REPRESENTATION('material name',(#236),#1077);
#235=REPRESENTATION('density',(#231),#1077);
#236=DESCRIPTIVE_REPRESENTATION_ITEM('Steel','Steel');
#237=PROPERTY_DEFINITION('material property','material name',#1087);
#238=PROPERTY_DEFINITION('material property','density of part',#1087);
#239=AXIS2_PLACEMENT_3D('',#268,#246,#247);
#240=AXIS2_PLACEMENT_3D('',#467,#248,#249);
#241=AXIS2_PLACEMENT_3D('',#497,#252,#253);
#242=AXIS2_PLACEMENT_3D('',#658,#255,#256);
#243=AXIS2_PLACEMENT_3D('',#876,#258,#259);
#244=AXIS2_PLACEMENT_3D('',#906,#262,#263);
#245=AXIS2_PLACEMENT_3D('',#1067,#265,#266);
#246=DIRECTION('axis',(0.,0.,1.));
#247=DIRECTION('refdir',(1.,0.,0.));
#248=DIRECTION('center_axis',(0.,-1.,0.));
#249=DIRECTION('ref_axis',(1.,0.,0.));
#250=DIRECTION('',(0.,0.,1.));
#251=DIRECTION('',(0.,0.,1.));
#252=DIRECTION('center_axis',(0.,0.,1.));
#253=DIRECTION('ref_axis',(0.742616232452563,0.669717202480241,0.));
#254=DIRECTION('',(0.,0.,1.));
#255=DIRECTION('center_axis',(0.,0.,1.));
#256=DIRECTION('ref_axis',(0.894623946698493,0.446819867501,0.));
#257=DIRECTION('',(0.,0.,1.));
#258=DIRECTION('center_axis',(0.,-1.,0.));
#259=DIRECTION('ref_axis',(1.,0.,0.));
#260=DIRECTION('',(0.,0.,1.));
#261=DIRECTION('',(0.,0.,1.));
#262=DIRECTION('center_axis',(0.,0.,1.));
#263=DIRECTION('ref_axis',(0.742616232452563,0.669717202480241,0.));
#264=DIRECTION('',(0.,0.,1.));
#265=DIRECTION('center_axis',(0.,0.,1.));
#266=DIRECTION('ref_axis',(0.894623946698493,0.446819867501,0.));
#267=DIRECTION('',(0.,0.,1.));
#268=CARTESIAN_POINT('',(0.,0.,0.));
#269=CARTESIAN_POINT('Ctrl Pts',(44.8743709841127,-48.0914810913593,10.9967900427656));
#270=CARTESIAN_POINT('Ctrl Pts',(45.1031505912645,-45.7733129865805,10.9341173734913));
#271=CARTESIAN_POINT('Ctrl Pts',(46.1190034564798,-41.2195426712419,10.7508898927345));
#272=CARTESIAN_POINT('Ctrl Pts',(50.0719241062606,-33.0752779289989,10.1789309562823));
#273=CARTESIAN_POINT('Ctrl Pts',(57.9252620030568,-25.4161925857037,9.11554227019083));
#274=CARTESIAN_POINT('Ctrl Pts',(69.2034144501879,-21.2839667683417,7.48882687681848));
#275=CARTESIAN_POINT('Ctrl Pts',(80.2092571132536,-21.6135048828275,5.73442167353621));
#276=CARTESIAN_POINT('Ctrl Pts',(89.7267905533885,-25.4594751315123,4.08047833581741));
#277=CARTESIAN_POINT('Ctrl Pts',(97.1005139598544,-31.8973898430151,2.74906581334337));
#278=CARTESIAN_POINT('Ctrl Pts',(100.316016182822,-37.3791425388112,2.21705476506799));
#279=CARTESIAN_POINT('Ctrl Pts',(101.453913363182,-40.2928905896818,2.06385847938097));
#280=CARTESIAN_POINT('Ctrl Pts',(44.8674263593569,-48.1618492846129,9.3527787105861));
#281=CARTESIAN_POINT('Ctrl Pts',(45.0885729756751,-45.8639320825905,9.30014610217107));
#282=CARTESIAN_POINT('Ctrl Pts',(46.0793215081834,-41.3462176247225,9.14621447941255));
#283=CARTESIAN_POINT('Ctrl Pts',(49.9589294085662,-33.2397657935464,8.66486055877416));
#284=CARTESIAN_POINT('Ctrl Pts',(57.7177727432789,-25.5507630908438,7.76689433071159));
#285=CARTESIAN_POINT('Ctrl Pts',(68.9715832605939,-21.3166083405289,6.38546414497263));
#286=CARTESIAN_POINT('Ctrl Pts',(80.0369753651751,-21.5695393454327,4.88941694185646));
#287=CARTESIAN_POINT('Ctrl Pts',(89.6392958811848,-25.396783128261,3.4765573216067));
#288=CARTESIAN_POINT('Ctrl Pts',(97.0730213471305,-31.8564854423518,2.33965780135125));
#289=CARTESIAN_POINT('Ctrl Pts',(100.305178896092,-37.3560817885356,1.88602625145695));
#290=CARTESIAN_POINT('Ctrl Pts',(101.448002887467,-40.277755973488,1.75541675955972));
#291=CARTESIAN_POINT('Ctrl Pts',(45.6044419533945,-48.3442121798199,6.0649073504544));
#292=CARTESIAN_POINT('Ctrl Pts',(45.8039046952541,-46.1367834864345,6.03151679529994));
#293=CARTESIAN_POINT('Ctrl Pts',(46.7185284293587,-41.7877452031982,5.93378297139079));
#294=CARTESIAN_POINT('Ctrl Pts',(50.3528857486017,-33.925132306415,5.62725758396041));
#295=CARTESIAN_POINT('Ctrl Pts',(57.7306689395729,-26.3139108307006,5.05209046951182));
#296=CARTESIAN_POINT('Ctrl Pts',(68.6829951721721,-21.8934194482293,4.15859257849379));
#297=CARTESIAN_POINT('Ctrl Pts',(79.673313120885,-21.8946533363826,3.1841740154769));
#298=CARTESIAN_POINT('Ctrl Pts',(89.3437559566706,-25.5373202337919,2.26116928742801));
#299=CARTESIAN_POINT('Ctrl Pts',(96.8779364060478,-31.9089922313507,1.51895105056985));
#300=CARTESIAN_POINT('Ctrl Pts',(100.152653057175,-37.3897710050824,1.22345514304356));
#301=CARTESIAN_POINT('Ctrl Pts',(101.30749391365,-40.3057139056153,1.13843232324099));
#302=CARTESIAN_POINT('Ctrl Pts',(48.7411178794301,-48.6885543101462,2.10475457906057));
#303=CARTESIAN_POINT('Ctrl Pts',(48.8950891019467,-46.7384873666236,2.09337029511281));
#304=CARTESIAN_POINT('Ctrl Pts',(49.6386363236809,-42.8823659280704,2.06007787158527));
#305=CARTESIAN_POINT('Ctrl Pts',(52.6816366125259,-35.8129614377305,1.95529597530441));
#306=CARTESIAN_POINT('Ctrl Pts',(59.0265227632354,-28.7038131284112,1.75773355861795));
#307=CARTESIAN_POINT('Ctrl Pts',(68.8644546196162,-24.1098578333151,1.44835110312242));
#308=CARTESIAN_POINT('Ctrl Pts',(79.1837195238894,-23.5186422124851,1.10891136392633));
#309=CARTESIAN_POINT('Ctrl Pts',(88.6309489988274,-26.5017020006117,0.786615143252428));
#310=CARTESIAN_POINT('Ctrl Pts',(96.2240046098639,-32.3751145977872,0.527584849627404));
#311=CARTESIAN_POINT('Ctrl Pts',(99.5773184093059,-37.6688656549313,0.424741391558565));
#312=CARTESIAN_POINT('Ctrl Pts',(100.752880089665,-40.5137651091061,0.395112019616184));
#313=CARTESIAN_POINT('Ctrl Pts',(53.2903021683231,-49.0352164178102,-0.0895931693533329));
#314=CARTESIAN_POINT('Ctrl Pts',(53.3939354467019,-47.4133325237859,-0.0891004834098282));
#315=CARTESIAN_POINT('Ctrl Pts',(53.9412340418456,-44.191646401064,-0.0876974662960703));
#316=CARTESIAN_POINT('Ctrl Pts',(56.2810678370936,-38.1817155617261,-0.0832096804908052));
#317=CARTESIAN_POINT('Ctrl Pts',(61.3344136579821,-31.8504849694244,-0.0747765552318852));
#318=CARTESIAN_POINT('Ctrl Pts',(69.6239473650442,-27.218351508707,-0.0616171122572059));
#319=CARTESIAN_POINT('Ctrl Pts',(78.8530724381039,-25.943227743437,-0.0471519837357822));
#320=CARTESIAN_POINT('Ctrl Pts',(87.7951280710362,-28.0235612853527,-0.0334413860140209));
#321=CARTESIAN_POINT('Ctrl Pts',(95.3399606232823,-33.1359900881563,-0.0224156959198183));
#322=CARTESIAN_POINT('Ctrl Pts',(98.7694756520414,-38.1214578805092,-0.0180979150195711));
#323=CARTESIAN_POINT('Ctrl Pts',(99.9639852631167,-40.8469656932374,-0.0168183606446236));
#324=CARTESIAN_POINT('Ctrl Pts',(58.3453405881759,-49.3156097825786,-0.0924467504862301));
#325=CARTESIAN_POINT('Ctrl Pts',(58.4025416087253,-48.0272810149346,-0.0919545037525062));
#326=CARTESIAN_POINT('Ctrl Pts',(58.763734178659,-45.4544699966148,-0.0904712566418622));
#327=CARTESIAN_POINT('Ctrl Pts',(60.4201355556045,-40.5535082699734,-0.0858885348374903));
#328=CARTESIAN_POINT('Ctrl Pts',(64.1750799065405,-35.1068082810244,-0.0772236274987154));
#329=CARTESIAN_POINT('Ctrl Pts',(70.8006256623597,-30.5691871829911,-0.0636167346669938));
#330=CARTESIAN_POINT('Ctrl Pts',(78.7496956787036,-28.6614186230413,-0.0487376977871799));
#331=CARTESIAN_POINT('Ctrl Pts',(87.0085963453479,-29.7893527765897,-0.0345864838706254));
#332=CARTESIAN_POINT('Ctrl Pts',(94.4043536497658,-34.0380812367065,-0.0232199903915613));
#333=CARTESIAN_POINT('Ctrl Pts',(97.8907875009316,-38.6569244495029,-0.0186332281589421));
#334=CARTESIAN_POINT('Ctrl Pts',(99.0981660806176,-41.2387291165381,-0.0173546464231824));
#335=CARTESIAN_POINT('Ctrl Pts',(62.9029144371814,-49.4736309518518,2.10724591928021));
#336=CARTESIAN_POINT('Ctrl Pts',(62.9253865017889,-48.4580875407095,2.09586223615782));
#337=CARTESIAN_POINT('Ctrl Pts',(63.1439668066169,-46.4185553469516,2.06249467093524));
#338=CARTESIAN_POINT('Ctrl Pts',(64.2629718463378,-42.450126373273,1.95762661914278));
#339=CARTESIAN_POINT('Ctrl Pts',(66.9641695117564,-37.8041023592501,1.75985313209728));
#340=CARTESIAN_POINT('Ctrl Pts',(72.1498835928754,-33.4641189041006,1.45007797357944));
#341=CARTESIAN_POINT('Ctrl Pts',(78.896788327404,-31.1072347447356,1.11028068367788));
#342=CARTESIAN_POINT('Ctrl Pts',(86.4342147225862,-31.4370960983627,0.787608170184146));
#343=CARTESIAN_POINT('Ctrl Pts',(93.6061251442595,-34.9006475219385,0.528286088491776));
#344=CARTESIAN_POINT('Ctrl Pts',(97.1164742327214,-39.1687519415228,0.425207386384751));
#345=CARTESIAN_POINT('Ctrl Pts',(98.3275142098581,-41.6113015926152,0.39558010331136));
#346=CARTESIAN_POINT('Ctrl Pts',(66.0614082873882,-49.4784878365911,6.06342859391627));
#347=CARTESIAN_POINT('Ctrl Pts',(66.0665035087431,-48.6205840799427,6.03003684772391));
#348=CARTESIAN_POINT('Ctrl Pts',(66.2101070032036,-46.8932030575121,5.93235157525962));
#349=CARTESIAN_POINT('Ctrl Pts',(67.0352896465697,-43.4914142618305,5.62587679171106));
#350=CARTESIAN_POINT('Ctrl Pts',(69.1279265347739,-39.3919803539369,5.05083625142551));
#351=CARTESIAN_POINT('Ctrl Pts',(73.3899664270827,-35.3022746801205,4.15757498279191));
#352=CARTESIAN_POINT('Ctrl Pts',(79.2632134476074,-32.7730695935199,3.18336261210752));
#353=CARTESIAN_POINT('Ctrl Pts',(86.1901175658156,-32.6297413352831,2.26057758647583));
#354=CARTESIAN_POINT('Ctrl Pts',(93.1054275747917,-35.5512497713419,1.51852888918707));
#355=CARTESIAN_POINT('Ctrl Pts',(96.6003737466116,-39.5550560268951,1.22318196309643));
#356=CARTESIAN_POINT('Ctrl Pts',(97.8046122828344,-41.890797147022,1.13815450549262));
#357=CARTESIAN_POINT('Ctrl Pts',(66.8130636858427,-49.3785988817618,9.3527787105861));
#358=CARTESIAN_POINT('Ctrl Pts',(66.8198319235305,-48.5283908328876,9.30014676576178));
#359=CARTESIAN_POINT('Ctrl Pts',(66.9673310053197,-46.8192660726579,9.1462124602874));
#360=CARTESIAN_POINT('Ctrl Pts',(67.7939017821731,-43.474407541914,8.66485934430651));
#361=CARTESIAN_POINT('Ctrl Pts',(69.8551314458101,-39.4916624172221,7.7668930613497));
#362=CARTESIAN_POINT('Ctrl Pts',(73.970890861402,-35.5660590971878,6.385460160186));
#363=CARTESIAN_POINT('Ctrl Pts',(79.6035092206401,-33.1303917834108,4.88941756338584));
#364=CARTESIAN_POINT('Ctrl Pts',(86.2817996609821,-32.957149926313,3.47656000579742));
#365=CARTESIAN_POINT('Ctrl Pts',(93.0381669959082,-35.7558678734413,2.33966286386883));
#366=CARTESIAN_POINT('Ctrl Pts',(96.4976316735441,-39.6774777919542,1.8860235644025));
#367=CARTESIAN_POINT('Ctrl Pts',(97.6910430762825,-41.9778289215065,1.75541675955972));
#368=CARTESIAN_POINT('Ctrl Pts',(66.8139406736133,-49.3078942756372,10.9967900427656));
#369=CARTESIAN_POINT('Ctrl Pts',(66.8247478298458,-48.4365985171534,10.9341173734913));
#370=CARTESIAN_POINT('Ctrl Pts',(66.9870897135161,-46.6885906193705,10.7508898927345));
#371=CARTESIAN_POINT('Ctrl Pts',(67.8632122888699,-43.2890010718182,10.1789309562823));
#372=CARTESIAN_POINT('Ctrl Pts',(70.002976278838,-39.2971306642856,9.11554227019083));
#373=CARTESIAN_POINT('Ctrl Pts',(74.1699212479778,-35.4440603813586,7.48882687681848));
#374=CARTESIAN_POINT('Ctrl Pts',(79.7799756664063,-33.1025940876006,5.73442167353621));
#375=CARTESIAN_POINT('Ctrl Pts',(86.3867118912906,-32.9873915859076,4.08047833581741));
#376=CARTESIAN_POINT('Ctrl Pts',(93.0744199185892,-35.7909509437667,2.74906581334337));
#377=CARTESIAN_POINT('Ctrl Pts',(96.5115799942452,-39.6987886296983,2.21705476506799));
#378=CARTESIAN_POINT('Ctrl Pts',(97.698510920812,-41.9922588081515,2.06385847938097));
#379=CARTESIAN_POINT('',(99.5285169684209,-41.0371768064119,0.));
#380=CARTESIAN_POINT('',(95.3184478748107,-38.5555233607487,2.41274475609676));
#381=CARTESIAN_POINT('Ctrl Pts',(99.5285169684209,-41.0371768064119,-7.91033905045432E-15));
#382=CARTESIAN_POINT('Ctrl Pts',(99.5168251643202,-41.0404832611021,-7.92097748888333E-15));
#383=CARTESIAN_POINT('Ctrl Pts',(99.5049397840632,-41.0433576490314,0.000104847938686804));
#384=CARTESIAN_POINT('Ctrl Pts',(99.4265790561759,-41.0592456379027,0.00146543709079862));
#385=CARTESIAN_POINT('Ctrl Pts',(99.3583145881964,-41.0590658489397,0.00571805477820646));
#386=CARTESIAN_POINT('Ctrl Pts',(99.198525533545,-41.0400963383995,0.0204821955667272));
#387=CARTESIAN_POINT('Ctrl Pts',(99.0847051660931,-41.0111626203797,0.03466576839128));
#388=CARTESIAN_POINT('Ctrl Pts',(98.6815235186559,-40.8507564706576,0.107329545723248));
#389=CARTESIAN_POINT('Ctrl Pts',(98.3728308139,-40.6760757966925,0.184592958187479));
#390=CARTESIAN_POINT('Ctrl Pts',(97.4634646973061,-40.1038608976247,0.497977626008129));
#391=CARTESIAN_POINT('Ctrl Pts',(96.8463888349539,-39.6642988801952,0.795472613273149));
#392=CARTESIAN_POINT('Ctrl Pts',(96.0493944838827,-39.0905991095499,1.34490109618001));
#393=CARTESIAN_POINT('Ctrl Pts',(95.8015634015328,-38.9097589187848,1.55183938878135));
#394=CARTESIAN_POINT('Ctrl Pts',(95.5389845956798,-38.7175443808935,1.85572845772479));
#395=CARTESIAN_POINT('Ctrl Pts',(95.4568067103637,-38.6572310885392,1.96754695417604));
#396=CARTESIAN_POINT('Ctrl Pts',(95.3744375427155,-38.5967038668748,2.13953062872162));
#397=CARTESIAN_POINT('Ctrl Pts',(95.3533841340147,-38.5812221867506,2.19443535027372));
#398=CARTESIAN_POINT('Ctrl Pts',(95.3258630294937,-38.5609797663645,2.30415283741749));
#399=CARTESIAN_POINT('Ctrl Pts',(95.3184478747224,-38.5555233606892,2.35788933795865));
#400=CARTESIAN_POINT('Ctrl Pts',(95.3184478747224,-38.5555233606892,2.41274475611729));
#401=CARTESIAN_POINT('',(66.8743709841075,-48.0914810913259,10.89094740038));
#402=CARTESIAN_POINT('Ctrl Pts',(95.3157621628053,-38.5579867581762,2.41308002548994));
#403=CARTESIAN_POINT('Ctrl Pts',(94.5528547438348,-37.711723137706,2.535037183605));
#404=CARTESIAN_POINT('Ctrl Pts',(91.8537069102282,-35.2792148805472,2.99208966830902));
#405=CARTESIAN_POINT('Ctrl Pts',(86.3867118912906,-32.9873915859076,4.08047833581741));
#406=CARTESIAN_POINT('Ctrl Pts',(79.7799756664063,-33.1025940876006,5.73442167353621));
#407=CARTESIAN_POINT('Ctrl Pts',(74.1699212479778,-35.4440603813586,7.48882687681848));
#408=CARTESIAN_POINT('Ctrl Pts',(70.002976278838,-39.2971306642856,9.11554227019083));
#409=CARTESIAN_POINT('Ctrl Pts',(67.8632122888699,-43.2890010718182,10.1789309562823));
#410=CARTESIAN_POINT('Ctrl Pts',(67.0889939192134,-46.2931750893001,10.6843637892528));
#411=CARTESIAN_POINT('Ctrl Pts',(66.9151979841635,-47.625945291339,10.8433102390235));
#412=CARTESIAN_POINT('Ctrl Pts',(66.8745728821087,-48.0915088087469,10.8908484885832));
#413=CARTESIAN_POINT('',(55.9045871480462,-48.0914810913576,0.));
#414=CARTESIAN_POINT('Ctrl Pts',(66.8743709841129,-48.0914810913576,10.8909474003836));
#415=CARTESIAN_POINT('Ctrl Pts',(66.8743709841129,-48.0914810913576,9.47281393195198));
#416=CARTESIAN_POINT('Ctrl Pts',(66.5980491292142,-48.0914810913575,8.0695833741776));
#417=CARTESIAN_POINT('Ctrl Pts',(65.521163838535,-48.0914810913575,5.45518173283743));
#418=CARTESIAN_POINT('Ctrl Pts',(64.7352621276557,-48.0914810913575,4.27059127696318));
#419=CARTESIAN_POINT('Ctrl Pts',(62.7448588102469,-48.0914810913575,2.25483949308018));
#420=CARTESIAN_POINT('Ctrl Pts',(61.5556291373666,-48.0914810913576,1.44706849303861));
#421=CARTESIAN_POINT('Ctrl Pts',(59.5868422613766,-48.0914810913576,0.606194509382097));
#422=CARTESIAN_POINT('Ctrl Pts',(58.9014385367141,-48.0914810913757,0.389506259674834));
#423=CARTESIAN_POINT('Ctrl Pts',(57.4436542958626,-48.0914810913757,0.0803006484664194));
#424=CARTESIAN_POINT('Ctrl Pts',(56.6742622254397,-48.0914810913576,-8.75986586223293E-14));
#425=CARTESIAN_POINT('Ctrl Pts',(55.9045871480462,-48.0914810913576,2.34187669256869E-15));
#426=CARTESIAN_POINT('',(44.8743709841121,-48.0914810913592,10.9967900427656));
#427=CARTESIAN_POINT('Ctrl Pts',(55.9045871480462,-48.0914810913576,-2.39391839684799E-15));
#428=CARTESIAN_POINT('Ctrl Pts',(55.2390939153905,-48.0914810913576,7.56414500867376E-14));
#429=CARTESIAN_POINT('Ctrl Pts',(54.5733891051911,-48.0914810918,0.0600346441795536));
#430=CARTESIAN_POINT('Ctrl Pts',(52.4983034728534,-48.0914810918,0.439222632514552));
#431=CARTESIAN_POINT('Ctrl Pts',(51.1449247061205,-48.0914810913576,0.972748221029466));
#432=CARTESIAN_POINT('Ctrl Pts',(48.7237466800623,-48.0914810913576,2.52731951401309));
#433=CARTESIAN_POINT('Ctrl Pts',(47.6781972318545,-48.09148109135,3.53202707435742));
#434=CARTESIAN_POINT('Ctrl Pts',(46.214613232824,-48.09148109135,5.62591183521772));
#435=CARTESIAN_POINT('Ctrl Pts',(45.7174802754038,-48.0914810913568,6.63488442011402));
#436=CARTESIAN_POINT('Ctrl Pts',(45.0454433702797,-48.0914810913568,8.76769633837263));
#437=CARTESIAN_POINT('Ctrl Pts',(44.8743709841128,-48.0914810913576,9.87894367774217));
#438=CARTESIAN_POINT('Ctrl Pts',(44.8743709841128,-48.0914810913576,10.9967900427656));
#439=CARTESIAN_POINT('',(100.37132756844,-37.8540246585722,2.22105073218549));
#440=CARTESIAN_POINT('Ctrl Pts',(44.8743709841127,-48.0914810913593,10.9967900427656));
#441=CARTESIAN_POINT('Ctrl Pts',(45.1031505912645,-45.7733129865805,10.9341173734913));
#442=CARTESIAN_POINT('Ctrl Pts',(46.1190034564798,-41.2195426712419,10.7508898927345));
#443=CARTESIAN_POINT('Ctrl Pts',(50.0719241062606,-33.0752779289989,10.1789309562823));
#444=CARTESIAN_POINT('Ctrl Pts',(57.9252620030568,-25.4161925857037,9.11554227019083));
#445=CARTESIAN_POINT('Ctrl Pts',(69.2034144501879,-21.2839667683417,7.48882687681848));
#446=CARTESIAN_POINT('Ctrl Pts',(80.2092571132536,-21.6135048828275,5.73442167353621));
#447=CARTESIAN_POINT('Ctrl Pts',(89.7267905533885,-25.4594751315123,4.08047833581741));
#448=CARTESIAN_POINT('Ctrl Pts',(96.4021784979255,-31.2876810302362,2.8751584978187));
#449=CARTESIAN_POINT('Ctrl Pts',(99.3681210511669,-35.8456900233433,2.37538481194577));
#450=CARTESIAN_POINT('Ctrl Pts',(100.371265623866,-37.854068537409,2.22120638713062));
#451=CARTESIAN_POINT('Ctrl Pts',(100.37132756844,-37.8540246585722,2.22105073218549));
#452=CARTESIAN_POINT('Ctrl Pts',(100.37132756844,-37.8540246585722,2.064110565781));
#453=CARTESIAN_POINT('Ctrl Pts',(100.368537273952,-37.8853929033787,1.91084987164068));
#454=CARTESIAN_POINT('Ctrl Pts',(100.356950338028,-38.0126835908468,1.58130598164053));
#455=CARTESIAN_POINT('Ctrl Pts',(100.347011876547,-38.1206065990706,1.41412614324595));
#456=CARTESIAN_POINT('Ctrl Pts',(100.315706926207,-38.4434728785235,1.03837279520785));
#457=CARTESIAN_POINT('Ctrl Pts',(100.290820724604,-38.68826533947,0.849243314491522));
#458=CARTESIAN_POINT('Ctrl Pts',(100.205211003951,-39.415460640132,0.411593063357425));
#459=CARTESIAN_POINT('Ctrl Pts',(100.132365606569,-39.9333542311057,0.24092919527541));
#460=CARTESIAN_POINT('Ctrl Pts',(99.9761427349523,-40.4942710810526,0.0948167669624398));
#461=CARTESIAN_POINT('Ctrl Pts',(99.9099591165653,-40.6825962746796,0.0542182340968217));
#462=CARTESIAN_POINT('Ctrl Pts',(99.7692171917965,-40.8826594941891,0.0184889635961754));
#463=CARTESIAN_POINT('Ctrl Pts',(99.719049581913,-40.936858652855,0.00992605861967573));
#464=CARTESIAN_POINT('Ctrl Pts',(99.6174393531986,-41.004504340523,0.00160921821512639));
#465=CARTESIAN_POINT('Ctrl Pts',(99.5744740629004,-41.0241800909967,-7.86852243124069E-15));
#466=CARTESIAN_POINT('Ctrl Pts',(99.5285169684209,-41.0371768064119,-7.91033905045432E-15));
#467=CARTESIAN_POINT('Origin',(44.8743709841129,-48.0914810913576,0.));
#468=CARTESIAN_POINT('',(66.8743709841129,-48.0914810913576,11.1090525996164));
#469=CARTESIAN_POINT('',(66.8743709841129,-48.0914810913576,0.));
#470=CARTESIAN_POINT('',(55.9045871480407,-48.0914810913576,22.));
#471=CARTESIAN_POINT('Ctrl Pts',(55.9045871480407,-48.0914810913576,22.));
#472=CARTESIAN_POINT('Ctrl Pts',(57.2866537674947,-48.0914810913576,22.0000000000008));
#473=CARTESIAN_POINT('Ctrl Pts',(58.6575045420759,-48.0914810912337,21.7410708460177));
#474=CARTESIAN_POINT('Ctrl Pts',(61.2785299312888,-48.0914810912337,20.7120765722617));
#475=CARTESIAN_POINT('Ctrl Pts',(62.4981809768014,-48.0914810913576,19.9333561073243));
#476=CARTESIAN_POINT('Ctrl Pts',(64.5571473092178,-48.0914810913576,17.9592709048629));
#477=CARTESIAN_POINT('Ctrl Pts',(65.379973889243,-48.0914810913576,16.7867342742149));
#478=CARTESIAN_POINT('Ctrl Pts',(66.2561042463438,-48.0914810913576,14.8006409855886));
#479=CARTESIAN_POINT('Ctrl Pts',(66.4866994974059,-48.0914810913574,14.0841435227617));
#480=CARTESIAN_POINT('Ctrl Pts',(66.7964957495849,-48.0914810913574,12.6125901749613));
#481=CARTESIAN_POINT('Ctrl Pts',(66.8743709841129,-48.0914810913576,11.8619038441124));
#482=CARTESIAN_POINT('Ctrl Pts',(66.8743709841129,-48.0914810913576,11.1090525996164));
#483=CARTESIAN_POINT('',(44.8743709841128,-48.0914810913576,11.0032099572344));
#484=CARTESIAN_POINT('Ctrl Pts',(44.8743709841129,-48.0914810913576,11.0032099572344));
#485=CARTESIAN_POINT('Ctrl Pts',(44.8743709841129,-48.0914810913576,12.4302037747618));
#486=CARTESIAN_POINT('Ctrl Pts',(45.1531412791911,-48.0914810913581,13.8434537092968));
#487=CARTESIAN_POINT('Ctrl Pts',(46.2370781808956,-48.0914810913581,16.4871795679247));
#488=CARTESIAN_POINT('Ctrl Pts',(47.0329623922318,-48.0914810913618,17.6917870686143));
#489=CARTESIAN_POINT('Ctrl Pts',(49.0435632677548,-48.0914810913618,19.7320019164362));
#490=CARTESIAN_POINT('Ctrl Pts',(50.2400736829047,-48.0914810913627,20.5470606298643));
#491=CARTESIAN_POINT('Ctrl Pts',(52.8808363895134,-48.0914810913627,21.6755686870589));
#492=CARTESIAN_POINT('Ctrl Pts',(54.3006512527217,-48.0914810913576,21.9771171336332));
#493=CARTESIAN_POINT('Ctrl Pts',(55.7936058526221,-48.0914810913576,21.9995827353709));
#494=CARTESIAN_POINT('Ctrl Pts',(55.8491055377034,-48.0914810913576,22.));
#495=CARTESIAN_POINT('Ctrl Pts',(55.9045871480407,-48.0914810913576,22.));
#496=CARTESIAN_POINT('',(44.8743709841128,-48.0914810913576,0.));
#497=CARTESIAN_POINT('Origin',(83.1707106416529,-49.5107762095638,0.));
#498=CARTESIAN_POINT('',(95.3184478747224,-38.5555233606893,19.5872552438827));
#499=CARTESIAN_POINT('',(95.3184478747224,-38.5555233606893,0.));
#500=CARTESIAN_POINT('Ctrl Pts',(66.8745659135808,-48.0915169441509,11.1092367328912));
#501=CARTESIAN_POINT('Ctrl Pts',(66.9911263151506,-46.7569787580489,11.2456995341149));
#502=CARTESIAN_POINT('Ctrl Pts',(67.6383887975247,-43.7048986292314,11.7092130045872));
#503=CARTESIAN_POINT('Ctrl Pts',(70.0009878115354,-39.301598659226,12.8838852269937));
#504=CARTESIAN_POINT('Ctrl Pts',(74.1767375185827,-35.4390902233924,14.5130312870016));
#505=CARTESIAN_POINT('Ctrl Pts',(79.7785223250715,-33.1039152766203,16.2657176058695));
#506=CARTESIAN_POINT('Ctrl Pts',(86.3932369233738,-32.9864059876454,17.9207720062496));
#507=CARTESIAN_POINT('Ctrl Pts',(91.8580854172937,-35.2839397860592,19.008604040875));
#508=CARTESIAN_POINT('Ctrl Pts',(94.5539418414419,-37.7124880397911,19.4651517785432));
#509=CARTESIAN_POINT('Ctrl Pts',(95.3160317050624,-38.5577360651265,19.5869835922909));
#510=CARTESIAN_POINT('Ctrl Pts',(101.454482949981,-40.2943492126962,19.9362182006459));
#511=CARTESIAN_POINT('Ctrl Pts',(100.314898728263,-37.3758219963915,19.7828109487566));
#512=CARTESIAN_POINT('Ctrl Pts',(97.1050513933319,-31.9057075830028,19.2515625406521));
#513=CARTESIAN_POINT('Ctrl Pts',(89.7321227806866,-25.4602624153407,17.9207720062496));
#514=CARTESIAN_POINT('Ctrl Pts',(80.2133782394225,-21.6169147117845,16.2657176058695));
#515=CARTESIAN_POINT('Ctrl Pts',(69.2102104558079,-21.2795954248835,14.5130312870016));
#516=CARTESIAN_POINT('Ctrl Pts',(57.927354065309,-25.4255168078545,12.8838852269937));
#517=CARTESIAN_POINT('Ctrl Pts',(48.5092465066057,-34.5759278579444,11.6103974159567));
#518=CARTESIAN_POINT('Ctrl Pts',(45.3319565056514,-43.4548783169917,11.128562502477));
#519=CARTESIAN_POINT('Ctrl Pts',(44.8743709841128,-48.0914810913576,11.0032099572344));
#520=CARTESIAN_POINT('Ctrl Pts',(101.448574943835,-40.2792185392427,20.2446486125055));
#521=CARTESIAN_POINT('Ctrl Pts',(100.304057064179,-37.3527525794743,20.1138592754963));
#522=CARTESIAN_POINT('Ctrl Pts',(97.0776181473368,-31.8647991800794,19.6608840142339));
#523=CARTESIAN_POINT('Ctrl Pts',(89.6445897807533,-25.3976972316935,18.5245032741128));
#524=CARTESIAN_POINT('Ctrl Pts',(80.0412089966994,-21.5725876076755,17.1106976428653));
#525=CARTESIAN_POINT('Ctrl Pts',(68.978641886487,-21.3126356746399,15.6161455734582));
#526=CARTESIAN_POINT('Ctrl Pts',(57.7194739440729,-25.5595785157411,14.2325862360749));
#527=CARTESIAN_POINT('Ctrl Pts',(48.4151984881609,-34.7472132830593,13.1572628544355));
#528=CARTESIAN_POINT('Ctrl Pts',(45.3097450215151,-43.5657506443974,12.7524925584372));
#529=CARTESIAN_POINT('Ctrl Pts',(44.867426359357,-48.1618492846113,12.6472212894139));
#530=CARTESIAN_POINT('Ctrl Pts',(101.308071973393,-40.3071736096941,20.8616105689048));
#531=CARTESIAN_POINT('Ctrl Pts',(100.151520758766,-37.3864468614531,20.7764706938607));
#532=CARTESIAN_POINT('Ctrl Pts',(96.882453355051,-31.9171530893488,20.4813763087512));
#533=CARTESIAN_POINT('Ctrl Pts',(89.3492634185603,-25.5384416115124,19.7395452524212));
#534=CARTESIAN_POINT('Ctrl Pts',(79.6771593675162,-21.8971690796782,18.8158898995344));
#535=CARTESIAN_POINT('Ctrl Pts',(68.6907197812209,-21.889744402205,17.8424613591339));
#536=CARTESIAN_POINT('Ctrl Pts',(57.7315012607677,-26.3221973053272,16.9475759476176));
#537=CARTESIAN_POINT('Ctrl Pts',(48.8857372186406,-35.4183509382698,16.2588385470683));
#538=CARTESIAN_POINT('Ctrl Pts',(46.0033903694989,-43.9291010368079,16.0018793401139));
#539=CARTESIAN_POINT('Ctrl Pts',(45.6044419496741,-48.3442122545264,15.9350943902443));
#540=CARTESIAN_POINT('Ctrl Pts',(100.753470305557,-40.5151884374866,21.6049034517859));
#541=CARTESIAN_POINT('Ctrl Pts',(99.5761704211049,-37.66561319884,21.5752332929439));
#542=CARTESIAN_POINT('Ctrl Pts',(96.2284330138657,-32.3829212738927,21.4725715535065));
#543=CARTESIAN_POINT('Ctrl Pts',(88.6368183543109,-26.5028391382455,21.213595608056));
#544=CARTESIAN_POINT('Ctrl Pts',(79.1865846919371,-23.5202890480538,20.891132346319));
#545=CARTESIAN_POINT('Ctrl Pts',(68.8728637789148,-24.1063829436556,20.5520417414941));
#546=CARTESIAN_POINT('Ctrl Pts',(59.0260659355567,-28.7109467838013,20.2421124383187));
#547=CARTESIAN_POINT('Ctrl Pts',(51.4208274014727,-37.2094348096417,20.0055579963167));
#548=CARTESIAN_POINT('Ctrl Pts',(49.0490675980681,-44.7881957564528,19.9180187549828));
#549=CARTESIAN_POINT('Ctrl Pts',(48.741107447973,-48.6885538805671,19.8952488780151));
#550=CARTESIAN_POINT('Ctrl Pts',(99.9645856233531,-40.8483290153736,22.0168171809675));
#551=CARTESIAN_POINT('Ctrl Pts',(98.7683128323932,-38.1183282756542,22.0180984967609));
#552=CARTESIAN_POINT('Ctrl Pts',(95.3443198248699,-33.1433242202711,22.0223760838309));
#553=CARTESIAN_POINT('Ctrl Pts',(87.8013805963925,-28.0244794587164,22.0334619486429));
#554=CARTESIAN_POINT('Ctrl Pts',(78.8545639448216,-25.9441169915738,22.0471321936491));
#555=CARTESIAN_POINT('Ctrl Pts',(69.6327618745694,-27.2147245546154,22.0615858121469));
#556=CARTESIAN_POINT('Ctrl Pts',(61.3327723072938,-31.8565674992372,22.0748063249237));
#557=CARTESIAN_POINT('Ctrl Pts',(55.2779656983221,-39.4269106217166,22.0849030375151));
#558=CARTESIAN_POINT('Ctrl Pts',(53.4975665025825,-45.7912612198669,22.0886048021571));
#559=CARTESIAN_POINT('Ctrl Pts',(53.290288029094,-49.0352155074056,22.0895902306978));
#560=CARTESIAN_POINT('Ctrl Pts',(99.098773571651,-41.2400201373157,22.0173544689778));
#561=CARTESIAN_POINT('Ctrl Pts',(97.8896154108925,-38.6539434916055,22.0186348107915));
#562=CARTESIAN_POINT('Ctrl Pts',(94.4086309080096,-34.0449532684028,22.0232527505183));
#563=CARTESIAN_POINT('Ctrl Pts',(87.0151785509453,-29.7898069113827,22.0345419877346));
#564=CARTESIAN_POINT('Ctrl Pts',(78.749834604509,-28.6619011766774,22.0487569768789));
#565=CARTESIAN_POINT('Ctrl Pts',(70.8093321623665,-30.5651865419956,22.0636183462491));
#566=CARTESIAN_POINT('Ctrl Pts',(64.172715286973,-35.1119269156544,22.0772016988581));
#567=CARTESIAN_POINT('Ctrl Pts',(59.6756659854422,-41.6260743074676,22.0875800213812));
#568=CARTESIAN_POINT('Ctrl Pts',(58.4597309383508,-46.738803198044,22.0914647053613));
#569=CARTESIAN_POINT('Ctrl Pts',(58.3453223197396,-49.3156088775113,22.0924492554319));
#570=CARTESIAN_POINT('Ctrl Pts',(98.328124603762,-41.6125224956911,21.604434173431));
#571=CARTESIAN_POINT('Ctrl Pts',(97.115301267957,-39.1659158191669,21.5747661063292));
#572=CARTESIAN_POINT('Ctrl Pts',(93.6102857125865,-34.9070686723413,21.4718051332435));
#573=CARTESIAN_POINT('Ctrl Pts',(86.4410728934692,-31.4370143045495,21.2126605937218));
#574=CARTESIAN_POINT('Ctrl Pts',(78.8956344623694,-31.1077340228219,20.8897256354975));
#575=CARTESIAN_POINT('Ctrl Pts',(72.1582300411825,-33.4594950316595,20.5502864373159));
#576=CARTESIAN_POINT('Ctrl Pts',(66.9614555551937,-37.8088415284952,20.2400359040556));
#577=CARTESIAN_POINT('Ctrl Pts',(63.728436291524,-43.3655122806506,20.0032308456544));
#578=CARTESIAN_POINT('Ctrl Pts',(62.947836742927,-47.4424258702829,19.915519751833));
#579=CARTESIAN_POINT('Ctrl Pts',(62.9028900296622,-49.4736294693166,19.8927510765851));
#580=CARTESIAN_POINT('Ctrl Pts',(97.8052178906177,-41.8919651278922,20.8618884457715));
#581=CARTESIAN_POINT('Ctrl Pts',(96.5992063258487,-39.5523328539236,20.7767439265546));
#582=CARTESIAN_POINT('Ctrl Pts',(93.1096363752661,-35.5574399203696,20.4818416587195));
#583=CARTESIAN_POINT('Ctrl Pts',(86.1968644258517,-32.6291064587884,19.7400960663486));
#584=CARTESIAN_POINT('Ctrl Pts',(79.2616425772357,-32.773767172846,18.8167244845751));
#585=CARTESIAN_POINT('Ctrl Pts',(73.3975291469121,-35.2974661664246,17.8434958129751));
#586=CARTESIAN_POINT('Ctrl Pts',(69.1253707965929,-39.396183682133,16.948797454637));
#587=CARTESIAN_POINT('Ctrl Pts',(66.6214250748417,-44.2997016133737,16.2602101774166));
#588=CARTESIAN_POINT('Ctrl Pts',(66.0715828700443,-47.7625808524703,16.0033608493541));
#589=CARTESIAN_POINT('Ctrl Pts',(66.0613918414379,-49.4784870156236,15.9365735172718));
#590=CARTESIAN_POINT('Ctrl Pts',(97.6916404457044,-41.9789805183556,20.2446486125056));
#591=CARTESIAN_POINT('Ctrl Pts',(96.4964712472268,-39.6747941312489,20.1138619662417));
#592=CARTESIAN_POINT('Ctrl Pts',(93.0422904415608,-35.7619664546662,19.660874526583));
#593=CARTESIAN_POINT('Ctrl Pts',(86.2885057774502,-32.9562635197103,18.5245047249674));
#594=CARTESIAN_POINT('Ctrl Pts',(79.601804389689,-33.1315928262919,17.1106949634511));
#595=CARTESIAN_POINT('Ctrl Pts',(73.9779918527293,-35.5609711812685,15.6161474959271));
#596=CARTESIAN_POINT('Ctrl Pts',(69.8529392028372,-39.4962126002495,14.2325912675039));
#597=CARTESIAN_POINT('Ctrl Pts',(67.3862365549726,-44.258931740079,13.1572669214811));
#598=CARTESIAN_POINT('Ctrl Pts',(66.8266009394941,-47.6780850190812,12.7524912311795));
#599=CARTESIAN_POINT('Ctrl Pts',(66.8130636858427,-49.3785988817612,12.6472212894139));
#600=CARTESIAN_POINT('Ctrl Pts',(97.6991050492536,-41.993406935431,19.9362182006459));
#601=CARTESIAN_POINT('Ctrl Pts',(96.5104253180248,-39.6961128515769,19.7828109487566));
#602=CARTESIAN_POINT('Ctrl Pts',(93.0786151951735,-35.7970754054217,19.2515625406521));
#603=CARTESIAN_POINT('Ctrl Pts',(86.3932369233738,-32.9864059876454,17.9207720062496));
#604=CARTESIAN_POINT('Ctrl Pts',(79.7785223250715,-33.1039152766203,16.2657176058695));
#605=CARTESIAN_POINT('Ctrl Pts',(74.1767375185827,-35.4390902233924,14.5130312870016));
#606=CARTESIAN_POINT('Ctrl Pts',(70.0009878115354,-39.301598659226,12.8838852269937));
#607=CARTESIAN_POINT('Ctrl Pts',(67.4396426215157,-44.0753123243482,11.6103974159567));
#608=CARTESIAN_POINT('Ctrl Pts',(66.835556228787,-47.565202568874,11.128562502477));
#609=CARTESIAN_POINT('Ctrl Pts',(66.8139406736133,-49.3078942756366,11.0032099572345));
#610=CARTESIAN_POINT('',(99.5285169684209,-41.0371768064119,22.));
#611=CARTESIAN_POINT('Ctrl Pts',(95.3184478747224,-38.5555233606892,19.5872552438827));
#612=CARTESIAN_POINT('Ctrl Pts',(95.3184478747224,-38.5555233606892,19.6539650519494));
#613=CARTESIAN_POINT('Ctrl Pts',(95.3294174557797,-38.5635955973736,19.7188519118417));
#614=CARTESIAN_POINT('Ctrl Pts',(95.3749768331919,-38.5971008672845,19.8711478787895));
#615=CARTESIAN_POINT('Ctrl Pts',(95.4176576281201,-38.6284748199397,19.9554512623316));
#616=CARTESIAN_POINT('Ctrl Pts',(95.561099172628,-38.7337663138721,20.1837184161401));
#617=CARTESIAN_POINT('Ctrl Pts',(95.6924875511898,-38.8299937633307,20.3252215208623));
#618=CARTESIAN_POINT('Ctrl Pts',(96.089431342071,-39.1194466183807,20.6967434090587));
#619=CARTESIAN_POINT('Ctrl Pts',(96.4566643019685,-39.3861194593997,20.9522187343254));
#620=CARTESIAN_POINT('Ctrl Pts',(97.6985371324846,-40.2615985463211,21.6392297040997));
#621=CARTESIAN_POINT('Ctrl Pts',(98.5123632550216,-40.8142092341578,21.8737939429913));
#622=CARTESIAN_POINT('Ctrl Pts',(99.1681212968361,-41.0334563256146,21.9762097074055));
#623=CARTESIAN_POINT('Ctrl Pts',(99.2674972471869,-41.052686137604,21.9869826605603));
#624=CARTESIAN_POINT('Ctrl Pts',(99.4123188650783,-41.0584142769561,21.9975031671932));
#625=CARTESIAN_POINT('Ctrl Pts',(99.4714253816519,-41.0533223681418,22.));
#626=CARTESIAN_POINT('Ctrl Pts',(99.5285169684209,-41.0371768064119,22.));
#627=CARTESIAN_POINT('',(100.371327568667,-37.8540246587953,19.7789492678481));
#628=CARTESIAN_POINT('Ctrl Pts',(99.5285169684209,-41.0371768064119,22.));
#629=CARTESIAN_POINT('Ctrl Pts',(99.5375149284894,-41.0346321736919,22.));
#630=CARTESIAN_POINT('Ctrl Pts',(99.5464629292831,-41.0318132935578,21.9999378772259));
#631=CARTESIAN_POINT('Ctrl Pts',(99.6114720772721,-41.0091018468899,21.9990092441426));
#632=CARTESIAN_POINT('Ctrl Pts',(99.6612992490594,-40.9794460659437,21.9957050659227));
#633=CARTESIAN_POINT('Ctrl Pts',(99.7606348797756,-40.8940320294852,21.9833820564646));
#634=CARTESIAN_POINT('Ctrl Pts',(99.8052037981473,-40.8361850344705,21.9735494237731));
#635=CARTESIAN_POINT('Ctrl Pts',(99.9121251892703,-40.6612457771684,21.9406793197996));
#636=CARTESIAN_POINT('Ctrl Pts',(99.9633748636199,-40.5236214249578,21.910766591537));
#637=CARTESIAN_POINT('Ctrl Pts',(100.094108839505,-40.0971519910224,21.8049952245374));
#638=CARTESIAN_POINT('Ctrl Pts',(100.160408869202,-39.7068408251016,21.6870967071053));
#639=CARTESIAN_POINT('Ctrl Pts',(100.268582391862,-38.9137616730424,21.3134294765408));
#640=CARTESIAN_POINT('Ctrl Pts',(100.304158361322,-38.5593035110786,21.0741218555542));
#641=CARTESIAN_POINT('Ctrl Pts',(100.342929548376,-38.1639719621599,20.6448407590747));
#642=CARTESIAN_POINT('Ctrl Pts',(100.35371594857,-38.0477612224304,20.4796923483687));
#643=CARTESIAN_POINT('Ctrl Pts',(100.364400783966,-37.9309519559184,20.2144217146161));
#644=CARTESIAN_POINT('Ctrl Pts',(100.36700957352,-37.9020613302281,20.128074410618));
#645=CARTESIAN_POINT('Ctrl Pts',(100.370452229404,-37.8638216444279,19.953552766017));
#646=CARTESIAN_POINT('Ctrl Pts',(100.37132756844,-37.8540246585722,19.8666090643358));
#647=CARTESIAN_POINT('Ctrl Pts',(100.37132756844,-37.8540246585722,19.7789492678145));
#648=CARTESIAN_POINT('Ctrl Pts',(100.371492375949,-37.853951529208,19.7788390429931));
#649=CARTESIAN_POINT('Ctrl Pts',(99.3686175352849,-35.8455100270612,19.6247092180156));
#650=CARTESIAN_POINT('Ctrl Pts',(96.4068700210135,-31.295354494185,19.1255429885322));
#651=CARTESIAN_POINT('Ctrl Pts',(89.7321227806866,-25.4602624153407,17.9207720062496));
#652=CARTESIAN_POINT('Ctrl Pts',(80.2133782394225,-21.6169147117845,16.2657176058695));
#653=CARTESIAN_POINT('Ctrl Pts',(69.2102104558079,-21.2795954248835,14.5130312870016));
#654=CARTESIAN_POINT('Ctrl Pts',(57.927354065309,-25.4255168078545,12.8838852269937));
#655=CARTESIAN_POINT('Ctrl Pts',(48.5092465066057,-34.5759278579444,11.6103974159567));
#656=CARTESIAN_POINT('Ctrl Pts',(45.3319565056514,-43.4548783169917,11.128562502477));
#657=CARTESIAN_POINT('Ctrl Pts',(44.8743709841128,-48.0914810913576,11.0032099572344));
#658=CARTESIAN_POINT('Origin',(74.0991373841964,-50.9756682054571,0.));
#659=CARTESIAN_POINT('',(100.37132756844,-37.8540246585722,0.));
#660=CARTESIAN_POINT('Ctrl Pts',(95.3184478747224,-38.5555233606893,0.));
#661=CARTESIAN_POINT('Ctrl Pts',(95.3184478747224,-38.5555233606893,22.));
#662=CARTESIAN_POINT('Ctrl Pts',(100.000001490116,-42.0000006258488,0.));
#663=CARTESIAN_POINT('Ctrl Pts',(100.000001490116,-42.0000006258488,22.));
#664=CARTESIAN_POINT('Ctrl Pts',(100.37132756844,-37.8540246585722,0.));
#665=CARTESIAN_POINT('Ctrl Pts',(100.37132756844,-37.8540246585722,22.));
#666=CARTESIAN_POINT('Ctrl Pts',(44.8743709841127,-48.0914810913593,-19.0032099572344));
#667=CARTESIAN_POINT('Ctrl Pts',(45.1031505912645,-45.7733129865805,-19.0658826265087));
#668=CARTESIAN_POINT('Ctrl Pts',(46.120736055849,-41.2127446109263,-19.2493463008383));
#669=CARTESIAN_POINT('Ctrl Pts',(49.0801487721229,-35.1217243119439,-19.6775653657012));
#670=CARTESIAN_POINT('Ctrl Pts',(53.2185318972155,-29.9943420869835,-20.2470891646884));
#671=CARTESIAN_POINT('Ctrl Pts',(59.8012183934995,-24.7435244606493,-21.1551794213585));
#672=CARTESIAN_POINT('Ctrl Pts',(69.2055072629097,-21.2749894706057,-22.5114255477289));
#673=CARTESIAN_POINT('Ctrl Pts',(80.2085009301996,-21.6170325555846,-24.2654931146422));
#674=CARTESIAN_POINT('Ctrl Pts',(89.7272789178162,-25.4573833376053,-25.919579682185));
#675=CARTESIAN_POINT('Ctrl Pts',(97.1003128992439,-31.898403220225,-27.2509071832522));
#676=CARTESIAN_POINT('Ctrl Pts',(100.316016182822,-37.3791425388112,-27.782945234932));
#677=CARTESIAN_POINT('Ctrl Pts',(101.453913363182,-40.2928905896818,-27.936141520619));
#678=CARTESIAN_POINT('Ctrl Pts',(44.8674263593569,-48.1618492846129,-20.6472212894139));
#679=CARTESIAN_POINT('Ctrl Pts',(45.0885729756751,-45.8639320825904,-20.6998538978289));
#680=CARTESIAN_POINT('Ctrl Pts',(46.0809454852877,-41.3396142379656,-20.8539798323406));
#681=CARTESIAN_POINT('Ctrl Pts',(48.9855571308375,-35.2765680202082,-21.2143726209333));
#682=CARTESIAN_POINT('Ctrl Pts',(53.0674004748571,-30.1473721809666,-21.6948733817905));
#683=CARTESIAN_POINT('Ctrl Pts',(59.5901315012732,-24.8605689877339,-22.4630284929334));
#684=CARTESIAN_POINT('Ctrl Pts',(68.9734864476404,-21.3079037523977,-23.6147394844018));
#685=CARTESIAN_POINT('Ctrl Pts',(80.0363059021746,-21.5729523787642,-25.1105147825864));
#686=CARTESIAN_POINT('Ctrl Pts',(89.6397456334378,-25.3947561938875,-26.5234899900357));
#687=CARTESIAN_POINT('Ctrl Pts',(97.0728440439005,-31.8574701475302,-27.6603208972121));
#688=CARTESIAN_POINT('Ctrl Pts',(100.305178896092,-37.3560817885356,-28.113973748543));
#689=CARTESIAN_POINT('Ctrl Pts',(101.448002887467,-40.277755973488,-28.2445832404403));
#690=CARTESIAN_POINT('Ctrl Pts',(45.604441735295,-48.3442122699253,-23.9350950241942));
#691=CARTESIAN_POINT('Ctrl Pts',(45.8039044771547,-46.1367835765399,-23.9684855793487));
#692=CARTESIAN_POINT('Ctrl Pts',(46.7199004092677,-41.78174278624,-24.0663397636988));
#693=CARTESIAN_POINT('Ctrl Pts',(49.4412515920089,-35.9000778986748,-24.2958517741592));
#694=CARTESIAN_POINT('Ctrl Pts',(53.3082344446287,-30.8652402727392,-24.6031522163041));
#695=CARTESIAN_POINT('Ctrl Pts',(59.5533872243749,-25.591294534763,-25.0966211915753));
#696=CARTESIAN_POINT('Ctrl Pts',(68.6845541555477,-21.8855021571026,-25.8415385151271));
#697=CARTESIAN_POINT('Ctrl Pts',(79.6727682258675,-21.8977655303304,-26.8157842692042));
#698=CARTESIAN_POINT('Ctrl Pts',(89.3441244673285,-25.5354703947181,-27.7388610721139));
#699=CARTESIAN_POINT('Ctrl Pts',(96.8777903904952,-31.9098903456334,-28.4810346539764));
#700=CARTESIAN_POINT('Ctrl Pts',(100.152653084646,-37.3897709666902,-28.7765453065843));
#701=CARTESIAN_POINT('Ctrl Pts',(101.307493941121,-40.3057138672231,-28.8615681263869));
#702=CARTESIAN_POINT('Ctrl Pts',(48.7411034669607,-48.6885537126351,-27.895250104613));
#703=CARTESIAN_POINT('Ctrl Pts',(48.8950746894772,-46.7384867691125,-27.9066343885607));
#704=CARTESIAN_POINT('Ctrl Pts',(49.6396757640033,-42.8775344162166,-27.9399670244073));
#705=CARTESIAN_POINT('Ctrl Pts',(51.9183641309895,-37.5879492270769,-28.018404620033));
#706=CARTESIAN_POINT('Ctrl Pts',(55.2228144945853,-32.956807985022,-28.1238400616031));
#707=CARTESIAN_POINT('Ctrl Pts',(60.6643926581815,-27.9493999601764,-28.2938102918956));
#708=CARTESIAN_POINT('Ctrl Pts',(68.8655575947713,-24.1035187728419,-28.551683715917));
#709=CARTESIAN_POINT('Ctrl Pts',(79.183354053287,-23.5211246344171,-28.8910833000837));
#710=CARTESIAN_POINT('Ctrl Pts',(88.6312097524412,-26.5002077048478,-29.2133954444842));
#711=CARTESIAN_POINT('Ctrl Pts',(96.2239042439806,-32.3758447055855,-29.4724153791488));
#712=CARTESIAN_POINT('Ctrl Pts',(99.5773208623527,-37.6688644939142,-29.5752594914064));
#713=CARTESIAN_POINT('Ctrl Pts',(100.752882542711,-40.513763948089,-29.6048888633488));
#714=CARTESIAN_POINT('Ctrl Pts',(53.2902825621141,-49.0352151599328,-30.0895891998674));
#715=CARTESIAN_POINT('Ctrl Pts',(53.3939158404929,-47.4133312659085,-30.0890965139239));
#716=CARTESIAN_POINT('Ctrl Pts',(53.9420044376385,-44.1880681104637,-30.0876916802423));
#717=CARTESIAN_POINT('Ctrl Pts',(55.6941269589678,-39.6900628132451,-30.0843488757018));
#718=CARTESIAN_POINT('Ctrl Pts',(58.3047757875461,-35.639904183194,-30.0798335961514));
#719=CARTESIAN_POINT('Ctrl Pts',(62.7148671881313,-31.0865388164473,-30.0725486553041));
#720=CARTESIAN_POINT('Ctrl Pts',(69.624697551665,-27.2137234725775,-30.0616218293237));
#721=CARTESIAN_POINT('Ctrl Pts',(78.8528436283739,-25.9450252648932,-30.0471461519012));
#722=CARTESIAN_POINT('Ctrl Pts',(87.7953023803534,-28.0224510170664,-30.0334404677135));
#723=CARTESIAN_POINT('Ctrl Pts',(95.3398966544276,-33.1365436311145,-30.0224118449716));
#724=CARTESIAN_POINT('Ctrl Pts',(98.7694790351627,-38.1214563924505,-30.0180971729338));
#725=CARTESIAN_POINT('Ctrl Pts',(99.9639886462379,-40.8469642051787,-30.0168176185588));
#726=CARTESIAN_POINT('Ctrl Pts',(58.3453154016639,-49.3156085318007,-30.0924501349768));
#727=CARTESIAN_POINT('Ctrl Pts',(58.4025164222133,-48.0272797641567,-30.0919578882431));
#728=CARTESIAN_POINT('Ctrl Pts',(58.7643214212074,-45.4520080220863,-30.09047316467));
#729=CARTESIAN_POINT('Ctrl Pts',(60.0044470942025,-41.7830315138545,-30.0870237958134));
#730=CARTESIAN_POINT('Ctrl Pts',(61.9238446177528,-38.368398104209,-30.0824153433778));
#731=CARTESIAN_POINT('Ctrl Pts',(65.2786285196363,-34.355784806938,-30.0749993009313));
#732=CARTESIAN_POINT('Ctrl Pts',(70.8011502371316,-30.5660878515111,-30.0636082428879));
#733=CARTESIAN_POINT('Ctrl Pts',(78.7495576299759,-28.66260478793,-30.0487457544551));
#734=CARTESIAN_POINT('Ctrl Pts',(87.0087080105853,-29.7885878030941,-30.0345867866164));
#735=CARTESIAN_POINT('Ctrl Pts',(94.404311149332,-34.0384821104653,-30.023224596201));
#736=CARTESIAN_POINT('Ctrl Pts',(97.890791808452,-38.6569224633248,-30.0186338684414));
#737=CARTESIAN_POINT('Ctrl Pts',(99.098170388138,-41.23872713036,-30.0173552867056));
#738=CARTESIAN_POINT('Ctrl Pts',(62.9028809387696,-49.4736289194955,-27.8927500126568));
#739=CARTESIAN_POINT('Ctrl Pts',(62.9253530033771,-48.4580855083531,-27.9041336957792));
#740=CARTESIAN_POINT('Ctrl Pts',(63.1444163288485,-46.4169095546925,-27.9375409932979));
#741=CARTESIAN_POINT('Ctrl Pts',(63.9820618108396,-43.4452403580983,-28.016077041428));
#742=CARTESIAN_POINT('Ctrl Pts',(65.3447848393417,-40.5873429106122,-28.1215960738244));
#743=CARTESIAN_POINT('Ctrl Pts',(67.8277933755869,-37.084029498045,-28.2916835076303));
#744=CARTESIAN_POINT('Ctrl Pts',(72.1503000547333,-33.4621175824524,-28.5499673703737));
#745=CARTESIAN_POINT('Ctrl Pts',(78.896674824689,-31.1079825298532,-28.8897004647692));
#746=CARTESIAN_POINT('Ctrl Pts',(86.4342881998491,-31.436573307402,-29.2124006172323));
#747=CARTESIAN_POINT('Ctrl Pts',(93.6060908675478,-34.9009373518709,-29.4717060423145));
#748=CARTESIAN_POINT('Ctrl Pts',(97.1164800001138,-39.1687493755751,-29.5747918537868));
#749=CARTESIAN_POINT('Ctrl Pts',(98.3275199772504,-41.6112990266675,-29.6044191368602));
#750=CARTESIAN_POINT('Ctrl Pts',(66.0613856916065,-49.4784867064892,-23.9365742569861));
#751=CARTESIAN_POINT('Ctrl Pts',(66.0664809129614,-48.6205829498408,-23.9699660031785));
#752=CARTESIAN_POINT('Ctrl Pts',(66.2105341562977,-46.89188142037,-24.0677721433968));
#753=CARTESIAN_POINT('Ctrl Pts',(66.8279114434358,-44.3444672584124,-24.297223566285));
#754=CARTESIAN_POINT('Ctrl Pts',(67.8735277840327,-41.8482171505069,-24.6044760679908));
#755=CARTESIAN_POINT('Ctrl Pts',(69.8377355704191,-38.712725107347,-25.0978808705191));
#756=CARTESIAN_POINT('Ctrl Pts',(73.3903482909795,-35.3007381622977,-25.8425453524484));
#757=CARTESIAN_POINT('Ctrl Pts',(79.2631252383908,-32.7736284491837,-26.8166020019868));
#758=CARTESIAN_POINT('Ctrl Pts',(86.1901749264734,-32.6293300627132,-27.7394519111542));
#759=CARTESIAN_POINT('Ctrl Pts',(93.1054003089815,-35.5515047672371,-28.4814608212666));
#760=CARTESIAN_POINT('Ctrl Pts',(96.6003776114611,-39.5550542468526,-28.7768185763639));
#761=CARTESIAN_POINT('Ctrl Pts',(97.804616147684,-41.8907953669796,-28.8618460339677));
#762=CARTESIAN_POINT('Ctrl Pts',(66.8130636858427,-49.3785988817618,-20.6472212894139));
#763=CARTESIAN_POINT('Ctrl Pts',(66.8198319235305,-48.5283908328876,-20.6998532342382));
#764=CARTESIAN_POINT('Ctrl Pts',(66.9677721512851,-46.8178729703608,-20.8539818503426));
#765=CARTESIAN_POINT('Ctrl Pts',(67.5863298337247,-44.3132050350218,-21.2143760095015));
#766=CARTESIAN_POINT('Ctrl Pts',(68.6196535451845,-41.8776293821984,-21.6948752995687));
#767=CARTESIAN_POINT('Ctrl Pts',(70.5403222197796,-38.8401151540697,-22.4630258548266));
#768=CARTESIAN_POINT('Ctrl Pts',(73.9713313704923,-35.5644003007674,-23.6147446245258));
#769=CARTESIAN_POINT('Ctrl Pts',(79.6033802326936,-33.1310279953944,-25.1105135686114));
#770=CARTESIAN_POINT('Ctrl Pts',(86.2818571899829,-32.9567139277368,-26.5234874125315));
#771=CARTESIAN_POINT('Ctrl Pts',(93.0381257608448,-35.7561433108247,-27.6603154348781));
#772=CARTESIAN_POINT('Ctrl Pts',(96.4976316735441,-39.6774777919542,-28.1139764355975));
#773=CARTESIAN_POINT('Ctrl Pts',(97.6910430762825,-41.9778289215065,-28.2445832404403));
#774=CARTESIAN_POINT('Ctrl Pts',(66.8139406736133,-49.3078942756372,-19.0032099572344));
#775=CARTESIAN_POINT('Ctrl Pts',(66.8247478298458,-48.4365985171534,-19.0658826265087));
#776=CARTESIAN_POINT('Ctrl Pts',(66.9875544043361,-46.687049735087,-19.2493463008383));
#777=CARTESIAN_POINT('Ctrl Pts',(67.6431606397348,-44.1417423645338,-19.6775653657012));
#778=CARTESIAN_POINT('Ctrl Pts',(68.7204374353769,-41.6882567407341,-20.2470891646884));
#779=CARTESIAN_POINT('Ctrl Pts',(70.6967229744998,-38.6579754830322,-21.1551794213584));
#780=CARTESIAN_POINT('Ctrl Pts',(74.1703784551969,-35.4422121545565,-22.5114255477289));
#781=CARTESIAN_POINT('Ctrl Pts',(79.7798482103882,-33.1032961628654,-24.2654931146422));
#782=CARTESIAN_POINT('Ctrl Pts',(86.3867755716462,-32.9869152762117,-25.919579682185));
#783=CARTESIAN_POINT('Ctrl Pts',(93.0743820689918,-35.7912486682844,-27.2509071832522));
#784=CARTESIAN_POINT('Ctrl Pts',(96.5115799942452,-39.6987886296983,-27.782945234932));
#785=CARTESIAN_POINT('Ctrl Pts',(97.698510920812,-41.9922588081515,-27.936141520619));
#786=CARTESIAN_POINT('',(99.5285169684209,-41.0371768064119,-30.));
#787=CARTESIAN_POINT('',(95.3184478748107,-38.5555233607487,-27.5872552439032));
#788=CARTESIAN_POINT('Ctrl Pts',(99.5285169684209,-41.0371768064119,-30.));
#789=CARTESIAN_POINT('Ctrl Pts',(99.5168251643202,-41.0404832611021,-30.));
#790=CARTESIAN_POINT('Ctrl Pts',(99.5049397840632,-41.0433576490314,-29.9998951520613));
#791=CARTESIAN_POINT('Ctrl Pts',(99.4265790561759,-41.0592456379027,-29.9985345629092));
#792=CARTESIAN_POINT('Ctrl Pts',(99.3583145881964,-41.0590658489397,-29.9942819452218));
#793=CARTESIAN_POINT('Ctrl Pts',(99.198525533545,-41.0400963383995,-29.9795178044333));
#794=CARTESIAN_POINT('Ctrl Pts',(99.0847051660931,-41.0111626203797,-29.9653342316087));
#795=CARTESIAN_POINT('Ctrl Pts',(98.6815235186559,-40.8507564706576,-29.8926704542768));
#796=CARTESIAN_POINT('Ctrl Pts',(98.3728308139,-40.6760757966925,-29.8154070418125));
#797=CARTESIAN_POINT('Ctrl Pts',(97.4634646973061,-40.1038608976247,-29.5020223739919));
#798=CARTESIAN_POINT('Ctrl Pts',(96.8463888349539,-39.6642988801952,-29.2045273867268));
#799=CARTESIAN_POINT('Ctrl Pts',(96.0493944838827,-39.0905991095499,-28.65509890382));
#800=CARTESIAN_POINT('Ctrl Pts',(95.8015634015328,-38.9097589187848,-28.4481606112186));
#801=CARTESIAN_POINT('Ctrl Pts',(95.5389845956798,-38.7175443808935,-28.1442715422752));
#802=CARTESIAN_POINT('Ctrl Pts',(95.4568067103637,-38.6572310885392,-28.032453045824));
#803=CARTESIAN_POINT('Ctrl Pts',(95.3744375427155,-38.5967038668748,-27.8604693712784));
#804=CARTESIAN_POINT('Ctrl Pts',(95.3533841340147,-38.5812221867506,-27.8055646497263));
#805=CARTESIAN_POINT('Ctrl Pts',(95.3258630294937,-38.5609797663645,-27.6958471625825));
#806=CARTESIAN_POINT('Ctrl Pts',(95.3184478747224,-38.5555233606892,-27.6421106620414));
#807=CARTESIAN_POINT('Ctrl Pts',(95.3184478747224,-38.5555233606892,-27.5872552438827));
#808=CARTESIAN_POINT('',(66.8743709841075,-48.0914810913259,-19.10905259962));
#809=CARTESIAN_POINT('Ctrl Pts',(95.3157198336143,-38.5580265021697,-27.586908246382));
#810=CARTESIAN_POINT('Ctrl Pts',(94.5528178719899,-37.7118034872965,-27.4649502292115));
#811=CARTESIAN_POINT('Ctrl Pts',(91.8536731643803,-35.2793652695585,-27.0078959749594));
#812=CARTESIAN_POINT('Ctrl Pts',(86.3867755716462,-32.9869152762117,-25.919579682185));
#813=CARTESIAN_POINT('Ctrl Pts',(79.7798482103882,-33.1032961628654,-24.2654931146422));
#814=CARTESIAN_POINT('Ctrl Pts',(74.1703784551969,-35.4422121545565,-22.5114255477289));
#815=CARTESIAN_POINT('Ctrl Pts',(70.6967229744998,-38.6579754830322,-21.1551794213584));
#816=CARTESIAN_POINT('Ctrl Pts',(68.7204374353769,-41.6882567407341,-20.2470891646884));
#817=CARTESIAN_POINT('Ctrl Pts',(67.6431606397348,-44.1417423645338,-19.6775653657012));
#818=CARTESIAN_POINT('Ctrl Pts',(67.0892016667103,-46.2924172374871,-19.3157387377761));
#819=CARTESIAN_POINT('Ctrl Pts',(66.9153079215422,-47.6256809205393,-19.1567346476978));
#820=CARTESIAN_POINT('Ctrl Pts',(66.8746360229858,-48.091515747395,-19.1091653709465));
#821=CARTESIAN_POINT('',(55.9045871480462,-48.0914810913576,-30.));
#822=CARTESIAN_POINT('Ctrl Pts',(66.8743709841129,-48.0914810913576,-19.1090525996164));
#823=CARTESIAN_POINT('Ctrl Pts',(66.8743709841129,-48.0914810913576,-20.527186068048));
#824=CARTESIAN_POINT('Ctrl Pts',(66.5980491292142,-48.0914810913575,-21.9304166258224));
#825=CARTESIAN_POINT('Ctrl Pts',(65.521163838535,-48.0914810913575,-24.5448182671626));
#826=CARTESIAN_POINT('Ctrl Pts',(64.7352621276557,-48.0914810913575,-25.7294087230368));
#827=CARTESIAN_POINT('Ctrl Pts',(62.7448588102469,-48.0914810913575,-27.7451605069198));
#828=CARTESIAN_POINT('Ctrl Pts',(61.5556291373666,-48.0914810913576,-28.5529315069614));
#829=CARTESIAN_POINT('Ctrl Pts',(59.5868422613766,-48.0914810913576,-29.3938054906179));
#830=CARTESIAN_POINT('Ctrl Pts',(58.9014385367141,-48.0914810913757,-29.6104937403252));
#831=CARTESIAN_POINT('Ctrl Pts',(57.4436542958626,-48.0914810913757,-29.9196993515336));
#832=CARTESIAN_POINT('Ctrl Pts',(56.6742622254397,-48.0914810913576,-30.0000000000001));
#833=CARTESIAN_POINT('Ctrl Pts',(55.9045871480462,-48.0914810913576,-30.));
#834=CARTESIAN_POINT('',(44.8743709841121,-48.0914810913592,-19.0032099572344));
#835=CARTESIAN_POINT('Ctrl Pts',(55.9045871480462,-48.0914810913576,-30.));
#836=CARTESIAN_POINT('Ctrl Pts',(55.2390939153905,-48.0914810913576,-29.9999999999999));
#837=CARTESIAN_POINT('Ctrl Pts',(54.5733891051911,-48.0914810918,-29.9399653558204));
#838=CARTESIAN_POINT('Ctrl Pts',(52.4983034728534,-48.0914810918,-29.5607773674854));
#839=CARTESIAN_POINT('Ctrl Pts',(51.1449247061205,-48.0914810913576,-29.0272517789705));
#840=CARTESIAN_POINT('Ctrl Pts',(48.7237466800623,-48.0914810913576,-27.4726804859869));
#841=CARTESIAN_POINT('Ctrl Pts',(47.6781972318545,-48.09148109135,-26.4679729256426));
#842=CARTESIAN_POINT('Ctrl Pts',(46.214613232824,-48.09148109135,-24.3740881647823));
#843=CARTESIAN_POINT('Ctrl Pts',(45.7174802754038,-48.0914810913568,-23.365115579886));
#844=CARTESIAN_POINT('Ctrl Pts',(45.0454433702797,-48.0914810913568,-21.2323036616274));
#845=CARTESIAN_POINT('Ctrl Pts',(44.8743709841128,-48.0914810913576,-20.1210563222578));
#846=CARTESIAN_POINT('Ctrl Pts',(44.8743709841128,-48.0914810913576,-19.0032099572344));
#847=CARTESIAN_POINT('',(100.37132756844,-37.8540246585722,-27.7789492678145));
#848=CARTESIAN_POINT('Ctrl Pts',(44.8743709841127,-48.0914810913593,-19.0032099572344));
#849=CARTESIAN_POINT('Ctrl Pts',(45.1031505912645,-45.7733129865805,-19.0658826265087));
#850=CARTESIAN_POINT('Ctrl Pts',(46.120736055849,-41.2127446109263,-19.2493463008383));
#851=CARTESIAN_POINT('Ctrl Pts',(49.0801487721229,-35.1217243119439,-19.6775653657012));
#852=CARTESIAN_POINT('Ctrl Pts',(53.2185318972155,-29.9943420869835,-20.2470891646884));
#853=CARTESIAN_POINT('Ctrl Pts',(59.8012183934995,-24.7435244606493,-21.1551794213585));
#854=CARTESIAN_POINT('Ctrl Pts',(69.2055072629097,-21.2749894706057,-22.5114255477289));
#855=CARTESIAN_POINT('Ctrl Pts',(80.2085009301996,-21.6170325555846,-24.2654931146422));
#856=CARTESIAN_POINT('Ctrl Pts',(89.7272789178162,-25.4573833376053,-25.919579682185));
#857=CARTESIAN_POINT('Ctrl Pts',(96.4020231801171,-31.2883832506909,-27.1248190207498));
#858=CARTESIAN_POINT('Ctrl Pts',(99.3680497589043,-35.8458734587104,-27.6246045708223));
#859=CARTESIAN_POINT('Ctrl Pts',(100.371213931749,-37.8540949964568,-27.7787859930112));
#860=CARTESIAN_POINT('Ctrl Pts',(100.37132756844,-37.8540246585722,-27.7789492678145));
#861=CARTESIAN_POINT('Ctrl Pts',(100.37132756844,-37.8540246585722,-27.935889434219));
#862=CARTESIAN_POINT('Ctrl Pts',(100.368537273952,-37.8853929033787,-28.0891501283593));
#863=CARTESIAN_POINT('Ctrl Pts',(100.356950338028,-38.0126835908468,-28.4186940183595));
#864=CARTESIAN_POINT('Ctrl Pts',(100.347011876547,-38.1206065990706,-28.585873856754));
#865=CARTESIAN_POINT('Ctrl Pts',(100.315706926207,-38.4434728785235,-28.9616272047922));
#866=CARTESIAN_POINT('Ctrl Pts',(100.290820724604,-38.68826533947,-29.1507566855085));
#867=CARTESIAN_POINT('Ctrl Pts',(100.205211003951,-39.415460640132,-29.5884069366426));
#868=CARTESIAN_POINT('Ctrl Pts',(100.132365606569,-39.9333542311057,-29.7590708047246));
#869=CARTESIAN_POINT('Ctrl Pts',(99.9761427349523,-40.4942710810526,-29.9051832330376));
#870=CARTESIAN_POINT('Ctrl Pts',(99.9099591165653,-40.6825962746796,-29.9457817659032));
#871=CARTESIAN_POINT('Ctrl Pts',(99.7692171917965,-40.8826594941891,-29.9815110364038));
#872=CARTESIAN_POINT('Ctrl Pts',(99.719049581913,-40.936858652855,-29.9900739413803));
#873=CARTESIAN_POINT('Ctrl Pts',(99.6174393531986,-41.004504340523,-29.9983907817849));
#874=CARTESIAN_POINT('Ctrl Pts',(99.5744740629004,-41.0241800909967,-30.));
#875=CARTESIAN_POINT('Ctrl Pts',(99.5285169684209,-41.0371768064119,-30.));
#876=CARTESIAN_POINT('Origin',(44.8743709841129,-48.0914810913576,-30.));
#877=CARTESIAN_POINT('',(66.8743709841129,-48.0914810913576,-18.8909474003836));
#878=CARTESIAN_POINT('',(66.8743709841129,-48.0914810913576,-30.));
#879=CARTESIAN_POINT('',(55.9045871480407,-48.0914810913576,-8.));
#880=CARTESIAN_POINT('Ctrl Pts',(55.9045871480407,-48.0914810913576,-8.));
#881=CARTESIAN_POINT('Ctrl Pts',(57.2866537674947,-48.0914810913576,-7.99999999999916));
#882=CARTESIAN_POINT('Ctrl Pts',(58.6575045420759,-48.0914810912337,-8.25892915398232));
#883=CARTESIAN_POINT('Ctrl Pts',(61.2785299312888,-48.0914810912337,-9.28792342773831));
#884=CARTESIAN_POINT('Ctrl Pts',(62.4981809768014,-48.0914810913576,-10.0666438926757));
#885=CARTESIAN_POINT('Ctrl Pts',(64.5571473092178,-48.0914810913576,-12.0407290951371));
#886=CARTESIAN_POINT('Ctrl Pts',(65.379973889243,-48.0914810913576,-13.2132657257851));
#887=CARTESIAN_POINT('Ctrl Pts',(66.2561042463438,-48.0914810913576,-15.1993590144114));
#888=CARTESIAN_POINT('Ctrl Pts',(66.4866994974059,-48.0914810913574,-15.9158564772383));
#889=CARTESIAN_POINT('Ctrl Pts',(66.7964957495849,-48.0914810913574,-17.3874098250387));
#890=CARTESIAN_POINT('Ctrl Pts',(66.8743709841129,-48.0914810913576,-18.1380961558876));
#891=CARTESIAN_POINT('Ctrl Pts',(66.8743709841129,-48.0914810913576,-18.8909474003836));
#892=CARTESIAN_POINT('',(44.8743709841128,-48.0914810913576,-18.9967900427656));
#893=CARTESIAN_POINT('Ctrl Pts',(44.8743709841128,-48.0914810913576,-18.9967900427656));
#894=CARTESIAN_POINT('Ctrl Pts',(44.8743709841128,-48.0914810913576,-17.5697962252382));
#895=CARTESIAN_POINT('Ctrl Pts',(45.1531412791911,-48.0914810913581,-16.1565462907032));
#896=CARTESIAN_POINT('Ctrl Pts',(46.2370781808956,-48.0914810913581,-13.5128204320753));
#897=CARTESIAN_POINT('Ctrl Pts',(47.0329623922318,-48.0914810913618,-12.3082129313857));
#898=CARTESIAN_POINT('Ctrl Pts',(49.0435632677548,-48.0914810913618,-10.2679980835638));
#899=CARTESIAN_POINT('Ctrl Pts',(50.2400736829047,-48.0914810913627,-9.45293937013572));
#900=CARTESIAN_POINT('Ctrl Pts',(52.8808363895134,-48.0914810913627,-8.32443131294113));
#901=CARTESIAN_POINT('Ctrl Pts',(54.3006512527217,-48.0914810913576,-8.02288286636681));
#902=CARTESIAN_POINT('Ctrl Pts',(55.7936058526221,-48.0914810913576,-8.0004172646291));
#903=CARTESIAN_POINT('Ctrl Pts',(55.8491055377034,-48.0914810913576,-8.00000000000002));
#904=CARTESIAN_POINT('Ctrl Pts',(55.9045871480407,-48.0914810913576,-7.99999999999999));
#905=CARTESIAN_POINT('',(44.8743709841128,-48.0914810913576,-30.));
#906=CARTESIAN_POINT('Origin',(83.1707106416529,-49.5107762095638,-30.));
#907=CARTESIAN_POINT('',(95.3184478747224,-38.5555233606893,-10.4127447561173));
#908=CARTESIAN_POINT('',(95.3184478747224,-38.5555233606893,-30.));
#909=CARTESIAN_POINT('Ctrl Pts',(66.8745647984147,-48.091516793046,-18.8907637878492));
#910=CARTESIAN_POINT('Ctrl Pts',(66.9911230510165,-46.7569785935537,-18.7543020302079));
#911=CARTESIAN_POINT('Ctrl Pts',(67.6383760901225,-43.7048964574772,-18.29079331245));
#912=CARTESIAN_POINT('Ctrl Pts',(70.0010325433915,-39.3015480285417,-17.1160986325617));
#913=CARTESIAN_POINT('Ctrl Pts',(74.1766959198287,-35.4391011662727,-15.4869791359741));
#914=CARTESIAN_POINT('Ctrl Pts',(79.7786089940488,-33.1039165508264,-13.73426815871));
#915=CARTESIAN_POINT('Ctrl Pts',(86.393281816299,-32.9864520144007,-12.079223406698));
#916=CARTESIAN_POINT('Ctrl Pts',(91.8580679237039,-35.2838769973862,-10.9913956773509));
#917=CARTESIAN_POINT('Ctrl Pts',(94.5539397869466,-37.7124635642329,-10.5348468779097));
#918=CARTESIAN_POINT('Ctrl Pts',(95.3160384032043,-38.5577297267994,-10.4130142195887));
#919=CARTESIAN_POINT('Ctrl Pts',(101.454482949981,-40.2943492126962,-10.0637817993541));
#920=CARTESIAN_POINT('Ctrl Pts',(100.314898728263,-37.3758219963915,-10.2171890512434));
#921=CARTESIAN_POINT('Ctrl Pts',(97.1050225146846,-31.9056644225633,-10.7484400437537));
#922=CARTESIAN_POINT('Ctrl Pts',(89.7321526751016,-25.4602822808952,-12.079223406698));
#923=CARTESIAN_POINT('Ctrl Pts',(80.2134400357845,-21.6169367116332,-13.73426815871));
#924=CARTESIAN_POINT('Ctrl Pts',(69.2101673020649,-21.2795558271969,-15.4869791359741));
#925=CARTESIAN_POINT('Ctrl Pts',(57.9274319904036,-25.4254952089802,-17.1160986325617));
#926=CARTESIAN_POINT('Ctrl Pts',(48.5091514669081,-34.575847418134,-18.3896108062645));
#927=CARTESIAN_POINT('Ctrl Pts',(45.3319565056514,-43.4548783169917,-18.871437497523));
#928=CARTESIAN_POINT('Ctrl Pts',(44.8743709841128,-48.0914810913576,-18.9967900427656));
#929=CARTESIAN_POINT('Ctrl Pts',(101.448574943835,-40.2792185392427,-9.75535138749445));
#930=CARTESIAN_POINT('Ctrl Pts',(100.304057064179,-37.3527525794743,-9.88614072450372));
#931=CARTESIAN_POINT('Ctrl Pts',(97.0775875516103,-31.8647541004372,-10.339118661726));
#932=CARTESIAN_POINT('Ctrl Pts',(89.6446144989985,-25.3977171553526,-11.4754930176435));
#933=CARTESIAN_POINT('Ctrl Pts',(80.0412648233936,-21.5726145369812,-12.8892901449525));
#934=CARTESIAN_POINT('Ctrl Pts',(68.9785949549661,-21.3126013110009,-14.3838629204475));
#935=CARTESIAN_POINT('Ctrl Pts',(57.7195562396164,-25.5595622658292,-15.7673992935769));
#936=CARTESIAN_POINT('Ctrl Pts',(48.4151106874038,-34.7471443104769,-16.842743636209));
#937=CARTESIAN_POINT('Ctrl Pts',(45.3097450215151,-43.5657506443974,-17.2475074415628));
#938=CARTESIAN_POINT('Ctrl Pts',(44.867426359357,-48.1618492846113,-17.3527787105861));
#939=CARTESIAN_POINT('Ctrl Pts',(101.308071959222,-40.3071736266492,-9.13838961375793));
#940=CARTESIAN_POINT('Ctrl Pts',(100.151520744595,-37.3864468784082,-9.22352948880202));
#941=CARTESIAN_POINT('Ctrl Pts',(96.8824285049419,-31.9171104111279,-9.51862399565124));
#942=CARTESIAN_POINT('Ctrl Pts',(89.3492911283593,-25.5384602742128,-10.2604525330016));
#943=CARTESIAN_POINT('Ctrl Pts',(79.6772221518371,-21.8971944335182,-11.1841027453165));
#944=CARTESIAN_POINT('Ctrl Pts',(68.6906728200371,-21.8897022155157,-12.1575460202369));
#945=CARTESIAN_POINT('Ctrl Pts',(57.7315874759113,-26.3221673404042,-13.0524166870669));
#946=CARTESIAN_POINT('Ctrl Pts',(48.8856509659777,-35.4182871920397,-13.7411678022765));
#947=CARTESIAN_POINT('Ctrl Pts',(46.0033904756369,-43.9291010011727,-13.9981216246352));
#948=CARTESIAN_POINT('Ctrl Pts',(45.6044420558121,-48.3442122188913,-14.0649065745048));
#949=CARTESIAN_POINT('Ctrl Pts',(100.753469306705,-40.5151889100684,-8.39509690627018));
#950=CARTESIAN_POINT('Ctrl Pts',(99.5761694222534,-37.6656136714219,-8.42476706511218));
#951=CARTESIAN_POINT('Ctrl Pts',(96.2284114375041,-32.3828732771428,-8.52743176918792));
#952=CARTESIAN_POINT('Ctrl Pts',(88.6368449319742,-26.5028609125182,-8.78640497665237));
#953=CARTESIAN_POINT('Ctrl Pts',(79.1866517551611,-23.5203155432939,-9.10886655475858));
#954=CARTESIAN_POINT('Ctrl Pts',(68.8728121108255,-24.1063495242636,-9.44796103111727));
#955=CARTESIAN_POINT('Ctrl Pts',(59.0261530090132,-28.7109103653087,-9.75788448294572));
#956=CARTESIAN_POINT('Ctrl Pts',(51.4207603431466,-37.2093961936879,-9.99444351308338));
#957=CARTESIAN_POINT('Ctrl Pts',(49.0490734664972,-44.7881960000782,-10.0819831443769));
#958=CARTESIAN_POINT('Ctrl Pts',(48.7411133164021,-48.6885541241925,-10.1047530213446));
#959=CARTESIAN_POINT('Ctrl Pts',(99.9645842447522,-40.8483296217409,-7.98318251833031));
#960=CARTESIAN_POINT('Ctrl Pts',(98.7683114537924,-38.1183288820215,-7.98190120253689));
#961=CARTESIAN_POINT('Ctrl Pts',(95.3442959120122,-33.143266485055,-7.97762126098767));
#962=CARTESIAN_POINT('Ctrl Pts',(87.8014066663072,-28.0245092989413,-7.9665370170783));
#963=CARTESIAN_POINT('Ctrl Pts',(78.8546374992349,-25.9441446108658,-7.95286675085673));
#964=CARTESIAN_POINT('Ctrl Pts',(69.6327099471526,-27.2147050282001,-7.93841398042151));
#965=CARTESIAN_POINT('Ctrl Pts',(61.3328561640494,-31.8565225420178,-7.92519407792162));
#966=CARTESIAN_POINT('Ctrl Pts',(55.277919417997,-39.4268908293222,-7.91509726368059));
#967=CARTESIAN_POINT('Ctrl Pts',(53.4975744923272,-45.7912617320771,-7.91139358926338));
#968=CARTESIAN_POINT('Ctrl Pts',(53.2902960188387,-49.0352160196158,-7.9104081607227));
#969=CARTESIAN_POINT('Ctrl Pts',(99.0987718182285,-41.2400209455991,-7.98264579047941));
#970=CARTESIAN_POINT('Ctrl Pts',(97.88961365747,-38.6539442998889,-7.98136544866572));
#971=CARTESIAN_POINT('Ctrl Pts',(94.4086045585935,-34.0448821119954,-7.97675013826636));
#972=CARTESIAN_POINT('Ctrl Pts',(87.0152055027843,-29.7898434770751,-7.96545928420172));
#973=CARTESIAN_POINT('Ctrl Pts',(78.7499121303478,-28.661924944739,-7.95124455371394));
#974=CARTESIAN_POINT('Ctrl Pts',(70.8092778792035,-30.5651846811122,-7.93638188970549));
#975=CARTESIAN_POINT('Ctrl Pts',(64.1727885959323,-35.1118806002054,-7.92279814858));
#976=CARTESIAN_POINT('Ctrl Pts',(59.675640370584,-41.6260763168465,-7.91241940930863));
#977=CARTESIAN_POINT('Ctrl Pts',(58.4597411907213,-46.7388037074493,-7.90853666613741));
#978=CARTESIAN_POINT('Ctrl Pts',(58.3453325721101,-49.3156093869166,-7.9075521160668));
#979=CARTESIAN_POINT('Ctrl Pts',(98.3281222582945,-41.6125235390747,-8.39556551848293));
#980=CARTESIAN_POINT('Ctrl Pts',(97.1152989224896,-39.1659168625506,-8.42523358558471));
#981=CARTESIAN_POINT('Ctrl Pts',(93.6102561544865,-34.9069906767567,-8.52819301716372));
#982=CARTESIAN_POINT('Ctrl Pts',(86.4411079268434,-31.4370593068399,-8.78733763823644));
#983=CARTESIAN_POINT('Ctrl Pts',(78.8957244096667,-31.1077512479955,-9.11027047662366));
#984=CARTESIAN_POINT('Ctrl Pts',(72.1581833375725,-33.4595013291754,-9.44971533703964));
#985=CARTESIAN_POINT('Ctrl Pts',(66.9615199955888,-37.8087852803931,-9.75996078550122));
#986=CARTESIAN_POINT('Ctrl Pts',(63.7284214733017,-43.3655175876063,-9.99677069043029));
#987=CARTESIAN_POINT('Ctrl Pts',(62.9478503662548,-47.4424266966038,-10.084478598613));
#988=CARTESIAN_POINT('Ctrl Pts',(62.90290365299,-49.4736302956375,-10.1072472738609));
#989=CARTESIAN_POINT('Ctrl Pts',(97.8052163184582,-41.8919658518063,-9.13811177280325));
#990=CARTESIAN_POINT('Ctrl Pts',(96.5992047536892,-39.5523335778376,-9.22325629202017));
#991=CARTESIAN_POINT('Ctrl Pts',(93.1095980253344,-35.5573495784725,-9.51816150700848));
#992=CARTESIAN_POINT('Ctrl Pts',(86.1968997116969,-32.629155194374,-10.2599025201293));
#993=CARTESIAN_POINT('Ctrl Pts',(79.2617269574081,-32.7737800707467,-11.1832688626184));
#994=CARTESIAN_POINT('Ctrl Pts',(73.3974821124961,-35.2974871071561,-12.1565107601309));
#995=CARTESIAN_POINT('Ctrl Pts',(69.1254245602523,-39.3961375883667,-13.051193539604));
#996=CARTESIAN_POINT('Ctrl Pts',(66.6214204194287,-44.2997177704204,-13.73979412419));
#997=CARTESIAN_POINT('Ctrl Pts',(66.0715920616102,-47.7625813123722,-13.9966403057802));
#998=CARTESIAN_POINT('Ctrl Pts',(66.0614010330038,-49.4784874755255,-14.0634276378626));
#999=CARTESIAN_POINT('Ctrl Pts',(97.6916404457044,-41.9789805183556,-9.75535138749445));
#1000=CARTESIAN_POINT('Ctrl Pts',(96.4964712472268,-39.6747941312489,-9.88613803375829));
#1001=CARTESIAN_POINT('Ctrl Pts',(93.0422544743561,-35.7618771458836,-10.3391278572911));
#1002=CARTESIAN_POINT('Ctrl Pts',(86.2885529249535,-32.9563085184649,-11.4754914950481));
#1003=CARTESIAN_POINT('Ctrl Pts',(79.601896828864,-33.1315917041898,-12.8892927775557));
#1004=CARTESIAN_POINT('Ctrl Pts',(73.977949997188,-35.5609763891132,-14.3838611157549));
#1005=CARTESIAN_POINT('Ctrl Pts',(69.8529830677563,-39.4961531648179,-15.7673944632165));
#1006=CARTESIAN_POINT('Ctrl Pts',(67.386215693982,-44.2589308010096,-16.8427397979811));
#1007=CARTESIAN_POINT('Ctrl Pts',(66.8266009394941,-47.6780850190812,-17.2475087688205));
#1008=CARTESIAN_POINT('Ctrl Pts',(66.8130636858427,-49.3785988817612,-17.3527787105861));
#1009=CARTESIAN_POINT('Ctrl Pts',(97.6991050492536,-41.993406935431,-10.0637817993541));
#1010=CARTESIAN_POINT('Ctrl Pts',(96.5104253180248,-39.6961128515769,-10.2171890512434));
#1011=CARTESIAN_POINT('Ctrl Pts',(93.078574200001,-35.7969842912391,-10.7484400437537));
#1012=CARTESIAN_POINT('Ctrl Pts',(86.393281816299,-32.9864520144007,-12.079223406698));
#1013=CARTESIAN_POINT('Ctrl Pts',(79.7786089940488,-33.1039165508264,-13.73426815871));
#1014=CARTESIAN_POINT('Ctrl Pts',(74.1766959198287,-35.4391011662727,-15.4869791359741));
#1015=CARTESIAN_POINT('Ctrl Pts',(70.0010325433915,-39.3015480285417,-17.1160986325617));
#1016=CARTESIAN_POINT('Ctrl Pts',(67.439625049998,-44.0753142890967,-18.3896108062645));
#1017=CARTESIAN_POINT('Ctrl Pts',(66.835556228787,-47.565202568874,-18.871437497523));
#1018=CARTESIAN_POINT('Ctrl Pts',(66.8139406736133,-49.3078942756366,-18.9967900427655));
#1019=CARTESIAN_POINT('',(99.5285169684209,-41.0371768064119,-7.99999999999999));
#1020=CARTESIAN_POINT('Ctrl Pts',(95.3184478747224,-38.5555233606892,-10.4127447561173));
#1021=CARTESIAN_POINT('Ctrl Pts',(95.3184478747224,-38.5555233606892,-10.3460349480506));
#1022=CARTESIAN_POINT('Ctrl Pts',(95.3294174557797,-38.5635955973736,-10.2811480881583));
#1023=CARTESIAN_POINT('Ctrl Pts',(95.3749768331919,-38.5971008672845,-10.1288521212105));
#1024=CARTESIAN_POINT('Ctrl Pts',(95.4176576281201,-38.6284748199397,-10.0445487376684));
#1025=CARTESIAN_POINT('Ctrl Pts',(95.561099172628,-38.7337663138721,-9.81628158385994));
#1026=CARTESIAN_POINT('Ctrl Pts',(95.6924875511898,-38.8299937633307,-9.6747784791377));
#1027=CARTESIAN_POINT('Ctrl Pts',(96.089431342071,-39.1194466183807,-9.30325659094134));
#1028=CARTESIAN_POINT('Ctrl Pts',(96.4566643019685,-39.3861194593997,-9.04778126567459));
#1029=CARTESIAN_POINT('Ctrl Pts',(97.6985371324846,-40.2615985463211,-8.36077029590026));
#1030=CARTESIAN_POINT('Ctrl Pts',(98.5123632550216,-40.8142092341578,-8.12620605700868));
#1031=CARTESIAN_POINT('Ctrl Pts',(99.1681212968361,-41.0334563256146,-8.02379029259452));
#1032=CARTESIAN_POINT('Ctrl Pts',(99.2674972471869,-41.052686137604,-8.01301733943969));
#1033=CARTESIAN_POINT('Ctrl Pts',(99.4123188650783,-41.0584142769561,-8.00249683280682));
#1034=CARTESIAN_POINT('Ctrl Pts',(99.4714253816519,-41.0533223681418,-8.));
#1035=CARTESIAN_POINT('Ctrl Pts',(99.5285169684209,-41.0371768064119,-8.));
#1036=CARTESIAN_POINT('',(100.371327568667,-37.8540246587953,-10.2210507321519));
#1037=CARTESIAN_POINT('Ctrl Pts',(99.5285169684209,-41.0371768064119,-8.00000000000001));
#1038=CARTESIAN_POINT('Ctrl Pts',(99.5375149284894,-41.0346321736919,-8.00000000000001));
#1039=CARTESIAN_POINT('Ctrl Pts',(99.5464629292831,-41.0318132935578,-8.00006212277408));
#1040=CARTESIAN_POINT('Ctrl Pts',(99.6114720772721,-41.0091018468899,-8.00099075585739));
#1041=CARTESIAN_POINT('Ctrl Pts',(99.6612992490594,-40.9794460659437,-8.00429493407728));
#1042=CARTESIAN_POINT('Ctrl Pts',(99.7606348797756,-40.8940320294852,-8.01661794353544));
#1043=CARTESIAN_POINT('Ctrl Pts',(99.8052037981473,-40.8361850344705,-8.02645057622693));
#1044=CARTESIAN_POINT('Ctrl Pts',(99.9121251892703,-40.6612457771684,-8.05932068020043));
#1045=CARTESIAN_POINT('Ctrl Pts',(99.9633748636199,-40.5236214249578,-8.08923340846296));
#1046=CARTESIAN_POINT('Ctrl Pts',(100.094108839505,-40.0971519910224,-8.1950047754626));
#1047=CARTESIAN_POINT('Ctrl Pts',(100.160408869202,-39.7068408251016,-8.31290329289471));
#1048=CARTESIAN_POINT('Ctrl Pts',(100.268582391862,-38.9137616730424,-8.6865705234592));
#1049=CARTESIAN_POINT('Ctrl Pts',(100.304158361322,-38.5593035110786,-8.92587814444579));
#1050=CARTESIAN_POINT('Ctrl Pts',(100.342929548376,-38.1639719621599,-9.3551592409253));
#1051=CARTESIAN_POINT('Ctrl Pts',(100.35371594857,-38.0477612224304,-9.52030765163134));
#1052=CARTESIAN_POINT('Ctrl Pts',(100.364400783966,-37.9309519559184,-9.7855782853839));
#1053=CARTESIAN_POINT('Ctrl Pts',(100.36700957352,-37.9020613302281,-9.87192558938202));
#1054=CARTESIAN_POINT('Ctrl Pts',(100.370452229404,-37.8638216444279,-10.046447233983));
#1055=CARTESIAN_POINT('Ctrl Pts',(100.37132756844,-37.8540246585722,-10.1333909356642));
#1056=CARTESIAN_POINT('Ctrl Pts',(100.37132756844,-37.8540246585722,-10.2210507321855));
#1057=CARTESIAN_POINT('Ctrl Pts',(100.371491846871,-37.8539517848011,-10.2211608528838));
#1058=CARTESIAN_POINT('Ctrl Pts',(99.3686125492088,-35.8455023184335,-10.375291056666));
#1059=CARTESIAN_POINT('Ctrl Pts',(96.4068480211958,-31.295318450098,-10.8744586797235));
#1060=CARTESIAN_POINT('Ctrl Pts',(89.7321526751016,-25.4602822808952,-12.079223406698));
#1061=CARTESIAN_POINT('Ctrl Pts',(80.2134400357845,-21.6169367116332,-13.73426815871));
#1062=CARTESIAN_POINT('Ctrl Pts',(69.2101673020649,-21.2795558271969,-15.4869791359741));
#1063=CARTESIAN_POINT('Ctrl Pts',(57.9274319904036,-25.4254952089802,-17.1160986325617));
#1064=CARTESIAN_POINT('Ctrl Pts',(48.5091514669081,-34.575847418134,-18.3896108062645));
#1065=CARTESIAN_POINT('Ctrl Pts',(45.3319565056514,-43.4548783169917,-18.871437497523));
#1066=CARTESIAN_POINT('Ctrl Pts',(44.8743709841128,-48.0914810913576,-18.9967900427656));
#1067=CARTESIAN_POINT('Origin',(74.0991373841964,-50.9756682054571,-30.));
#1068=CARTESIAN_POINT('',(100.37132756844,-37.8540246585722,-30.));
#1069=CARTESIAN_POINT('Ctrl Pts',(95.3184478747224,-38.5555233606893,-30.));
#1070=CARTESIAN_POINT('Ctrl Pts',(95.3184478747224,-38.5555233606893,-8.));
#1071=CARTESIAN_POINT('Ctrl Pts',(100.000001490116,-42.0000006258488,-30.));
#1072=CARTESIAN_POINT('Ctrl Pts',(100.000001490116,-42.0000006258488,-8.));
#1073=CARTESIAN_POINT('Ctrl Pts',(100.37132756844,-37.8540246585722,-30.));
#1074=CARTESIAN_POINT('Ctrl Pts',(100.37132756844,-37.8540246585722,-8.));
#1075=UNCERTAINTY_MEASURE_WITH_UNIT(LENGTH_MEASURE(0.01),#1079,
'DISTANCE_ACCURACY_VALUE',
'Maximum model space distance between geometric entities at asserted c
onnectivities');
#1076=UNCERTAINTY_MEASURE_WITH_UNIT(LENGTH_MEASURE(0.01),#1079,
'DISTANCE_ACCURACY_VALUE',
'Maximum model space distance between geometric entities at asserted c
onnectivities');
#1077=(
GEOMETRIC_REPRESENTATION_CONTEXT(3)
GLOBAL_UNCERTAINTY_ASSIGNED_CONTEXT((#1075))
GLOBAL_UNIT_ASSIGNED_CONTEXT((#1079,#1081,#1082))
REPRESENTATION_CONTEXT('','3D')
);
#1078=(
GEOMETRIC_REPRESENTATION_CONTEXT(3)
GLOBAL_UNCERTAINTY_ASSIGNED_CONTEXT((#1076))
GLOBAL_UNIT_ASSIGNED_CONTEXT((#1079,#1081,#1082))
REPRESENTATION_CONTEXT('','3D')
);
#1079=(
LENGTH_UNIT()
NAMED_UNIT(*)
SI_UNIT(.MILLI.,.METRE.)
);
#1080=(
LENGTH_UNIT()
NAMED_UNIT(*)
SI_UNIT($,.METRE.)
);
#1081=(
NAMED_UNIT(*)
PLANE_ANGLE_UNIT()
SI_UNIT($,.RADIAN.)
);
#1082=(
NAMED_UNIT(*)
SI_UNIT($,.STERADIAN.)
SOLID_ANGLE_UNIT()
);
#1083=SHAPE_DEFINITION_REPRESENTATION(#1084,#1085);
#1084=PRODUCT_DEFINITION_SHAPE('',$,#1087);
#1085=SHAPE_REPRESENTATION('',(#239),#1077);
#1086=PRODUCT_DEFINITION_CONTEXT('part definition',#1091,'design');
#1087=PRODUCT_DEFINITION('2026-08-18-11-45-46-680','Mimo Horns',#1088,#1086);
#1088=PRODUCT_DEFINITION_FORMATION('',$,#1093);
#1089=PRODUCT_RELATED_PRODUCT_CATEGORY('Mimo Horns','Mimo Horns',(#1093));
#1090=APPLICATION_PROTOCOL_DEFINITION('international standard',
'automotive_design',2009,#1091);
#1091=APPLICATION_CONTEXT(
'Core Data for Automotive Mechanical Design Process');
#1092=PRODUCT_CONTEXT('part definition',#1091,'mechanical');
#1093=PRODUCT('2026-08-18-11-45-46-680','Mimo Horns',$,(#1092));
#1094=PRESENTATION_STYLE_ASSIGNMENT((#1095));
#1095=SURFACE_STYLE_USAGE(.BOTH.,#1096);
#1096=SURFACE_SIDE_STYLE('',(#1097));
#1097=SURFACE_STYLE_FILL_AREA(#1098);
#1098=FILL_AREA_STYLE('Steel - Satin',(#1099));
#1099=FILL_AREA_STYLE_COLOUR('Steel - Satin',#1100);
#1100=COLOUR_RGB('Steel - Satin',0.627450980392157,0.627450980392157,0.627450980392157);
ENDSEC;
END-ISO-10303-21;
