ISO-10303-21;
HEADER;
/* Generated by software containing ST-Developer
 * from STEP Tools, Inc. (www.steptools.com) 
 */

FILE_DESCRIPTION(
/* description */ (''),
/* implementation_level */ '2;1');

FILE_NAME(
/* name */ 'Mimo Top simple.step',
/* time_stamp */ '2026-08-19T15:44:54+05:00',
/* author */ (''),
/* organization */ (''),
/* preprocessor_version */ 'ST-DEVELOPER v20.1',
/* originating_system */ 'Autodesk Translation Framework v15.8.0.0',
/* authorisation */ '');

FILE_SCHEMA (('AUTOMOTIVE_DESIGN { 1 0 10303 214 3 1 1 }'));
ENDSEC;

DATA;
#10=MECHANICAL_DESIGN_GEOMETRIC_PRESENTATION_REPRESENTATION('',(#13),#935);
#11=SHAPE_REPRESENTATION_RELATIONSHIP('SRR','None',#942,#12);
#12=ADVANCED_BREP_SHAPE_REPRESENTATION('',(#14),#934);
#13=STYLED_ITEM('',(#951),#14);
#14=MANIFOLD_SOLID_BREP('Body1',#503);
#15=(
BOUNDED_SURFACE()
B_SPLINE_SURFACE(2,2,((#853,#854,#855),(#856,#857,#858),(#859,#860,#861)),
 .UNSPECIFIED.,.F.,.F.,.F.)
B_SPLINE_SURFACE_WITH_KNOTS((3,3),(3,3),(0.,1.5707963267949),(1.57079632679489,
3.1415926535898),.UNSPECIFIED.)
GEOMETRIC_REPRESENTATION_ITEM()
RATIONAL_B_SPLINE_SURFACE(((1.,0.707106781186545,1.),(0.707106781186548,
0.499999999999998,0.707106781186548),(1.,0.707106781186545,1.)))
REPRESENTATION_ITEM('')
SURFACE()
);
#16=(
BOUNDED_SURFACE()
B_SPLINE_SURFACE(2,2,((#863,#864,#865),(#866,#867,#868),(#869,#870,#871)),
 .UNSPECIFIED.,.F.,.F.,.F.)
B_SPLINE_SURFACE_WITH_KNOTS((3,3),(3,3),(0.,1.5707963267949),(-3.14159265358979,
-1.5707963267949),.UNSPECIFIED.)
GEOMETRIC_REPRESENTATION_ITEM()
RATIONAL_B_SPLINE_SURFACE(((1.,0.707106781186548,1.),(0.707106781186553,
0.500000000000004,0.707106781186553),(1.,0.707106781186548,1.)))
REPRESENTATION_ITEM('')
SURFACE()
);
#17=(
BOUNDED_SURFACE()
B_SPLINE_SURFACE(2,2,((#879,#880,#881),(#882,#883,#884),(#885,#886,#887)),
 .UNSPECIFIED.,.F.,.F.,.F.)
B_SPLINE_SURFACE_WITH_KNOTS((3,3),(3,3),(0.,1.5707963267949),(-1.5707963267949,
0.),.UNSPECIFIED.)
GEOMETRIC_REPRESENTATION_ITEM()
RATIONAL_B_SPLINE_SURFACE(((1.,0.707106781186548,1.),(0.707106781186548,
0.5,0.707106781186548),(1.,0.707106781186548,1.)))
REPRESENTATION_ITEM('')
SURFACE()
);
#18=(
BOUNDED_SURFACE()
B_SPLINE_SURFACE(2,2,((#889,#890,#891),(#892,#893,#894),(#895,#896,#897)),
 .UNSPECIFIED.,.F.,.F.,.F.)
B_SPLINE_SURFACE_WITH_KNOTS((3,3),(3,3),(0.,1.5707963267949),(0.,1.5707963267949),
 .UNSPECIFIED.)
GEOMETRIC_REPRESENTATION_ITEM()
RATIONAL_B_SPLINE_SURFACE(((1.,0.707106781186547,1.),(0.707106781186547,
0.499999999999999,0.707106781186547),(1.,0.707106781186547,1.)))
REPRESENTATION_ITEM('')
SURFACE()
);
#19=B_SPLINE_CURVE_WITH_KNOTS('',3,(#761,#762,#763,#764,#765,#766,#767,
#768,#769,#770,#771,#772,#773,#774,#775,#776,#777,#778),.UNSPECIFIED.,.F.,
 .F.,(4,2,2,2,2,2,2,2,4),(0.354052508034104,0.380417802829606,0.455799368483613,
0.531515950180874,0.607232531878136,0.682949113575397,0.758665695272659,
0.834047260926666,0.860412555722167),.UNSPECIFIED.);
#20=B_SPLINE_CURVE_WITH_KNOTS('',3,(#786,#787,#788,#789,#790,#791,#792,
#793,#794,#795,#796,#797,#798,#799,#800,#801,#802,#803),.UNSPECIFIED.,.F.,
 .F.,(4,2,2,2,2,2,2,2,4),(0.354052508034124,0.380417802829605,0.455799368483611,
0.531515950180873,0.607232531878135,0.682949113575397,0.758665695272659,
0.834047260926665,0.860412555722141),.UNSPECIFIED.);
#21=CYLINDRICAL_SURFACE('',#528,2.);
#22=CYLINDRICAL_SURFACE('',#531,2.);
#23=CYLINDRICAL_SURFACE('',#534,7.);
#24=CYLINDRICAL_SURFACE('',#537,7.);
#25=CYLINDRICAL_SURFACE('',#540,1.1);
#26=CYLINDRICAL_SURFACE('',#542,1.1);
#27=CYLINDRICAL_SURFACE('',#549,7.);
#28=CYLINDRICAL_SURFACE('',#555,7.);
#29=CYLINDRICAL_SURFACE('',#559,12.);
#30=CYLINDRICAL_SURFACE('',#562,12.);
#31=CYLINDRICAL_SURFACE('',#565,12.);
#32=CYLINDRICAL_SURFACE('',#568,12.);
#33=FACE_BOUND('',#103,.T.);
#34=FACE_BOUND('',#105,.T.);
#35=FACE_BOUND('',#128,.T.);
#36=FACE_BOUND('',#129,.T.);
#37=FACE_BOUND('',#130,.T.);
#38=CIRCLE('',#523,2.);
#39=CIRCLE('',#524,1.1);
#40=CIRCLE('',#526,2.);
#41=CIRCLE('',#527,1.1);
#42=CIRCLE('',#529,2.);
#43=CIRCLE('',#530,2.);
#44=CIRCLE('',#532,2.);
#45=CIRCLE('',#533,2.);
#46=CIRCLE('',#535,7.);
#47=CIRCLE('',#536,7.);
#48=CIRCLE('',#538,7.00000000000001);
#49=CIRCLE('',#539,6.99999999999999);
#50=CIRCLE('',#541,1.1);
#51=CIRCLE('',#543,1.1);
#52=CIRCLE('',#545,4.99999999999998);
#53=CIRCLE('',#546,4.99999999999999);
#54=CIRCLE('',#547,5.00000000000003);
#55=CIRCLE('',#548,5.);
#56=CIRCLE('',#550,7.);
#57=CIRCLE('',#551,6.99999999999998);
#58=CIRCLE('',#552,12.);
#59=CIRCLE('',#553,7.);
#60=CIRCLE('',#554,12.);
#61=CIRCLE('',#556,7.);
#62=CIRCLE('',#557,12.);
#63=CIRCLE('',#558,12.);
#64=CIRCLE('',#560,12.);
#65=CIRCLE('',#563,12.);
#66=CIRCLE('',#566,12.);
#67=CIRCLE('',#569,12.);
#68=FACE_OUTER_BOUND('',#97,.T.);
#69=FACE_OUTER_BOUND('',#98,.T.);
#70=FACE_OUTER_BOUND('',#99,.T.);
#71=FACE_OUTER_BOUND('',#100,.T.);
#72=FACE_OUTER_BOUND('',#101,.T.);
#73=FACE_OUTER_BOUND('',#102,.T.);
#74=FACE_OUTER_BOUND('',#104,.T.);
#75=FACE_OUTER_BOUND('',#106,.T.);
#76=FACE_OUTER_BOUND('',#107,.T.);
#77=FACE_OUTER_BOUND('',#108,.T.);
#78=FACE_OUTER_BOUND('',#109,.T.);
#79=FACE_OUTER_BOUND('',#110,.T.);
#80=FACE_OUTER_BOUND('',#111,.T.);
#81=FACE_OUTER_BOUND('',#112,.T.);
#82=FACE_OUTER_BOUND('',#113,.T.);
#83=FACE_OUTER_BOUND('',#114,.T.);
#84=FACE_OUTER_BOUND('',#115,.T.);
#85=FACE_OUTER_BOUND('',#116,.T.);
#86=FACE_OUTER_BOUND('',#117,.T.);
#87=FACE_OUTER_BOUND('',#118,.T.);
#88=FACE_OUTER_BOUND('',#119,.T.);
#89=FACE_OUTER_BOUND('',#120,.T.);
#90=FACE_OUTER_BOUND('',#121,.T.);
#91=FACE_OUTER_BOUND('',#122,.T.);
#92=FACE_OUTER_BOUND('',#123,.T.);
#93=FACE_OUTER_BOUND('',#124,.T.);
#94=FACE_OUTER_BOUND('',#125,.T.);
#95=FACE_OUTER_BOUND('',#126,.T.);
#96=FACE_OUTER_BOUND('',#127,.T.);
#97=EDGE_LOOP('',(#321,#322,#323,#324));
#98=EDGE_LOOP('',(#325,#326,#327,#328));
#99=EDGE_LOOP('',(#329,#330,#331,#332));
#100=EDGE_LOOP('',(#333,#334,#335,#336));
#101=EDGE_LOOP('',(#337,#338,#339,#340));
#102=EDGE_LOOP('',(#341));
#103=EDGE_LOOP('',(#342));
#104=EDGE_LOOP('',(#343));
#105=EDGE_LOOP('',(#344));
#106=EDGE_LOOP('',(#345,#346,#347,#348,#349,#350));
#107=EDGE_LOOP('',(#351,#352,#353,#354,#355,#356));
#108=EDGE_LOOP('',(#357,#358,#359,#360,#361,#362));
#109=EDGE_LOOP('',(#363,#364,#365,#366,#367,#368));
#110=EDGE_LOOP('',(#369,#370,#371,#372));
#111=EDGE_LOOP('',(#373,#374,#375,#376));
#112=EDGE_LOOP('',(#377,#378,#379,#380,#381,#382,#383,#384,#385,#386,#387,
#388,#389,#390));
#113=EDGE_LOOP('',(#391,#392,#393,#394));
#114=EDGE_LOOP('',(#395,#396,#397,#398));
#115=EDGE_LOOP('',(#399,#400,#401,#402));
#116=EDGE_LOOP('',(#403,#404,#405,#406));
#117=EDGE_LOOP('',(#407,#408,#409,#410));
#118=EDGE_LOOP('',(#411,#412,#413,#414));
#119=EDGE_LOOP('',(#415,#416,#417,#418));
#120=EDGE_LOOP('',(#419,#420,#421,#422));
#121=EDGE_LOOP('',(#423,#424,#425,#426));
#122=EDGE_LOOP('',(#427,#428,#429,#430));
#123=EDGE_LOOP('',(#431,#432,#433,#434));
#124=EDGE_LOOP('',(#435,#436,#437,#438));
#125=EDGE_LOOP('',(#439,#440,#441,#442));
#126=EDGE_LOOP('',(#443,#444,#445,#446));
#127=EDGE_LOOP('',(#447,#448,#449,#450,#451,#452,#453,#454));
#128=EDGE_LOOP('',(#455,#456,#457,#458));
#129=EDGE_LOOP('',(#459));
#130=EDGE_LOOP('',(#460));
#131=LINE('',#726,#169);
#132=LINE('',#728,#170);
#133=LINE('',#730,#171);
#134=LINE('',#731,#172);
#135=LINE('',#734,#173);
#136=LINE('',#736,#174);
#137=LINE('',#737,#175);
#138=LINE('',#740,#176);
#139=LINE('',#742,#177);
#140=LINE('',#743,#178);
#141=LINE('',#745,#179);
#142=LINE('',#746,#180);
#143=LINE('',#781,#181);
#144=LINE('',#806,#182);
#145=LINE('',#810,#183);
#146=LINE('',#814,#184);
#147=LINE('',#817,#185);
#148=LINE('',#820,#186);
#149=LINE('',#824,#187);
#150=LINE('',#827,#188);
#151=LINE('',#830,#189);
#152=LINE('',#834,#190);
#153=LINE('',#840,#191);
#154=LINE('',#845,#192);
#155=LINE('',#851,#193);
#156=LINE('',#878,#194);
#157=LINE('',#901,#195);
#158=LINE('',#904,#196);
#159=LINE('',#907,#197);
#160=LINE('',#908,#198);
#161=LINE('',#911,#199);
#162=LINE('',#915,#200);
#163=LINE('',#916,#201);
#164=LINE('',#919,#202);
#165=LINE('',#922,#203);
#166=LINE('',#925,#204);
#167=LINE('',#926,#205);
#168=LINE('',#930,#206);
#169=VECTOR('',#576,10.);
#170=VECTOR('',#577,10.);
#171=VECTOR('',#578,10.);
#172=VECTOR('',#579,10.);
#173=VECTOR('',#582,10.);
#174=VECTOR('',#583,10.);
#175=VECTOR('',#584,10.);
#176=VECTOR('',#587,10.);
#177=VECTOR('',#588,10.);
#178=VECTOR('',#589,10.);
#179=VECTOR('',#592,10.);
#180=VECTOR('',#593,10.);
#181=VECTOR('',#612,2.);
#182=VECTOR('',#619,2.);
#183=VECTOR('',#624,10.);
#184=VECTOR('',#627,10.);
#185=VECTOR('',#630,10.);
#186=VECTOR('',#633,10.);
#187=VECTOR('',#636,10.);
#188=VECTOR('',#639,10.);
#189=VECTOR('',#642,1.1);
#190=VECTOR('',#647,1.1);
#191=VECTOR('',#654,10.);
#192=VECTOR('',#659,10.);
#193=VECTOR('',#666,10.);
#194=VECTOR('',#679,10.);
#195=VECTOR('',#686,10.);
#196=VECTOR('',#689,10.);
#197=VECTOR('',#692,10.);
#198=VECTOR('',#693,10.);
#199=VECTOR('',#696,10.);
#200=VECTOR('',#701,10.);
#201=VECTOR('',#702,10.);
#202=VECTOR('',#705,10.);
#203=VECTOR('',#708,10.);
#204=VECTOR('',#711,10.);
#205=VECTOR('',#712,10.);
#206=VECTOR('',#719,10.);
#207=VERTEX_POINT('',#724);
#208=VERTEX_POINT('',#725);
#209=VERTEX_POINT('',#727);
#210=VERTEX_POINT('',#729);
#211=VERTEX_POINT('',#733);
#212=VERTEX_POINT('',#735);
#213=VERTEX_POINT('',#739);
#214=VERTEX_POINT('',#741);
#215=VERTEX_POINT('',#749);
#216=VERTEX_POINT('',#751);
#217=VERTEX_POINT('',#754);
#218=VERTEX_POINT('',#756);
#219=VERTEX_POINT('',#759);
#220=VERTEX_POINT('',#760);
#221=VERTEX_POINT('',#779);
#222=VERTEX_POINT('',#784);
#223=VERTEX_POINT('',#785);
#224=VERTEX_POINT('',#804);
#225=VERTEX_POINT('',#809);
#226=VERTEX_POINT('',#811);
#227=VERTEX_POINT('',#813);
#228=VERTEX_POINT('',#815);
#229=VERTEX_POINT('',#819);
#230=VERTEX_POINT('',#821);
#231=VERTEX_POINT('',#823);
#232=VERTEX_POINT('',#825);
#233=VERTEX_POINT('',#829);
#234=VERTEX_POINT('',#833);
#235=VERTEX_POINT('',#837);
#236=VERTEX_POINT('',#839);
#237=VERTEX_POINT('',#842);
#238=VERTEX_POINT('',#844);
#239=VERTEX_POINT('',#848);
#240=VERTEX_POINT('',#850);
#241=VERTEX_POINT('',#872);
#242=VERTEX_POINT('',#876);
#243=VERTEX_POINT('',#900);
#244=VERTEX_POINT('',#902);
#245=VERTEX_POINT('',#906);
#246=VERTEX_POINT('',#910);
#247=VERTEX_POINT('',#914);
#248=VERTEX_POINT('',#918);
#249=VERTEX_POINT('',#920);
#250=VERTEX_POINT('',#924);
#251=EDGE_CURVE('',#207,#208,#131,.T.);
#252=EDGE_CURVE('',#207,#209,#132,.T.);
#253=EDGE_CURVE('',#209,#210,#133,.T.);
#254=EDGE_CURVE('',#208,#210,#134,.T.);
#255=EDGE_CURVE('',#211,#207,#135,.T.);
#256=EDGE_CURVE('',#211,#212,#136,.T.);
#257=EDGE_CURVE('',#212,#209,#137,.T.);
#258=EDGE_CURVE('',#213,#211,#138,.T.);
#259=EDGE_CURVE('',#213,#214,#139,.T.);
#260=EDGE_CURVE('',#214,#212,#140,.T.);
#261=EDGE_CURVE('',#208,#213,#141,.T.);
#262=EDGE_CURVE('',#210,#214,#142,.T.);
#263=EDGE_CURVE('',#215,#215,#38,.T.);
#264=EDGE_CURVE('',#216,#216,#39,.T.);
#265=EDGE_CURVE('',#217,#217,#40,.T.);
#266=EDGE_CURVE('',#218,#218,#41,.T.);
#267=EDGE_CURVE('',#219,#220,#19,.T.);
#268=EDGE_CURVE('',#221,#219,#42,.T.);
#269=EDGE_CURVE('',#221,#215,#143,.T.);
#270=EDGE_CURVE('',#220,#221,#43,.T.);
#271=EDGE_CURVE('',#222,#223,#20,.T.);
#272=EDGE_CURVE('',#224,#222,#44,.T.);
#273=EDGE_CURVE('',#224,#217,#144,.T.);
#274=EDGE_CURVE('',#223,#224,#45,.T.);
#275=EDGE_CURVE('',#220,#225,#145,.T.);
#276=EDGE_CURVE('',#226,#225,#46,.T.);
#277=EDGE_CURVE('',#226,#227,#146,.T.);
#278=EDGE_CURVE('',#227,#228,#47,.T.);
#279=EDGE_CURVE('',#228,#219,#147,.T.);
#280=EDGE_CURVE('',#223,#229,#148,.T.);
#281=EDGE_CURVE('',#230,#229,#48,.T.);
#282=EDGE_CURVE('',#230,#231,#149,.T.);
#283=EDGE_CURVE('',#231,#232,#49,.T.);
#284=EDGE_CURVE('',#232,#222,#150,.T.);
#285=EDGE_CURVE('',#218,#233,#151,.T.);
#286=EDGE_CURVE('',#233,#233,#50,.T.);
#287=EDGE_CURVE('',#216,#234,#152,.T.);
#288=EDGE_CURVE('',#234,#234,#51,.T.);
#289=EDGE_CURVE('',#235,#228,#52,.T.);
#290=EDGE_CURVE('',#236,#235,#153,.T.);
#291=EDGE_CURVE('',#229,#236,#53,.T.);
#292=EDGE_CURVE('',#237,#232,#54,.T.);
#293=EDGE_CURVE('',#238,#237,#154,.T.);
#294=EDGE_CURVE('',#225,#238,#55,.T.);
#295=EDGE_CURVE('',#235,#239,#56,.T.);
#296=EDGE_CURVE('',#239,#240,#155,.T.);
#297=EDGE_CURVE('',#240,#236,#57,.T.);
#298=EDGE_CURVE('',#240,#230,#58,.T.);
#299=EDGE_CURVE('',#241,#237,#59,.T.);
#300=EDGE_CURVE('',#231,#241,#60,.T.);
#301=EDGE_CURVE('',#242,#238,#61,.T.);
#302=EDGE_CURVE('',#241,#242,#156,.T.);
#303=EDGE_CURVE('',#242,#226,#62,.T.);
#304=EDGE_CURVE('',#227,#239,#63,.T.);
#305=EDGE_CURVE('',#231,#243,#157,.T.);
#306=EDGE_CURVE('',#244,#243,#64,.T.);
#307=EDGE_CURVE('',#241,#244,#158,.T.);
#308=EDGE_CURVE('',#230,#245,#159,.T.);
#309=EDGE_CURVE('',#243,#245,#160,.T.);
#310=EDGE_CURVE('',#240,#246,#161,.T.);
#311=EDGE_CURVE('',#245,#246,#65,.T.);
#312=EDGE_CURVE('',#239,#247,#162,.T.);
#313=EDGE_CURVE('',#246,#247,#163,.T.);
#314=EDGE_CURVE('',#242,#248,#164,.T.);
#315=EDGE_CURVE('',#249,#248,#66,.T.);
#316=EDGE_CURVE('',#226,#249,#165,.T.);
#317=EDGE_CURVE('',#250,#249,#166,.T.);
#318=EDGE_CURVE('',#227,#250,#167,.T.);
#319=EDGE_CURVE('',#247,#250,#67,.T.);
#320=EDGE_CURVE('',#248,#244,#168,.T.);
#321=ORIENTED_EDGE('',*,*,#251,.F.);
#322=ORIENTED_EDGE('',*,*,#252,.T.);
#323=ORIENTED_EDGE('',*,*,#253,.T.);
#324=ORIENTED_EDGE('',*,*,#254,.F.);
#325=ORIENTED_EDGE('',*,*,#255,.F.);
#326=ORIENTED_EDGE('',*,*,#256,.T.);
#327=ORIENTED_EDGE('',*,*,#257,.T.);
#328=ORIENTED_EDGE('',*,*,#252,.F.);
#329=ORIENTED_EDGE('',*,*,#258,.F.);
#330=ORIENTED_EDGE('',*,*,#259,.T.);
#331=ORIENTED_EDGE('',*,*,#260,.T.);
#332=ORIENTED_EDGE('',*,*,#256,.F.);
#333=ORIENTED_EDGE('',*,*,#261,.F.);
#334=ORIENTED_EDGE('',*,*,#254,.T.);
#335=ORIENTED_EDGE('',*,*,#262,.T.);
#336=ORIENTED_EDGE('',*,*,#259,.F.);
#337=ORIENTED_EDGE('',*,*,#262,.F.);
#338=ORIENTED_EDGE('',*,*,#253,.F.);
#339=ORIENTED_EDGE('',*,*,#257,.F.);
#340=ORIENTED_EDGE('',*,*,#260,.F.);
#341=ORIENTED_EDGE('',*,*,#263,.F.);
#342=ORIENTED_EDGE('',*,*,#264,.T.);
#343=ORIENTED_EDGE('',*,*,#265,.F.);
#344=ORIENTED_EDGE('',*,*,#266,.T.);
#345=ORIENTED_EDGE('',*,*,#267,.F.);
#346=ORIENTED_EDGE('',*,*,#268,.F.);
#347=ORIENTED_EDGE('',*,*,#269,.T.);
#348=ORIENTED_EDGE('',*,*,#263,.T.);
#349=ORIENTED_EDGE('',*,*,#269,.F.);
#350=ORIENTED_EDGE('',*,*,#270,.F.);
#351=ORIENTED_EDGE('',*,*,#271,.F.);
#352=ORIENTED_EDGE('',*,*,#272,.F.);
#353=ORIENTED_EDGE('',*,*,#273,.T.);
#354=ORIENTED_EDGE('',*,*,#265,.T.);
#355=ORIENTED_EDGE('',*,*,#273,.F.);
#356=ORIENTED_EDGE('',*,*,#274,.F.);
#357=ORIENTED_EDGE('',*,*,#267,.T.);
#358=ORIENTED_EDGE('',*,*,#275,.T.);
#359=ORIENTED_EDGE('',*,*,#276,.F.);
#360=ORIENTED_EDGE('',*,*,#277,.T.);
#361=ORIENTED_EDGE('',*,*,#278,.T.);
#362=ORIENTED_EDGE('',*,*,#279,.T.);
#363=ORIENTED_EDGE('',*,*,#271,.T.);
#364=ORIENTED_EDGE('',*,*,#280,.T.);
#365=ORIENTED_EDGE('',*,*,#281,.F.);
#366=ORIENTED_EDGE('',*,*,#282,.T.);
#367=ORIENTED_EDGE('',*,*,#283,.T.);
#368=ORIENTED_EDGE('',*,*,#284,.T.);
#369=ORIENTED_EDGE('',*,*,#266,.F.);
#370=ORIENTED_EDGE('',*,*,#285,.T.);
#371=ORIENTED_EDGE('',*,*,#286,.F.);
#372=ORIENTED_EDGE('',*,*,#285,.F.);
#373=ORIENTED_EDGE('',*,*,#264,.F.);
#374=ORIENTED_EDGE('',*,*,#287,.T.);
#375=ORIENTED_EDGE('',*,*,#288,.F.);
#376=ORIENTED_EDGE('',*,*,#287,.F.);
#377=ORIENTED_EDGE('',*,*,#270,.T.);
#378=ORIENTED_EDGE('',*,*,#268,.T.);
#379=ORIENTED_EDGE('',*,*,#279,.F.);
#380=ORIENTED_EDGE('',*,*,#289,.F.);
#381=ORIENTED_EDGE('',*,*,#290,.F.);
#382=ORIENTED_EDGE('',*,*,#291,.F.);
#383=ORIENTED_EDGE('',*,*,#280,.F.);
#384=ORIENTED_EDGE('',*,*,#274,.T.);
#385=ORIENTED_EDGE('',*,*,#272,.T.);
#386=ORIENTED_EDGE('',*,*,#284,.F.);
#387=ORIENTED_EDGE('',*,*,#292,.F.);
#388=ORIENTED_EDGE('',*,*,#293,.F.);
#389=ORIENTED_EDGE('',*,*,#294,.F.);
#390=ORIENTED_EDGE('',*,*,#275,.F.);
#391=ORIENTED_EDGE('',*,*,#295,.T.);
#392=ORIENTED_EDGE('',*,*,#296,.T.);
#393=ORIENTED_EDGE('',*,*,#297,.T.);
#394=ORIENTED_EDGE('',*,*,#290,.T.);
#395=ORIENTED_EDGE('',*,*,#281,.T.);
#396=ORIENTED_EDGE('',*,*,#291,.T.);
#397=ORIENTED_EDGE('',*,*,#297,.F.);
#398=ORIENTED_EDGE('',*,*,#298,.T.);
#399=ORIENTED_EDGE('',*,*,#299,.T.);
#400=ORIENTED_EDGE('',*,*,#292,.T.);
#401=ORIENTED_EDGE('',*,*,#283,.F.);
#402=ORIENTED_EDGE('',*,*,#300,.T.);
#403=ORIENTED_EDGE('',*,*,#301,.T.);
#404=ORIENTED_EDGE('',*,*,#293,.T.);
#405=ORIENTED_EDGE('',*,*,#299,.F.);
#406=ORIENTED_EDGE('',*,*,#302,.T.);
#407=ORIENTED_EDGE('',*,*,#276,.T.);
#408=ORIENTED_EDGE('',*,*,#294,.T.);
#409=ORIENTED_EDGE('',*,*,#301,.F.);
#410=ORIENTED_EDGE('',*,*,#303,.T.);
#411=ORIENTED_EDGE('',*,*,#295,.F.);
#412=ORIENTED_EDGE('',*,*,#289,.T.);
#413=ORIENTED_EDGE('',*,*,#278,.F.);
#414=ORIENTED_EDGE('',*,*,#304,.T.);
#415=ORIENTED_EDGE('',*,*,#300,.F.);
#416=ORIENTED_EDGE('',*,*,#305,.T.);
#417=ORIENTED_EDGE('',*,*,#306,.F.);
#418=ORIENTED_EDGE('',*,*,#307,.F.);
#419=ORIENTED_EDGE('',*,*,#282,.F.);
#420=ORIENTED_EDGE('',*,*,#308,.T.);
#421=ORIENTED_EDGE('',*,*,#309,.F.);
#422=ORIENTED_EDGE('',*,*,#305,.F.);
#423=ORIENTED_EDGE('',*,*,#298,.F.);
#424=ORIENTED_EDGE('',*,*,#310,.T.);
#425=ORIENTED_EDGE('',*,*,#311,.F.);
#426=ORIENTED_EDGE('',*,*,#308,.F.);
#427=ORIENTED_EDGE('',*,*,#296,.F.);
#428=ORIENTED_EDGE('',*,*,#312,.T.);
#429=ORIENTED_EDGE('',*,*,#313,.F.);
#430=ORIENTED_EDGE('',*,*,#310,.F.);
#431=ORIENTED_EDGE('',*,*,#303,.F.);
#432=ORIENTED_EDGE('',*,*,#314,.T.);
#433=ORIENTED_EDGE('',*,*,#315,.F.);
#434=ORIENTED_EDGE('',*,*,#316,.F.);
#435=ORIENTED_EDGE('',*,*,#277,.F.);
#436=ORIENTED_EDGE('',*,*,#316,.T.);
#437=ORIENTED_EDGE('',*,*,#317,.F.);
#438=ORIENTED_EDGE('',*,*,#318,.F.);
#439=ORIENTED_EDGE('',*,*,#304,.F.);
#440=ORIENTED_EDGE('',*,*,#318,.T.);
#441=ORIENTED_EDGE('',*,*,#319,.F.);
#442=ORIENTED_EDGE('',*,*,#312,.F.);
#443=ORIENTED_EDGE('',*,*,#302,.F.);
#444=ORIENTED_EDGE('',*,*,#307,.T.);
#445=ORIENTED_EDGE('',*,*,#320,.F.);
#446=ORIENTED_EDGE('',*,*,#314,.F.);
#447=ORIENTED_EDGE('',*,*,#320,.T.);
#448=ORIENTED_EDGE('',*,*,#306,.T.);
#449=ORIENTED_EDGE('',*,*,#309,.T.);
#450=ORIENTED_EDGE('',*,*,#311,.T.);
#451=ORIENTED_EDGE('',*,*,#313,.T.);
#452=ORIENTED_EDGE('',*,*,#319,.T.);
#453=ORIENTED_EDGE('',*,*,#317,.T.);
#454=ORIENTED_EDGE('',*,*,#315,.T.);
#455=ORIENTED_EDGE('',*,*,#251,.T.);
#456=ORIENTED_EDGE('',*,*,#261,.T.);
#457=ORIENTED_EDGE('',*,*,#258,.T.);
#458=ORIENTED_EDGE('',*,*,#255,.T.);
#459=ORIENTED_EDGE('',*,*,#286,.T.);
#460=ORIENTED_EDGE('',*,*,#288,.T.);
#461=PLANE('',#517);
#462=PLANE('',#518);
#463=PLANE('',#519);
#464=PLANE('',#520);
#465=PLANE('',#521);
#466=PLANE('',#522);
#467=PLANE('',#525);
#468=PLANE('',#544);
#469=PLANE('',#561);
#470=PLANE('',#564);
#471=PLANE('',#567);
#472=PLANE('',#570);
#473=PLANE('',#571);
#474=ADVANCED_FACE('',(#68),#461,.F.);
#475=ADVANCED_FACE('',(#69),#462,.F.);
#476=ADVANCED_FACE('',(#70),#463,.F.);
#477=ADVANCED_FACE('',(#71),#464,.F.);
#478=ADVANCED_FACE('',(#72),#465,.F.);
#479=ADVANCED_FACE('',(#73,#33),#466,.F.);
#480=ADVANCED_FACE('',(#74,#34),#467,.F.);
#481=ADVANCED_FACE('',(#75),#21,.F.);
#482=ADVANCED_FACE('',(#76),#22,.F.);
#483=ADVANCED_FACE('',(#77),#23,.T.);
#484=ADVANCED_FACE('',(#78),#24,.T.);
#485=ADVANCED_FACE('',(#79),#25,.F.);
#486=ADVANCED_FACE('',(#80),#26,.F.);
#487=ADVANCED_FACE('',(#81),#468,.F.);
#488=ADVANCED_FACE('',(#82),#27,.T.);
#489=ADVANCED_FACE('',(#83),#15,.F.);
#490=ADVANCED_FACE('',(#84),#16,.F.);
#491=ADVANCED_FACE('',(#85),#28,.T.);
#492=ADVANCED_FACE('',(#86),#17,.F.);
#493=ADVANCED_FACE('',(#87),#18,.F.);
#494=ADVANCED_FACE('',(#88),#29,.T.);
#495=ADVANCED_FACE('',(#89),#469,.T.);
#496=ADVANCED_FACE('',(#90),#30,.T.);
#497=ADVANCED_FACE('',(#91),#470,.T.);
#498=ADVANCED_FACE('',(#92),#31,.T.);
#499=ADVANCED_FACE('',(#93),#471,.T.);
#500=ADVANCED_FACE('',(#94),#32,.T.);
#501=ADVANCED_FACE('',(#95),#472,.T.);
#502=ADVANCED_FACE('',(#96,#35,#36,#37),#473,.T.);
#503=CLOSED_SHELL('',(#474,#475,#476,#477,#478,#479,#480,#481,#482,#483,
#484,#485,#486,#487,#488,#489,#490,#491,#492,#493,#494,#495,#496,#497,#498,
#499,#500,#501,#502));
#504=DERIVED_UNIT_ELEMENT(#506,1.);
#505=DERIVED_UNIT_ELEMENT(#937,-3.);
#506=(
MASS_UNIT()
NAMED_UNIT(*)
SI_UNIT(.KILO.,.GRAM.)
);
#507=DERIVED_UNIT((#504,#505));
#508=MEASURE_REPRESENTATION_ITEM('density measure',
POSITIVE_RATIO_MEASURE(7850.),#507);
#509=PROPERTY_DEFINITION_REPRESENTATION(#514,#511);
#510=PROPERTY_DEFINITION_REPRESENTATION(#515,#512);
#511=REPRESENTATION('material name',(#513),#934);
#512=REPRESENTATION('density',(#508),#934);
#513=DESCRIPTIVE_REPRESENTATION_ITEM('Steel','Steel');
#514=PROPERTY_DEFINITION('material property','material name',#944);
#515=PROPERTY_DEFINITION('material property','density of part',#944);
#516=AXIS2_PLACEMENT_3D('',#722,#572,#573);
#517=AXIS2_PLACEMENT_3D('',#723,#574,#575);
#518=AXIS2_PLACEMENT_3D('',#732,#580,#581);
#519=AXIS2_PLACEMENT_3D('',#738,#585,#586);
#520=AXIS2_PLACEMENT_3D('',#744,#590,#591);
#521=AXIS2_PLACEMENT_3D('',#747,#594,#595);
#522=AXIS2_PLACEMENT_3D('',#748,#596,#597);
#523=AXIS2_PLACEMENT_3D('',#750,#598,#599);
#524=AXIS2_PLACEMENT_3D('',#752,#600,#601);
#525=AXIS2_PLACEMENT_3D('',#753,#602,#603);
#526=AXIS2_PLACEMENT_3D('',#755,#604,#605);
#527=AXIS2_PLACEMENT_3D('',#757,#606,#607);
#528=AXIS2_PLACEMENT_3D('',#758,#608,#609);
#529=AXIS2_PLACEMENT_3D('',#780,#610,#611);
#530=AXIS2_PLACEMENT_3D('',#782,#613,#614);
#531=AXIS2_PLACEMENT_3D('',#783,#615,#616);
#532=AXIS2_PLACEMENT_3D('',#805,#617,#618);
#533=AXIS2_PLACEMENT_3D('',#807,#620,#621);
#534=AXIS2_PLACEMENT_3D('',#808,#622,#623);
#535=AXIS2_PLACEMENT_3D('',#812,#625,#626);
#536=AXIS2_PLACEMENT_3D('',#816,#628,#629);
#537=AXIS2_PLACEMENT_3D('',#818,#631,#632);
#538=AXIS2_PLACEMENT_3D('',#822,#634,#635);
#539=AXIS2_PLACEMENT_3D('',#826,#637,#638);
#540=AXIS2_PLACEMENT_3D('',#828,#640,#641);
#541=AXIS2_PLACEMENT_3D('',#831,#643,#644);
#542=AXIS2_PLACEMENT_3D('',#832,#645,#646);
#543=AXIS2_PLACEMENT_3D('',#835,#648,#649);
#544=AXIS2_PLACEMENT_3D('',#836,#650,#651);
#545=AXIS2_PLACEMENT_3D('',#838,#652,#653);
#546=AXIS2_PLACEMENT_3D('',#841,#655,#656);
#547=AXIS2_PLACEMENT_3D('',#843,#657,#658);
#548=AXIS2_PLACEMENT_3D('',#846,#660,#661);
#549=AXIS2_PLACEMENT_3D('',#847,#662,#663);
#550=AXIS2_PLACEMENT_3D('',#849,#664,#665);
#551=AXIS2_PLACEMENT_3D('',#852,#667,#668);
#552=AXIS2_PLACEMENT_3D('',#862,#669,#670);
#553=AXIS2_PLACEMENT_3D('',#873,#671,#672);
#554=AXIS2_PLACEMENT_3D('',#874,#673,#674);
#555=AXIS2_PLACEMENT_3D('',#875,#675,#676);
#556=AXIS2_PLACEMENT_3D('',#877,#677,#678);
#557=AXIS2_PLACEMENT_3D('',#888,#680,#681);
#558=AXIS2_PLACEMENT_3D('',#898,#682,#683);
#559=AXIS2_PLACEMENT_3D('',#899,#684,#685);
#560=AXIS2_PLACEMENT_3D('',#903,#687,#688);
#561=AXIS2_PLACEMENT_3D('',#905,#690,#691);
#562=AXIS2_PLACEMENT_3D('',#909,#694,#695);
#563=AXIS2_PLACEMENT_3D('',#912,#697,#698);
#564=AXIS2_PLACEMENT_3D('',#913,#699,#700);
#565=AXIS2_PLACEMENT_3D('',#917,#703,#704);
#566=AXIS2_PLACEMENT_3D('',#921,#706,#707);
#567=AXIS2_PLACEMENT_3D('',#923,#709,#710);
#568=AXIS2_PLACEMENT_3D('',#927,#713,#714);
#569=AXIS2_PLACEMENT_3D('',#928,#715,#716);
#570=AXIS2_PLACEMENT_3D('',#929,#717,#718);
#571=AXIS2_PLACEMENT_3D('',#931,#720,#721);
#572=DIRECTION('axis',(0.,0.,1.));
#573=DIRECTION('refdir',(1.,0.,0.));
#574=DIRECTION('center_axis',(0.,0.,1.));
#575=DIRECTION('ref_axis',(-1.,0.,0.));
#576=DIRECTION('',(-1.,0.,0.));
#577=DIRECTION('',(0.,-1.,0.));
#578=DIRECTION('',(-1.,0.,0.));
#579=DIRECTION('',(0.,-1.,0.));
#580=DIRECTION('center_axis',(1.,0.,4.44089209850063E-16));
#581=DIRECTION('ref_axis',(-4.44089209850063E-16,0.,1.));
#582=DIRECTION('',(-4.44089209850063E-16,0.,1.));
#583=DIRECTION('',(0.,-1.,0.));
#584=DIRECTION('',(-4.44089209850063E-16,0.,1.));
#585=DIRECTION('center_axis',(0.,0.,-1.));
#586=DIRECTION('ref_axis',(1.,0.,0.));
#587=DIRECTION('',(1.,0.,0.));
#588=DIRECTION('',(0.,-1.,0.));
#589=DIRECTION('',(1.,0.,0.));
#590=DIRECTION('center_axis',(-1.,0.,0.));
#591=DIRECTION('ref_axis',(0.,0.,-1.));
#592=DIRECTION('',(0.,0.,-1.));
#593=DIRECTION('',(0.,0.,-1.));
#594=DIRECTION('center_axis',(0.,-1.,0.));
#595=DIRECTION('ref_axis',(0.,0.,-1.));
#596=DIRECTION('center_axis',(0.,1.,0.));
#597=DIRECTION('ref_axis',(1.,0.,0.));
#598=DIRECTION('center_axis',(0.,1.,0.));
#599=DIRECTION('ref_axis',(1.,0.,0.));
#600=DIRECTION('center_axis',(0.,1.,0.));
#601=DIRECTION('ref_axis',(1.,0.,0.));
#602=DIRECTION('center_axis',(0.,1.,0.));
#603=DIRECTION('ref_axis',(1.,0.,0.));
#604=DIRECTION('center_axis',(0.,1.,0.));
#605=DIRECTION('ref_axis',(1.,0.,0.));
#606=DIRECTION('center_axis',(0.,1.,0.));
#607=DIRECTION('ref_axis',(1.,0.,0.));
#608=DIRECTION('center_axis',(0.,1.,0.));
#609=DIRECTION('ref_axis',(1.,0.,0.));
#610=DIRECTION('center_axis',(0.,1.,0.));
#611=DIRECTION('ref_axis',(1.,0.,0.));
#612=DIRECTION('',(0.,1.,0.));
#613=DIRECTION('center_axis',(0.,1.,0.));
#614=DIRECTION('ref_axis',(1.,0.,0.));
#615=DIRECTION('center_axis',(0.,1.,0.));
#616=DIRECTION('ref_axis',(1.,0.,0.));
#617=DIRECTION('center_axis',(0.,1.,0.));
#618=DIRECTION('ref_axis',(1.,0.,0.));
#619=DIRECTION('',(0.,1.,0.));
#620=DIRECTION('center_axis',(0.,1.,0.));
#621=DIRECTION('ref_axis',(1.,0.,0.));
#622=DIRECTION('center_axis',(1.,0.,1.14455981920119E-16));
#623=DIRECTION('ref_axis',(0.,-0.707106781186547,-0.707106781186548));
#624=DIRECTION('',(-1.,0.,-1.14455981920119E-16));
#625=DIRECTION('center_axis',(-1.,0.,0.));
#626=DIRECTION('ref_axis',(0.,0.,-1.));
#627=DIRECTION('',(1.,0.,1.14455981920119E-16));
#628=DIRECTION('center_axis',(-1.,0.,0.));
#629=DIRECTION('ref_axis',(0.,0.,-1.));
#630=DIRECTION('',(-1.,0.,-1.14455981920119E-16));
#631=DIRECTION('center_axis',(-1.,0.,0.));
#632=DIRECTION('ref_axis',(0.,-0.707106781186548,0.707106781186547));
#633=DIRECTION('',(1.,0.,0.));
#634=DIRECTION('center_axis',(1.,0.,2.53765262771464E-15));
#635=DIRECTION('ref_axis',(-2.53765262771464E-15,0.,1.));
#636=DIRECTION('',(-1.,0.,0.));
#637=DIRECTION('center_axis',(1.,0.,0.));
#638=DIRECTION('ref_axis',(0.,0.,1.));
#639=DIRECTION('',(1.,0.,0.));
#640=DIRECTION('center_axis',(0.,1.,0.));
#641=DIRECTION('ref_axis',(1.,0.,0.));
#642=DIRECTION('',(0.,1.,0.));
#643=DIRECTION('center_axis',(0.,-1.,0.));
#644=DIRECTION('ref_axis',(1.,0.,0.));
#645=DIRECTION('center_axis',(0.,1.,0.));
#646=DIRECTION('ref_axis',(1.,0.,0.));
#647=DIRECTION('',(0.,1.,0.));
#648=DIRECTION('center_axis',(0.,-1.,0.));
#649=DIRECTION('ref_axis',(1.,0.,0.));
#650=DIRECTION('center_axis',(0.,1.,0.));
#651=DIRECTION('ref_axis',(1.,0.,0.));
#652=DIRECTION('center_axis',(0.,1.,0.));
#653=DIRECTION('ref_axis',(0.707106781186547,0.,-0.707106781186548));
#654=DIRECTION('',(-4.57823927680477E-16,0.,-1.));
#655=DIRECTION('center_axis',(0.,1.,0.));
#656=DIRECTION('ref_axis',(0.707106781186548,0.,0.707106781186548));
#657=DIRECTION('center_axis',(0.,1.,0.));
#658=DIRECTION('ref_axis',(-0.707106781186548,0.,0.707106781186547));
#659=DIRECTION('',(0.,0.,1.));
#660=DIRECTION('center_axis',(0.,1.,0.));
#661=DIRECTION('ref_axis',(-0.707106781186548,0.,-0.707106781186548));
#662=DIRECTION('center_axis',(4.57823927680477E-16,0.,1.));
#663=DIRECTION('ref_axis',(0.707106781186547,-0.707106781186548,0.));
#664=DIRECTION('center_axis',(0.,0.,1.));
#665=DIRECTION('ref_axis',(0.,-1.,0.));
#666=DIRECTION('',(4.57823927680477E-16,0.,1.));
#667=DIRECTION('center_axis',(0.,0.,-1.));
#668=DIRECTION('ref_axis',(1.,0.,0.));
#669=DIRECTION('center_axis',(0.,-1.,0.));
#670=DIRECTION('ref_axis',(0.707106781186547,0.,0.707106781186547));
#671=DIRECTION('center_axis',(2.53765262771464E-15,0.,1.));
#672=DIRECTION('ref_axis',(-1.,0.,2.53765262771464E-15));
#673=DIRECTION('center_axis',(0.,-1.,0.));
#674=DIRECTION('ref_axis',(-0.707106781186548,0.,0.707106781186547));
#675=DIRECTION('center_axis',(0.,0.,-1.));
#676=DIRECTION('ref_axis',(-0.707106781186548,-0.707106781186547,0.));
#677=DIRECTION('center_axis',(0.,0.,1.));
#678=DIRECTION('ref_axis',(-1.,0.,0.));
#679=DIRECTION('',(0.,0.,-1.));
#680=DIRECTION('center_axis',(0.,-1.,0.));
#681=DIRECTION('ref_axis',(-0.707106781186548,0.,-0.707106781186548));
#682=DIRECTION('center_axis',(0.,-1.,0.));
#683=DIRECTION('ref_axis',(0.707106781186547,0.,-0.707106781186548));
#684=DIRECTION('center_axis',(0.,1.,0.));
#685=DIRECTION('ref_axis',(-2.22044604925031E-15,0.,1.));
#686=DIRECTION('',(0.,1.,0.));
#687=DIRECTION('center_axis',(0.,1.,0.));
#688=DIRECTION('ref_axis',(-2.22044604925031E-15,0.,1.));
#689=DIRECTION('',(0.,1.,0.));
#690=DIRECTION('center_axis',(0.,0.,1.));
#691=DIRECTION('ref_axis',(1.,0.,0.));
#692=DIRECTION('',(0.,1.,0.));
#693=DIRECTION('',(1.,0.,0.));
#694=DIRECTION('center_axis',(0.,1.,0.));
#695=DIRECTION('ref_axis',(1.,0.,-1.48029736616688E-15));
#696=DIRECTION('',(0.,1.,0.));
#697=DIRECTION('center_axis',(0.,1.,0.));
#698=DIRECTION('ref_axis',(1.,0.,-1.48029736616688E-15));
#699=DIRECTION('center_axis',(1.,0.,-4.57823927680477E-16));
#700=DIRECTION('ref_axis',(-4.57823927680477E-16,0.,-1.));
#701=DIRECTION('',(0.,1.,0.));
#702=DIRECTION('',(-4.57823927680477E-16,0.,-1.));
#703=DIRECTION('center_axis',(0.,1.,0.));
#704=DIRECTION('ref_axis',(-1.,0.,0.));
#705=DIRECTION('',(0.,1.,0.));
#706=DIRECTION('center_axis',(0.,1.,0.));
#707=DIRECTION('ref_axis',(-1.,0.,0.));
#708=DIRECTION('',(0.,1.,0.));
#709=DIRECTION('center_axis',(1.14455981920119E-16,0.,-1.));
#710=DIRECTION('ref_axis',(-1.,0.,-1.14455981920119E-16));
#711=DIRECTION('',(-1.,0.,-1.14455981920119E-16));
#712=DIRECTION('',(0.,1.,0.));
#713=DIRECTION('center_axis',(0.,1.,0.));
#714=DIRECTION('ref_axis',(0.,0.,-1.));
#715=DIRECTION('center_axis',(0.,1.,0.));
#716=DIRECTION('ref_axis',(0.,0.,-1.));
#717=DIRECTION('center_axis',(-1.,0.,0.));
#718=DIRECTION('ref_axis',(0.,0.,1.));
#719=DIRECTION('',(0.,0.,1.));
#720=DIRECTION('center_axis',(0.,1.,0.));
#721=DIRECTION('ref_axis',(1.,0.,0.));
#722=CARTESIAN_POINT('',(0.,0.,0.));
#723=CARTESIAN_POINT('Origin',(75.8,8.,75.8));
#724=CARTESIAN_POINT('',(75.8,8.,75.8));
#725=CARTESIAN_POINT('',(55.8,8.,75.8));
#726=CARTESIAN_POINT('',(70.8,8.,75.8));
#727=CARTESIAN_POINT('',(75.8,2.,75.8));
#728=CARTESIAN_POINT('',(75.8,8.,75.8));
#729=CARTESIAN_POINT('',(55.8,2.,75.8));
#730=CARTESIAN_POINT('',(55.8,2.,75.8));
#731=CARTESIAN_POINT('',(55.8,8.,75.8));
#732=CARTESIAN_POINT('Origin',(75.8,8.,55.7999999999999));
#733=CARTESIAN_POINT('',(75.8,8.,55.7999999999999));
#734=CARTESIAN_POINT('',(75.8,8.,60.8));
#735=CARTESIAN_POINT('',(75.8,2.,55.7999999999999));
#736=CARTESIAN_POINT('',(75.8,8.,55.7999999999999));
#737=CARTESIAN_POINT('',(75.8,2.,75.8));
#738=CARTESIAN_POINT('Origin',(55.8,8.,55.7999999999999));
#739=CARTESIAN_POINT('',(55.8,8.,55.7999999999999));
#740=CARTESIAN_POINT('',(60.8,8.,55.7999999999999));
#741=CARTESIAN_POINT('',(55.8,2.,55.7999999999999));
#742=CARTESIAN_POINT('',(55.8,8.,55.7999999999999));
#743=CARTESIAN_POINT('',(75.8,2.,55.7999999999999));
#744=CARTESIAN_POINT('Origin',(55.8,8.,75.8));
#745=CARTESIAN_POINT('',(55.8,8.,70.8));
#746=CARTESIAN_POINT('',(55.8,2.,55.7999999999999));
#747=CARTESIAN_POINT('Origin',(65.8,2.,65.8));
#748=CARTESIAN_POINT('Origin',(65.8,3.,22.5));
#749=CARTESIAN_POINT('',(63.8,3.,22.5));
#750=CARTESIAN_POINT('Origin',(65.8,3.,22.5));
#751=CARTESIAN_POINT('',(64.7,3.,22.5));
#752=CARTESIAN_POINT('Origin',(65.8,3.,22.5));
#753=CARTESIAN_POINT('Origin',(65.8,3.,109.1));
#754=CARTESIAN_POINT('',(63.8,3.,109.1));
#755=CARTESIAN_POINT('Origin',(65.8,3.,109.1));
#756=CARTESIAN_POINT('',(64.7,3.,109.1));
#757=CARTESIAN_POINT('Origin',(65.8,3.,109.1));
#758=CARTESIAN_POINT('Origin',(65.8,0.,22.5));
#759=CARTESIAN_POINT('',(67.7364916731037,0.,22.));
#760=CARTESIAN_POINT('',(63.8635083268963,0.,22.));
#761=CARTESIAN_POINT('Ctrl Pts',(67.7364916731037,1.11022302462516E-15,
22.));
#762=CARTESIAN_POINT('Ctrl Pts',(67.7133424294679,1.09600318740015E-15,
21.9103433649211));
#763=CARTESIAN_POINT('Ctrl Pts',(67.6837746530961,0.00174075415814095,21.8217183161929));
#764=CARTESIAN_POINT('Ctrl Pts',(67.5464242508646,0.0142913554704182,21.4896039191517));
#765=CARTESIAN_POINT('Ctrl Pts',(67.3929970868252,0.0363895911512813,21.2651090380955));
#766=CARTESIAN_POINT('Ctrl Pts',(67.0389251361422,0.0830614746911656,20.909963040803));
#767=CARTESIAN_POINT('Ctrl Pts',(66.814221704492,0.110692411342423,20.7556723974283));
#768=CARTESIAN_POINT('Ctrl Pts',(66.3209963895411,0.150886663796849,20.55067014637));
#769=CARTESIAN_POINT('Ctrl Pts',(66.0523886056575,0.162602834411332,20.5));
#770=CARTESIAN_POINT('Ctrl Pts',(65.5476113943425,0.162602834411332,20.5));
#771=CARTESIAN_POINT('Ctrl Pts',(65.2790036104589,0.150886663796848,20.55067014637));
#772=CARTESIAN_POINT('Ctrl Pts',(64.785778295508,0.110692411342422,20.7556723974283));
#773=CARTESIAN_POINT('Ctrl Pts',(64.5610748638579,0.0830614746911656,20.909963040803));
#774=CARTESIAN_POINT('Ctrl Pts',(64.2070029131748,0.0363895911512813,21.2651090380955));
#775=CARTESIAN_POINT('Ctrl Pts',(64.0535757491355,0.0142913554704171,21.4896039191517));
#776=CARTESIAN_POINT('Ctrl Pts',(63.9162253469039,0.00174075415813991,21.8217183161929));
#777=CARTESIAN_POINT('Ctrl Pts',(63.8866575705321,1.09600318740015E-15,
21.9103433649211));
#778=CARTESIAN_POINT('Ctrl Pts',(63.8635083268963,1.11022302462516E-15,
22.));
#779=CARTESIAN_POINT('',(63.8,0.,22.5));
#780=CARTESIAN_POINT('Origin',(65.8,0.,22.5));
#781=CARTESIAN_POINT('',(63.8,0.,22.5));
#782=CARTESIAN_POINT('Origin',(65.8,0.,22.5));
#783=CARTESIAN_POINT('Origin',(65.8,0.,109.1));
#784=CARTESIAN_POINT('',(63.8635083268963,0.,109.6));
#785=CARTESIAN_POINT('',(67.7364916731037,0.,109.6));
#786=CARTESIAN_POINT('Ctrl Pts',(63.8635083268963,1.11022302462516E-15,
109.6));
#787=CARTESIAN_POINT('Ctrl Pts',(63.8866575705321,1.11022302462516E-15,
109.689656635079));
#788=CARTESIAN_POINT('Ctrl Pts',(63.9162253469039,0.00174075415814252,109.778281683807));
#789=CARTESIAN_POINT('Ctrl Pts',(64.0535757491355,0.0142913554704176,110.110396080848));
#790=CARTESIAN_POINT('Ctrl Pts',(64.2070029131748,0.0363895911512793,110.334890961905));
#791=CARTESIAN_POINT('Ctrl Pts',(64.5610748638578,0.0830614746911635,110.690036959197));
#792=CARTESIAN_POINT('Ctrl Pts',(64.785778295508,0.110692411342425,110.844327602572));
#793=CARTESIAN_POINT('Ctrl Pts',(65.2790036104589,0.15088666379685,111.04932985363));
#794=CARTESIAN_POINT('Ctrl Pts',(65.5476113943425,0.162602834411329,111.1));
#795=CARTESIAN_POINT('Ctrl Pts',(66.0523886056575,0.162602834411329,111.1));
#796=CARTESIAN_POINT('Ctrl Pts',(66.3209963895411,0.150886663796848,111.04932985363));
#797=CARTESIAN_POINT('Ctrl Pts',(66.814221704492,0.11069241134242,110.844327602572));
#798=CARTESIAN_POINT('Ctrl Pts',(67.0389251361422,0.0830614746911635,110.690036959197));
#799=CARTESIAN_POINT('Ctrl Pts',(67.3929970868252,0.0363895911512793,110.334890961905));
#800=CARTESIAN_POINT('Ctrl Pts',(67.5464242508646,0.0142913554704171,110.110396080848));
#801=CARTESIAN_POINT('Ctrl Pts',(67.6837746530961,0.00174075415814302,109.778281683807));
#802=CARTESIAN_POINT('Ctrl Pts',(67.7133424294679,1.11022302462516E-15,
109.689656635079));
#803=CARTESIAN_POINT('Ctrl Pts',(67.7364916731037,1.11022302462516E-15,
109.6));
#804=CARTESIAN_POINT('',(63.8,0.,109.1));
#805=CARTESIAN_POINT('Origin',(65.8,0.,109.1));
#806=CARTESIAN_POINT('',(63.8,0.,109.1));
#807=CARTESIAN_POINT('Origin',(65.8,0.,109.1));
#808=CARTESIAN_POINT('Origin',(85.2,7.,22.));
#809=CARTESIAN_POINT('',(27.,0.,22.));
#810=CARTESIAN_POINT('',(85.2,0.,22.));
#811=CARTESIAN_POINT('',(27.,7.,15.));
#812=CARTESIAN_POINT('Origin',(27.,7.,22.));
#813=CARTESIAN_POINT('',(104.6,7.,15.));
#814=CARTESIAN_POINT('',(85.2,7.,15.));
#815=CARTESIAN_POINT('',(104.6,0.,22.));
#816=CARTESIAN_POINT('Origin',(104.6,7.,22.));
#817=CARTESIAN_POINT('',(85.2,0.,22.));
#818=CARTESIAN_POINT('Origin',(46.4,7.,109.6));
#819=CARTESIAN_POINT('',(104.6,0.,109.6));
#820=CARTESIAN_POINT('',(46.4,0.,109.6));
#821=CARTESIAN_POINT('',(104.6,7.,116.6));
#822=CARTESIAN_POINT('Origin',(104.6,7.,109.6));
#823=CARTESIAN_POINT('',(27.,7.,116.6));
#824=CARTESIAN_POINT('',(46.4,7.,116.6));
#825=CARTESIAN_POINT('',(27.,0.,109.6));
#826=CARTESIAN_POINT('Origin',(27.,7.,109.6));
#827=CARTESIAN_POINT('',(46.4,0.,109.6));
#828=CARTESIAN_POINT('Origin',(65.8,0.,109.1));
#829=CARTESIAN_POINT('',(64.7,8.,109.1));
#830=CARTESIAN_POINT('',(64.7,0.,109.1));
#831=CARTESIAN_POINT('Origin',(65.8,8.,109.1));
#832=CARTESIAN_POINT('Origin',(65.8,0.,22.5));
#833=CARTESIAN_POINT('',(64.7,8.,22.5));
#834=CARTESIAN_POINT('',(64.7,0.,22.5));
#835=CARTESIAN_POINT('Origin',(65.8,8.,22.5));
#836=CARTESIAN_POINT('Origin',(65.8,0.,65.8));
#837=CARTESIAN_POINT('',(109.6,0.,27.));
#838=CARTESIAN_POINT('Origin',(104.6,0.,27.));
#839=CARTESIAN_POINT('',(109.6,0.,104.6));
#840=CARTESIAN_POINT('',(109.6,0.,85.1999999999999));
#841=CARTESIAN_POINT('Origin',(104.6,0.,104.6));
#842=CARTESIAN_POINT('',(22.,0.,104.6));
#843=CARTESIAN_POINT('Origin',(27.,0.,104.6));
#844=CARTESIAN_POINT('',(22.,0.,27.));
#845=CARTESIAN_POINT('',(22.,0.,46.4));
#846=CARTESIAN_POINT('Origin',(27.,0.,27.));
#847=CARTESIAN_POINT('Origin',(109.6,7.,85.1999999999999));
#848=CARTESIAN_POINT('',(116.6,7.,27.));
#849=CARTESIAN_POINT('Origin',(109.6,7.,27.));
#850=CARTESIAN_POINT('',(116.6,7.,104.6));
#851=CARTESIAN_POINT('',(116.6,7.,85.1999999999999));
#852=CARTESIAN_POINT('Origin',(109.6,7.,104.6));
#853=CARTESIAN_POINT('Ctrl Pts',(116.6,7.,104.6));
#854=CARTESIAN_POINT('Ctrl Pts',(116.6,7.,116.6));
#855=CARTESIAN_POINT('Ctrl Pts',(104.6,7.,116.6));
#856=CARTESIAN_POINT('Ctrl Pts',(116.6,-8.88178419700125E-15,104.6));
#857=CARTESIAN_POINT('Ctrl Pts',(116.6,-8.874052781927E-15,116.6));
#858=CARTESIAN_POINT('Ctrl Pts',(104.6,-8.874052781927E-15,116.6));
#859=CARTESIAN_POINT('Ctrl Pts',(109.6,0.,104.6));
#860=CARTESIAN_POINT('Ctrl Pts',(109.6,0.,109.6));
#861=CARTESIAN_POINT('Ctrl Pts',(104.6,0.,109.6));
#862=CARTESIAN_POINT('Origin',(104.6,7.,104.6));
#863=CARTESIAN_POINT('Ctrl Pts',(27.,7.,116.6));
#864=CARTESIAN_POINT('Ctrl Pts',(15.,7.,116.6));
#865=CARTESIAN_POINT('Ctrl Pts',(15.,7.,104.6));
#866=CARTESIAN_POINT('Ctrl Pts',(27.,-1.99067002925104E-15,116.6));
#867=CARTESIAN_POINT('Ctrl Pts',(15.,-1.99067002925104E-15,116.6));
#868=CARTESIAN_POINT('Ctrl Pts',(15.,-2.22044604925031E-15,104.6));
#869=CARTESIAN_POINT('Ctrl Pts',(27.,0.,109.6));
#870=CARTESIAN_POINT('Ctrl Pts',(22.,0.,109.6));
#871=CARTESIAN_POINT('Ctrl Pts',(22.,0.,104.6));
#872=CARTESIAN_POINT('',(15.,7.,104.6));
#873=CARTESIAN_POINT('Origin',(22.,7.,104.6));
#874=CARTESIAN_POINT('Origin',(27.,7.,104.6));
#875=CARTESIAN_POINT('Origin',(22.,7.,46.4));
#876=CARTESIAN_POINT('',(15.,7.,27.));
#877=CARTESIAN_POINT('Origin',(22.,7.,27.));
#878=CARTESIAN_POINT('',(15.,7.,46.4));
#879=CARTESIAN_POINT('Ctrl Pts',(15.,7.,27.));
#880=CARTESIAN_POINT('Ctrl Pts',(15.,7.,15.));
#881=CARTESIAN_POINT('Ctrl Pts',(27.,7.,15.));
#882=CARTESIAN_POINT('Ctrl Pts',(15.,0.,27.));
#883=CARTESIAN_POINT('Ctrl Pts',(15.,2.14313189850787E-16,15.));
#884=CARTESIAN_POINT('Ctrl Pts',(27.,2.14313189850787E-16,15.));
#885=CARTESIAN_POINT('Ctrl Pts',(22.,0.,27.));
#886=CARTESIAN_POINT('Ctrl Pts',(22.,0.,22.));
#887=CARTESIAN_POINT('Ctrl Pts',(27.,0.,22.));
#888=CARTESIAN_POINT('Origin',(27.,7.,27.));
#889=CARTESIAN_POINT('Ctrl Pts',(104.6,7.,15.));
#890=CARTESIAN_POINT('Ctrl Pts',(116.6,7.,15.));
#891=CARTESIAN_POINT('Ctrl Pts',(116.6,7.,27.));
#892=CARTESIAN_POINT('Ctrl Pts',(104.6,-2.45022206924959E-15,15.));
#893=CARTESIAN_POINT('Ctrl Pts',(116.6,-2.45022206924959E-15,15.));
#894=CARTESIAN_POINT('Ctrl Pts',(116.6,-2.22044604925031E-15,27.));
#895=CARTESIAN_POINT('Ctrl Pts',(104.6,0.,22.));
#896=CARTESIAN_POINT('Ctrl Pts',(109.6,0.,22.));
#897=CARTESIAN_POINT('Ctrl Pts',(109.6,0.,27.));
#898=CARTESIAN_POINT('Origin',(104.6,7.,27.));
#899=CARTESIAN_POINT('Origin',(27.,0.,104.6));
#900=CARTESIAN_POINT('',(27.,8.,116.6));
#901=CARTESIAN_POINT('',(27.,0.,116.6));
#902=CARTESIAN_POINT('',(15.,8.,104.6));
#903=CARTESIAN_POINT('Origin',(27.,8.,104.6));
#904=CARTESIAN_POINT('',(15.,0.,104.6));
#905=CARTESIAN_POINT('Origin',(27.,0.,116.6));
#906=CARTESIAN_POINT('',(104.6,8.,116.6));
#907=CARTESIAN_POINT('',(104.6,0.,116.6));
#908=CARTESIAN_POINT('',(104.6,8.,116.6));
#909=CARTESIAN_POINT('Origin',(104.6,0.,104.6));
#910=CARTESIAN_POINT('',(116.6,8.,104.6));
#911=CARTESIAN_POINT('',(116.6,0.,104.6));
#912=CARTESIAN_POINT('Origin',(104.6,8.,104.6));
#913=CARTESIAN_POINT('Origin',(116.6,0.,104.6));
#914=CARTESIAN_POINT('',(116.6,8.,27.));
#915=CARTESIAN_POINT('',(116.6,0.,27.));
#916=CARTESIAN_POINT('',(116.6,8.,27.));
#917=CARTESIAN_POINT('Origin',(27.,0.,27.));
#918=CARTESIAN_POINT('',(15.,8.,27.));
#919=CARTESIAN_POINT('',(15.,0.,27.));
#920=CARTESIAN_POINT('',(27.,8.,15.));
#921=CARTESIAN_POINT('Origin',(27.,8.,27.));
#922=CARTESIAN_POINT('',(27.,0.,15.));
#923=CARTESIAN_POINT('Origin',(104.6,0.,15.));
#924=CARTESIAN_POINT('',(104.6,8.,15.));
#925=CARTESIAN_POINT('',(27.,8.,15.));
#926=CARTESIAN_POINT('',(104.6,0.,15.));
#927=CARTESIAN_POINT('Origin',(104.6,0.,27.));
#928=CARTESIAN_POINT('Origin',(104.6,8.,27.));
#929=CARTESIAN_POINT('Origin',(15.,0.,27.));
#930=CARTESIAN_POINT('',(15.,8.,104.6));
#931=CARTESIAN_POINT('Origin',(65.8,8.,65.8));
#932=UNCERTAINTY_MEASURE_WITH_UNIT(LENGTH_MEASURE(0.01),#936,
'DISTANCE_ACCURACY_VALUE',
'Maximum model space distance between geometric entities at asserted c
onnectivities');
#933=UNCERTAINTY_MEASURE_WITH_UNIT(LENGTH_MEASURE(0.01),#936,
'DISTANCE_ACCURACY_VALUE',
'Maximum model space distance between geometric entities at asserted c
onnectivities');
#934=(
GEOMETRIC_REPRESENTATION_CONTEXT(3)
GLOBAL_UNCERTAINTY_ASSIGNED_CONTEXT((#932))
GLOBAL_UNIT_ASSIGNED_CONTEXT((#936,#938,#939))
REPRESENTATION_CONTEXT('','3D')
);
#935=(
GEOMETRIC_REPRESENTATION_CONTEXT(3)
GLOBAL_UNCERTAINTY_ASSIGNED_CONTEXT((#933))
GLOBAL_UNIT_ASSIGNED_CONTEXT((#936,#938,#939))
REPRESENTATION_CONTEXT('','3D')
);
#936=(
LENGTH_UNIT()
NAMED_UNIT(*)
SI_UNIT(.MILLI.,.METRE.)
);
#937=(
LENGTH_UNIT()
NAMED_UNIT(*)
SI_UNIT($,.METRE.)
);
#938=(
NAMED_UNIT(*)
PLANE_ANGLE_UNIT()
SI_UNIT($,.RADIAN.)
);
#939=(
NAMED_UNIT(*)
SI_UNIT($,.STERADIAN.)
SOLID_ANGLE_UNIT()
);
#940=SHAPE_DEFINITION_REPRESENTATION(#941,#942);
#941=PRODUCT_DEFINITION_SHAPE('',$,#944);
#942=SHAPE_REPRESENTATION('',(#516),#934);
#943=PRODUCT_DEFINITION_CONTEXT('part definition',#948,'design');
#944=PRODUCT_DEFINITION('2026-08-18-13-06-48-818','Mimo Top',#945,#943);
#945=PRODUCT_DEFINITION_FORMATION('',$,#950);
#946=PRODUCT_RELATED_PRODUCT_CATEGORY('Mimo Top','Mimo Top',(#950));
#947=APPLICATION_PROTOCOL_DEFINITION('international standard',
'automotive_design',2009,#948);
#948=APPLICATION_CONTEXT(
'Core Data for Automotive Mechanical Design Process');
#949=PRODUCT_CONTEXT('part definition',#948,'mechanical');
#950=PRODUCT('2026-08-18-13-06-48-818','Mimo Top',$,(#949));
#951=PRESENTATION_STYLE_ASSIGNMENT((#952));
#952=SURFACE_STYLE_USAGE(.BOTH.,#953);
#953=SURFACE_SIDE_STYLE('',(#954));
#954=SURFACE_STYLE_FILL_AREA(#955);
#955=FILL_AREA_STYLE('Steel - Satin',(#956));
#956=FILL_AREA_STYLE_COLOUR('Steel - Satin',#957);
#957=COLOUR_RGB('Steel - Satin',0.627450980392157,0.627450980392157,0.627450980392157);
ENDSEC;
END-ISO-10303-21;
